<svg width="108" height="26" viewBox="0 0 108 26" fill="none" xmlns="http://www.w3.org/2000/svg">
<path d="M0.00874063 0.0106467C3.42204 0.0170501 6.83534 -0.00215992 10.2486 0.0191848C11.3478 0.0960258 12.6786 0.0661427 13.4631 0.958352C14.0924 2.02345 14.0116 3.31267 13.9919 4.49731C14.0225 5.12484 13.5986 5.62217 13.2358 6.08749C13.5876 6.57415 14.0203 7.08002 13.9897 7.71609C14.0007 8.82601 14.2454 10.1003 13.4718 11.0352C12.7573 11.8954 11.5117 11.9658 10.465 12.017C6.97738 12.0192 3.48978 12.0192 0 12.017C0.00874085 8.01491 -0.00437064 4.01278 0.00874063 0.0106467ZM3.55315 3.07361C3.55534 3.6179 3.55534 4.16219 3.55315 4.70648C5.49799 4.70648 7.44283 4.71075 9.38767 4.70862C10.3732 4.85376 10.4584 2.84522 9.38767 3.06721C7.44283 3.07361 5.49799 3.06934 3.55315 3.07361ZM3.55315 7.45995C3.55534 7.99357 3.55534 8.52932 3.55971 9.06294C5.57447 9.03946 7.59142 9.09923 9.604 9.03946C10.3098 8.86017 10.1765 7.90819 9.79849 7.46209C7.71598 7.44928 5.63566 7.45355 3.55315 7.45995Z" fill="#A1AEB7"/>
<path d="M0.00874063 0.0106467C3.42204 0.0170501 6.83534 -0.00215992 10.2486 0.0191848C11.3478 0.0960258 12.6786 0.0661427 13.4631 0.958352C14.0924 2.02345 14.0116 3.31267 13.9919 4.49731C14.0225 5.12484 13.5986 5.62217 13.2358 6.08749C13.5876 6.57415 14.0203 7.08002 13.9897 7.71609C14.0007 8.82601 14.2454 10.1003 13.4718 11.0352C12.7573 11.8954 11.5117 11.9658 10.465 12.017C6.97738 12.0192 3.48978 12.0192 0 12.017C0.00874085 8.01491 -0.00437064 4.01278 0.00874063 0.0106467ZM3.55315 3.07361C3.55534 3.6179 3.55534 4.16219 3.55315 4.70648C5.49799 4.70648 7.44283 4.71075 9.38767 4.70862C10.3732 4.85376 10.4584 2.84522 9.38767 3.06721C7.44283 3.07361 5.49799 3.06934 3.55315 3.07361ZM3.55315 7.45995C3.55534 7.99357 3.55534 8.52932 3.55971 9.06294C5.57447 9.03946 7.59142 9.09923 9.604 9.03946C10.3098 8.86017 10.1765 7.90819 9.79849 7.46209C7.71598 7.44928 5.63566 7.45355 3.55315 7.45995Z" fill="black" fill-opacity="0.2"/>
<path d="M20.1477 0.0149412C21.8718 -6.52025e-08 23.5937 0.0234792 25.3179 0C27.3326 3.99146 29.2491 8.02775 31.2464 12.0277C30.0554 12.0107 28.8645 12.0149 27.6735 12.0235C27.2015 11.2038 26.7754 10.3607 26.2816 9.55389C24.0876 9.5603 21.8936 9.56243 19.6975 9.55176C19.2299 10.3586 18.8169 11.1953 18.3886 12.0235C17.1277 12.0149 15.8668 12.0171 14.6082 12.0192C16.4787 8.02988 18.2837 4.00854 20.1477 0.0149412ZM22.6694 3.16969C22.0138 4.33938 21.5265 5.59872 20.9016 6.78762C22.2411 6.76627 23.5806 6.78335 24.9202 6.77481C24.2843 5.66275 23.797 4.48026 23.2004 3.35112C23.1196 3.16542 22.8202 2.86233 22.6694 3.16969Z" fill="#A1AEB7"/>
<path d="M20.1477 0.0149412C21.8718 -6.52025e-08 23.5937 0.0234792 25.3179 0C27.3326 3.99146 29.2491 8.02775 31.2464 12.0277C30.0554 12.0107 28.8645 12.0149 27.6735 12.0235C27.2015 11.2038 26.7754 10.3607 26.2816 9.55389C24.0876 9.5603 21.8936 9.56243 19.6975 9.55176C19.2299 10.3586 18.8169 11.1953 18.3886 12.0235C17.1277 12.0149 15.8668 12.0171 14.6082 12.0192C16.4787 8.02988 18.2837 4.00854 20.1477 0.0149412ZM22.6694 3.16969C22.0138 4.33938 21.5265 5.59872 20.9016 6.78762C22.2411 6.76627 23.5806 6.78335 24.9202 6.77481C24.2843 5.66275 23.797 4.48026 23.2004 3.35112C23.1196 3.16542 22.8202 2.86233 22.6694 3.16969Z" fill="black" fill-opacity="0.2"/>
<path d="M32.6908 0.0106632C33.7419 0.027739 34.7951 -0.021354 35.8462 0.0256044C36.1806 0.0234699 36.3663 0.352178 36.5936 0.542146C38.7067 2.75986 40.87 4.93489 42.9831 7.15261C42.9722 4.77267 42.9809 2.3906 42.9787 0.0106632C44.1828 0.00852871 45.3869 0.0106632 46.5887 0.0106632C46.5931 4.0128 46.5887 8.01493 46.5909 12.0192C45.3912 12.0192 44.1915 12.0128 42.9919 12.0235C40.6799 9.74385 38.3964 7.43649 36.0713 5.17182C36.0844 7.45357 36.0757 9.73532 36.0779 12.0149C34.9459 12.0192 33.8162 12.0171 32.6864 12.0171C32.693 8.01493 32.6842 4.0128 32.6908 0.0106632Z" fill="#A1AEB7"/>
<path d="M32.6908 0.0106632C33.7419 0.027739 34.7951 -0.021354 35.8462 0.0256044C36.1806 0.0234699 36.3663 0.352178 36.5936 0.542146C38.7067 2.75986 40.87 4.93489 42.9831 7.15261C42.9722 4.77267 42.9809 2.3906 42.9787 0.0106632C44.1828 0.00852871 45.3869 0.0106632 46.5887 0.0106632C46.5931 4.0128 46.5887 8.01493 46.5909 12.0192C45.3912 12.0192 44.1915 12.0128 42.9919 12.0235C40.6799 9.74385 38.3964 7.43649 36.0713 5.17182C36.0844 7.45357 36.0757 9.73532 36.0779 12.0149C34.9459 12.0192 33.8162 12.0171 32.6864 12.0171C32.693 8.01493 32.6842 4.0128 32.6908 0.0106632Z" fill="black" fill-opacity="0.2"/>
<path d="M48.2516 0.0490452C51.3197 -0.0406026 54.3899 0.0383723 57.4601 0.00848975C58.5069 0.0405068 59.6541 0.00848986 60.561 0.599738C61.3083 1.15257 61.5181 2.13442 61.5509 3.00102C61.553 5.06932 61.553 7.13762 61.5509 9.20806C61.529 10.064 61.2908 11.048 60.5041 11.5389C59.783 11.953 58.9155 12.0021 58.1004 12.0213C54.8182 12.0128 51.536 12.0234 48.2538 12.0149C48.2604 8.02556 48.2582 4.03837 48.2516 0.0490452ZM51.6212 3.21873C51.6125 5.16537 51.6322 7.11415 51.6081 9.06078C53.483 9.06505 55.3601 9.10347 57.2329 9.04798C57.8098 9.01169 58.0436 8.41831 57.9911 7.92524C57.9627 6.57626 58.0501 5.22087 57.9474 3.87615C57.8688 3.3404 57.2722 3.18458 56.8024 3.21233C55.0739 3.20593 53.3476 3.20166 51.6212 3.21873Z" fill="#A1AEB7"/>
<path d="M48.2516 0.0490452C51.3197 -0.0406026 54.3899 0.0383723 57.4601 0.00848975C58.5069 0.0405068 59.6541 0.00848986 60.561 0.599738C61.3083 1.15257 61.5181 2.13442 61.5509 3.00102C61.553 5.06932 61.553 7.13762 61.5509 9.20806C61.529 10.064 61.2908 11.048 60.5041 11.5389C59.783 11.953 58.9155 12.0021 58.1004 12.0213C54.8182 12.0128 51.536 12.0234 48.2538 12.0149C48.2604 8.02556 48.2582 4.03837 48.2516 0.0490452ZM51.6212 3.21873C51.6125 5.16537 51.6322 7.11415 51.6081 9.06078C53.483 9.06505 55.3601 9.10347 57.2329 9.04798C57.8098 9.01169 58.0436 8.41831 57.9911 7.92524C57.9627 6.57626 58.0501 5.22087 57.9474 3.87615C57.8688 3.3404 57.2722 3.18458 56.8024 3.21233C55.0739 3.20593 53.3476 3.20166 51.6212 3.21873Z" fill="black" fill-opacity="0.2"/>
<path d="M63.6224 0.0214014C67.3744 0.00646009 71.1242 0.00219115 74.8763 0.0214014C74.8763 1.08223 74.8719 2.14307 74.8806 3.20603C72.2343 3.22524 69.5902 3.18896 66.9461 3.22311C66.9483 3.76953 66.9505 4.31382 66.9527 4.86025C69.5968 4.85598 72.2409 4.84958 74.8872 4.86238C74.8697 5.77167 74.8697 6.68309 74.8872 7.59237C72.2431 7.60731 69.5968 7.59877 66.9527 7.59451C66.9505 8.08543 66.9505 8.57423 66.9527 9.06516C69.5968 9.06089 72.2409 9.05875 74.8828 9.06516C74.8719 10.047 74.8741 11.031 74.8806 12.0129C71.1264 12.0214 67.3722 12.0193 63.618 12.015C63.6268 8.01713 63.6202 4.01927 63.6224 0.0214014Z" fill="#A1AEB7"/>
<path d="M63.6224 0.0214014C67.3744 0.00646009 71.1242 0.00219115 74.8763 0.0214014C74.8763 1.08223 74.8719 2.14307 74.8806 3.20603C72.2343 3.22524 69.5902 3.18896 66.9461 3.22311C66.9483 3.76953 66.9505 4.31382 66.9527 4.86025C69.5968 4.85598 72.2409 4.84958 74.8872 4.86238C74.8697 5.77167 74.8697 6.68309 74.8872 7.59237C72.2431 7.60731 69.5968 7.59877 66.9527 7.59451C66.9505 8.08543 66.9505 8.57423 66.9527 9.06516C69.5968 9.06089 72.2409 9.05875 74.8828 9.06516C74.8719 10.047 74.8741 11.031 74.8806 12.0129C71.1264 12.0214 67.3722 12.0193 63.618 12.015C63.6268 8.01713 63.6202 4.01927 63.6224 0.0214014Z" fill="black" fill-opacity="0.2"/>
<path d="M76.9806 0.0214294C78.165 0.00435367 79.3494 8.44658e-05 80.5338 0.0278326C80.5294 3.03957 80.5316 6.05131 80.5316 9.06092C82.6032 9.05452 84.6726 9.07586 86.7442 9.05025C86.7464 10.0406 86.7442 11.031 86.7442 12.0193C83.4838 12.0044 80.2257 12.0428 76.9675 12.0022C76.9981 8.00862 76.9719 4.01503 76.9806 0.0214294Z" fill="#A1AEB7"/>
<path d="M76.9806 0.0214294C78.165 0.00435367 79.3494 8.44658e-05 80.5338 0.0278326C80.5294 3.03957 80.5316 6.05131 80.5316 9.06092C82.6032 9.05452 84.6726 9.07586 86.7442 9.05025C86.7464 10.0406 86.7442 11.031 86.7442 12.0193C83.4838 12.0044 80.2257 12.0428 76.9675 12.0022C76.9981 8.00862 76.9719 4.01503 76.9806 0.0214294Z" fill="black" fill-opacity="0.2"/>
<path d="M88.1274 0.0384376C89.279 -0.00638629 90.4306 -0.00425182 91.5822 0.0384376C91.5734 4.0299 91.5822 8.0235 91.5778 12.0171C90.435 12.0235 89.2943 12.0086 88.1536 12.0299C88.1077 8.03203 88.158 4.0363 88.1274 0.0384376Z" fill="#A1AEB7"/>
<path d="M88.1274 0.0384376C89.279 -0.00638629 90.4306 -0.00425182 91.5822 0.0384376C91.5734 4.0299 91.5822 8.0235 91.5778 12.0171C90.435 12.0235 89.2943 12.0086 88.1536 12.0299C88.1077 8.03203 88.158 4.0363 88.1274 0.0384376Z" fill="black" fill-opacity="0.2"/>
<path d="M94.0056 0.0107561C95.1266 0.00862165 96.2498 0.00862129 97.3752 0.0128902C99.6894 2.39069 101.995 4.77703 104.309 7.15483C104.307 4.77917 104.313 2.4035 104.307 0.0256974C105.504 -0.00418525 106.702 0.0171595 107.899 0.0107561C107.914 4.01289 107.899 8.01503 107.908 12.0172C106.7 11.9851 105.48 12.0876 104.278 11.9723C101.947 9.73541 99.685 7.42378 97.3862 5.1527C97.4036 7.43872 97.384 9.72687 97.3949 12.015C96.263 12.0214 95.1288 12.0193 93.9969 12.0172C94.0056 8.01503 93.9925 4.01289 94.0056 0.0107561Z" fill="#A1AEB7"/>
<path d="M94.0056 0.0107561C95.1266 0.00862165 96.2498 0.00862129 97.3752 0.0128902C99.6894 2.39069 101.995 4.77703 104.309 7.15483C104.307 4.77917 104.313 2.4035 104.307 0.0256974C105.504 -0.00418525 106.702 0.0171595 107.899 0.0107561C107.914 4.01289 107.899 8.01503 107.908 12.0172C106.7 11.9851 105.48 12.0876 104.278 11.9723C101.947 9.73541 99.685 7.42378 97.3862 5.1527C97.4036 7.43872 97.384 9.72687 97.3949 12.015C96.263 12.0214 95.1288 12.0193 93.9969 12.0172C94.0056 8.01503 93.9925 4.01289 94.0056 0.0107561Z" fill="black" fill-opacity="0.2"/>
<path d="M8.2863 16.8816C8.60534 16.8816 8.92439 16.8816 9.24343 16.8837C9.25435 19.8677 9.24561 22.8517 9.2478 25.8357C8.92657 25.8357 8.60534 25.8378 8.28412 25.84C8.2863 22.8538 8.28193 19.8677 8.2863 16.8816Z" fill="#A1AEB7"/>
<path d="M8.2863 16.8816C8.60534 16.8816 8.92439 16.8816 9.24343 16.8837C9.25435 19.8677 9.24561 22.8517 9.2478 25.8357C8.92657 25.8357 8.60534 25.8378 8.28412 25.84C8.2863 22.8538 8.28193 19.8677 8.2863 16.8816Z" fill="black" fill-opacity="0.2"/>
<path d="M37.8326 16.9094C38.1625 16.9072 38.4903 16.9072 38.8203 16.9072C38.8159 17.9168 38.8247 18.9264 38.8072 19.9382C39.7315 19.5561 40.7848 19.3149 41.7703 19.6223C42.3494 19.7952 42.7209 20.3544 42.7755 20.9286C43.0246 22.5529 42.8695 24.205 42.9066 25.8421C42.592 25.8357 42.2795 25.8315 41.9648 25.8272C41.9626 24.5529 41.991 23.2786 41.9539 22.0065C41.9277 21.4942 41.8621 20.9051 41.4644 20.5337C40.6275 20.1153 39.6529 20.4291 38.8159 20.6895C38.8225 22.4035 38.8137 24.1175 38.8203 25.8315C38.4903 25.8315 38.1604 25.8315 37.8326 25.8315C37.8391 22.856 37.837 19.8827 37.8326 16.9094Z" fill="#A1AEB7"/>
<path d="M37.8326 16.9094C38.1625 16.9072 38.4903 16.9072 38.8203 16.9072C38.8159 17.9168 38.8247 18.9264 38.8072 19.9382C39.7315 19.5561 40.7848 19.3149 41.7703 19.6223C42.3494 19.7952 42.7209 20.3544 42.7755 20.9286C43.0246 22.5529 42.8695 24.205 42.9066 25.8421C42.592 25.8357 42.2795 25.8315 41.9648 25.8272C41.9626 24.5529 41.991 23.2786 41.9539 22.0065C41.9277 21.4942 41.8621 20.9051 41.4644 20.5337C40.6275 20.1153 39.6529 20.4291 38.8159 20.6895C38.8225 22.4035 38.8137 24.1175 38.8203 25.8315C38.4903 25.8315 38.1604 25.8315 37.8326 25.8315C37.8391 22.856 37.837 19.8827 37.8326 16.9094Z" fill="black" fill-opacity="0.2"/>
<path d="M51.1143 16.8816C51.4355 16.8816 51.7568 16.8816 52.078 16.8816C52.0976 19.8677 52.0867 22.8517 52.0845 25.8357C51.7611 25.8378 51.4355 25.8378 51.1143 25.8421C51.1187 22.856 51.1099 19.8677 51.1143 16.8816Z" fill="#A1AEB7"/>
<path d="M51.1143 16.8816C51.4355 16.8816 51.7568 16.8816 52.078 16.8816C52.0976 19.8677 52.0867 22.8517 52.0845 25.8357C51.7611 25.8378 51.4355 25.8378 51.1143 25.8421C51.1187 22.856 51.1099 19.8677 51.1143 16.8816Z" fill="black" fill-opacity="0.2"/>
<path d="M54.0512 16.9072C54.3746 16.9072 54.6958 16.9094 55.0193 16.9094C55.0105 19.8827 55.0105 22.856 55.0193 25.8272C54.6958 25.8293 54.3746 25.8314 54.0512 25.8314C54.0556 22.856 54.0578 19.8827 54.0512 16.9072Z" fill="#A1AEB7"/>
<path d="M54.0512 16.9072C54.3746 16.9072 54.6958 16.9094 55.0193 16.9094C55.0105 19.8827 55.0105 22.856 55.0193 25.8272C54.6958 25.8293 54.3746 25.8314 54.0512 25.8314C54.0556 22.856 54.0578 19.8827 54.0512 16.9072Z" fill="black" fill-opacity="0.2"/>
<path d="M72.0945 17.1228C72.4092 17.1271 72.726 17.1335 73.0429 17.1399C73.0363 17.5027 73.0341 17.8656 73.0298 18.2285C72.7151 18.2242 72.4004 18.2221 72.088 18.2178C72.088 17.8528 72.0901 17.4878 72.0945 17.1228Z" fill="#A1AEB7"/>
<path d="M72.0945 17.1228C72.4092 17.1271 72.726 17.1335 73.0429 17.1399C73.0363 17.5027 73.0341 17.8656 73.0298 18.2285C72.7151 18.2242 72.4004 18.2221 72.088 18.2178C72.088 17.8528 72.0901 17.4878 72.0945 17.1228Z" fill="black" fill-opacity="0.2"/>
<path d="M0.122375 17.2209C0.443602 17.2188 0.764828 17.2167 1.08605 17.2124C1.08605 19.1697 1.08387 21.1249 1.08387 23.0822C1.06857 23.8293 1.35702 24.7364 2.17647 24.9648C2.95222 25.1782 3.85035 25.1804 4.57802 24.8069C5.1877 24.4483 5.32973 23.7183 5.31225 23.0737C5.31444 21.1206 5.31007 19.1697 5.31225 17.2167C5.64659 17.2188 5.98311 17.2209 6.31745 17.2231C6.31308 19.1697 6.31526 21.1185 6.31963 23.0673C6.28467 23.9893 6.07708 25.1099 5.13962 25.5625C4.01861 26.0939 2.65722 26.0833 1.49469 25.6798C0.58127 25.3597 0.113635 24.3949 0.135487 23.4899C0.109264 21.4002 0.137672 19.3106 0.122375 17.2209Z" fill="#A1AEB7"/>
<path d="M0.122375 17.2209C0.443602 17.2188 0.764828 17.2167 1.08605 17.2124C1.08605 19.1697 1.08387 21.1249 1.08387 23.0822C1.06857 23.8293 1.35702 24.7364 2.17647 24.9648C2.95222 25.1782 3.85035 25.1804 4.57802 24.8069C5.1877 24.4483 5.32973 23.7183 5.31225 23.0737C5.31444 21.1206 5.31007 19.1697 5.31225 17.2167C5.64659 17.2188 5.98311 17.2209 6.31745 17.2231C6.31308 19.1697 6.31526 21.1185 6.31963 23.0673C6.28467 23.9893 6.07708 25.1099 5.13962 25.5625C4.01861 26.0939 2.65722 26.0833 1.49469 25.6798C0.58127 25.3597 0.113635 24.3949 0.135487 23.4899C0.109264 21.4002 0.137672 19.3106 0.122375 17.2209Z" fill="black" fill-opacity="0.2"/>
<path d="M89.373 17.7589C90.4197 17.3362 91.7789 17.3597 92.6486 18.1431C93.6538 19.078 93.7784 20.5251 93.7762 21.8037C93.8002 23.0609 93.6822 24.5486 92.5678 25.3725C91.2872 26.2733 89.609 25.9381 88.1602 25.7375C88.1842 25.5454 88.2323 25.1633 88.2564 24.9712C89.2768 25.0523 90.3301 25.221 91.3397 24.9862C92.4891 24.6233 92.771 23.2978 92.8234 22.2669C91.4795 22.7492 89.7816 23.0865 88.5645 22.1345C87.297 20.9072 87.6773 18.4397 89.373 17.7589ZM88.9862 19.4899C88.8027 20.2199 88.8136 21.1868 89.5522 21.6265C90.5836 22.1495 91.7592 21.7418 92.7972 21.4472C92.7841 20.6062 92.6989 19.7119 92.1854 19.0054C91.3921 17.9445 89.3905 18.205 88.9862 19.4899Z" fill="#A1AEB7"/>
<path d="M89.373 17.7589C90.4197 17.3362 91.7789 17.3597 92.6486 18.1431C93.6538 19.078 93.7784 20.5251 93.7762 21.8037C93.8002 23.0609 93.6822 24.5486 92.5678 25.3725C91.2872 26.2733 89.609 25.9381 88.1602 25.7375C88.1842 25.5454 88.2323 25.1633 88.2564 24.9712C89.2768 25.0523 90.3301 25.221 91.3397 24.9862C92.4891 24.6233 92.771 23.2978 92.8234 22.2669C91.4795 22.7492 89.7816 23.0865 88.5645 22.1345C87.297 20.9072 87.6773 18.4397 89.373 17.7589ZM88.9862 19.4899C88.8027 20.2199 88.8136 21.1868 89.5522 21.6265C90.5836 22.1495 91.7592 21.7418 92.7972 21.4472C92.7841 20.6062 92.6989 19.7119 92.1854 19.0054C91.3921 17.9445 89.3905 18.205 88.9862 19.4899Z" fill="black" fill-opacity="0.2"/>
<path d="M11.4964 17.6926C11.8089 17.6926 12.1213 17.6926 12.436 17.6948C12.436 18.3372 12.436 18.9818 12.436 19.6265C13.1069 19.6137 13.7799 19.6137 14.4508 19.6137C14.4508 19.8207 14.4508 20.2369 14.4486 20.4461C13.7821 20.4418 13.1156 20.4397 12.4491 20.4248C12.4316 21.5966 12.4251 22.7705 12.4404 23.9445C12.4775 24.3351 12.4841 24.8602 12.8884 25.0736C13.4128 25.1782 13.9504 25.0758 14.477 25.0523C14.5076 25.3106 14.5382 25.5688 14.5688 25.8292C13.7603 25.9424 12.8534 26.1515 12.1039 25.7118C11.6275 25.4365 11.5729 24.8516 11.5335 24.3693C11.4614 23.063 11.5117 21.7524 11.5051 20.444C11.1904 20.4397 10.878 20.4376 10.5633 20.4354C10.572 20.1579 10.5808 19.8826 10.5895 19.6073C10.8933 19.6115 11.197 19.6137 11.5029 19.6179C11.5007 18.9754 11.4986 18.3351 11.4964 17.6926Z" fill="#A1AEB7"/>
<path d="M11.4964 17.6926C11.8089 17.6926 12.1213 17.6926 12.436 17.6948C12.436 18.3372 12.436 18.9818 12.436 19.6265C13.1069 19.6137 13.7799 19.6137 14.4508 19.6137C14.4508 19.8207 14.4508 20.2369 14.4486 20.4461C13.7821 20.4418 13.1156 20.4397 12.4491 20.4248C12.4316 21.5966 12.4251 22.7705 12.4404 23.9445C12.4775 24.3351 12.4841 24.8602 12.8884 25.0736C13.4128 25.1782 13.9504 25.0758 14.477 25.0523C14.5076 25.3106 14.5382 25.5688 14.5688 25.8292C13.7603 25.9424 12.8534 26.1515 12.1039 25.7118C11.6275 25.4365 11.5729 24.8516 11.5335 24.3693C11.4614 23.063 11.5117 21.7524 11.5051 20.444C11.1904 20.4397 10.878 20.4376 10.5633 20.4354C10.572 20.1579 10.5808 19.8826 10.5895 19.6073C10.8933 19.6115 11.197 19.6137 11.5029 19.6179C11.5007 18.9754 11.4986 18.3351 11.4964 17.6926Z" fill="black" fill-opacity="0.2"/>
<path d="M75.1888 17.6969C75.5144 17.6948 75.8421 17.6926 76.1721 17.6926C76.1677 18.333 76.1677 18.9754 76.1656 19.6158C76.8386 19.6158 77.5138 19.6158 78.1891 19.6179C78.1869 19.8911 78.1869 20.1643 78.1891 20.4376C77.5138 20.4397 76.8408 20.4397 76.1677 20.4354C76.2224 21.8698 76.041 23.3255 76.2989 24.7449C76.6376 25.4109 77.5925 25.016 78.1934 25.048C78.2153 25.3148 78.2371 25.5816 78.259 25.8484C77.433 25.9424 76.5021 26.1537 75.7526 25.6777C75.2565 25.2423 75.2259 24.5357 75.1975 23.9317C75.1822 22.7684 75.1975 21.603 75.1953 20.4397C74.9003 20.4376 74.6053 20.4354 74.3125 20.4354C74.3169 20.1601 74.3234 19.8847 74.33 19.6115C74.6162 19.6137 74.9047 19.6158 75.1953 19.6201C75.1931 18.9797 75.1931 18.3372 75.1888 17.6969Z" fill="#A1AEB7"/>
<path d="M75.1888 17.6969C75.5144 17.6948 75.8421 17.6926 76.1721 17.6926C76.1677 18.333 76.1677 18.9754 76.1656 19.6158C76.8386 19.6158 77.5138 19.6158 78.1891 19.6179C78.1869 19.8911 78.1869 20.1643 78.1891 20.4376C77.5138 20.4397 76.8408 20.4397 76.1677 20.4354C76.2224 21.8698 76.041 23.3255 76.2989 24.7449C76.6376 25.4109 77.5925 25.016 78.1934 25.048C78.2153 25.3148 78.2371 25.5816 78.259 25.8484C77.433 25.9424 76.5021 26.1537 75.7526 25.6777C75.2565 25.2423 75.2259 24.5357 75.1975 23.9317C75.1822 22.7684 75.1975 21.603 75.1953 20.4397C74.9003 20.4376 74.6053 20.4354 74.3125 20.4354C74.3169 20.1601 74.3234 19.8847 74.33 19.6115C74.6162 19.6137 74.9047 19.6158 75.1953 19.6201C75.1931 18.9797 75.1931 18.3372 75.1888 17.6969Z" fill="black" fill-opacity="0.2"/>
<path d="M83.9755 17.7972C84.3164 17.5347 84.7731 17.6627 85.173 17.6328C85.1446 20.365 85.1599 23.0971 85.1642 25.8271C84.8255 25.8292 84.4868 25.8292 84.1525 25.8313C84.1634 23.4578 84.1525 21.0843 84.1568 18.7107C83.4532 19.1697 82.7452 19.6179 82.0459 20.0811C81.8755 19.8463 81.7029 19.6136 81.5324 19.3788C82.3519 18.8602 83.1582 18.318 83.9755 17.7972Z" fill="#A1AEB7"/>
<path d="M83.9755 17.7972C84.3164 17.5347 84.7731 17.6627 85.173 17.6328C85.1446 20.365 85.1599 23.0971 85.1642 25.8271C84.8255 25.8292 84.4868 25.8292 84.1525 25.8313C84.1634 23.4578 84.1525 21.0843 84.1568 18.7107C83.4532 19.1697 82.7452 19.6179 82.0459 20.0811C81.8755 19.8463 81.7029 19.6136 81.5324 19.3788C82.3519 18.8602 83.1582 18.318 83.9755 17.7972Z" fill="black" fill-opacity="0.2"/>
<path d="M95.6686 17.6285C97.2791 17.6328 98.8896 17.6392 100.502 17.6243C100.5 17.9252 100.5 18.2283 100.5 18.5293C99.143 18.5037 97.7838 18.525 96.4268 18.5165C96.3438 19.3852 96.3001 20.2561 96.2236 21.1269C97.29 20.6509 98.553 20.4482 99.6609 20.9199C100.504 21.2721 100.915 22.2134 100.869 23.0714C100.922 24.1536 100.4 25.3681 99.2873 25.7481C97.9827 26.1771 96.5885 25.8292 95.2774 25.6051C95.2883 25.3489 95.2993 25.0928 95.3124 24.8388C96.4421 24.9775 97.609 25.2465 98.7366 24.969C99.8751 24.5869 100.056 23.1526 99.65 22.1984C99.2392 21.556 98.3695 21.4621 97.668 21.5453C96.8792 21.5944 96.1733 22.1429 95.367 21.9167C95.4763 20.4887 95.4916 19.0522 95.6686 17.6285Z" fill="#A1AEB7"/>
<path d="M95.6686 17.6285C97.2791 17.6328 98.8896 17.6392 100.502 17.6243C100.5 17.9252 100.5 18.2283 100.5 18.5293C99.143 18.5037 97.7838 18.525 96.4268 18.5165C96.3438 19.3852 96.3001 20.2561 96.2236 21.1269C97.29 20.6509 98.553 20.4482 99.6609 20.9199C100.504 21.2721 100.915 22.2134 100.869 23.0714C100.922 24.1536 100.4 25.3681 99.2873 25.7481C97.9827 26.1771 96.5885 25.8292 95.2774 25.6051C95.2883 25.3489 95.2993 25.0928 95.3124 24.8388C96.4421 24.9775 97.609 25.2465 98.7366 24.969C99.8751 24.5869 100.056 23.1526 99.65 22.1984C99.2392 21.556 98.3695 21.4621 97.668 21.5453C96.8792 21.5944 96.1733 22.1429 95.367 21.9167C95.4763 20.4887 95.4916 19.0522 95.6686 17.6285Z" fill="black" fill-opacity="0.2"/>
<path d="M102.727 17.6542C104.377 17.6094 106.029 17.6414 107.678 17.635C107.674 17.9296 107.672 18.222 107.67 18.5166C106.297 18.5187 104.925 18.5166 103.553 18.5166C103.468 19.3832 103.409 20.2519 103.352 21.1228C104.431 20.6468 105.714 20.4419 106.826 20.9392C107.657 21.2957 108.05 22.222 107.993 23.0694C108.065 24.1196 107.567 25.2957 106.516 25.7055C105.174 26.2049 103.725 25.825 102.368 25.603C102.395 25.4109 102.447 25.031 102.473 24.8389C103.557 24.9862 104.672 25.2188 105.762 24.999C107.322 24.6212 107.477 21.8015 105.758 21.5731C104.624 21.2402 103.612 22.1409 102.497 21.9147C102.628 20.4974 102.705 19.0758 102.727 17.6542Z" fill="#A1AEB7"/>
<path d="M102.727 17.6542C104.377 17.6094 106.029 17.6414 107.678 17.635C107.674 17.9296 107.672 18.222 107.67 18.5166C106.297 18.5187 104.925 18.5166 103.553 18.5166C103.468 19.3832 103.409 20.2519 103.352 21.1228C104.431 20.6468 105.714 20.4419 106.826 20.9392C107.657 21.2957 108.05 22.222 107.993 23.0694C108.065 24.1196 107.567 25.2957 106.516 25.7055C105.174 26.2049 103.725 25.825 102.368 25.603C102.395 25.4109 102.447 25.031 102.473 24.8389C103.557 24.9862 104.672 25.2188 105.762 24.999C107.322 24.6212 107.477 21.8015 105.758 21.5731C104.624 21.2402 103.612 22.1409 102.497 21.9147C102.628 20.4974 102.705 19.0758 102.727 17.6542Z" fill="black" fill-opacity="0.2"/>
<path d="M16.5639 20.4547C17.261 19.9851 18.0433 19.6628 18.8584 19.4451C18.8693 19.7652 18.8824 20.0854 18.8933 20.4056C18.1132 20.6105 17.3571 20.8922 16.6185 21.2145C16.5464 22.7514 16.6032 24.2903 16.5879 25.8271C16.2689 25.8314 15.952 25.8335 15.633 25.8378C15.6286 23.7631 15.6352 21.6884 15.6308 19.6137C15.9477 19.6158 16.2645 19.6158 16.5814 19.618C16.577 19.8271 16.5683 20.2455 16.5639 20.4547Z" fill="#A1AEB7"/>
<path d="M16.5639 20.4547C17.261 19.9851 18.0433 19.6628 18.8584 19.4451C18.8693 19.7652 18.8824 20.0854 18.8933 20.4056C18.1132 20.6105 17.3571 20.8922 16.6185 21.2145C16.5464 22.7514 16.6032 24.2903 16.5879 25.8271C16.2689 25.8314 15.952 25.8335 15.633 25.8378C15.6286 23.7631 15.6352 21.6884 15.6308 19.6137C15.9477 19.6158 16.2645 19.6158 16.5814 19.618C16.577 19.8271 16.5683 20.2455 16.5639 20.4547Z" fill="black" fill-opacity="0.2"/>
<path d="M19.9182 19.7823C21.0589 19.5539 22.2673 19.3362 23.4189 19.6115C24.092 19.7994 24.4853 20.4739 24.4678 21.1313C24.4897 22.3479 24.4831 23.5667 24.4656 24.7834C24.7082 25.0117 24.9988 25.1782 25.3091 25.3063C25.2807 25.5368 25.2501 25.7695 25.2195 26C24.6689 25.9381 24.1269 25.7994 23.6593 25.5005C22.641 25.8421 21.4653 26.2177 20.4252 25.7503C19.5882 25.3212 19.562 24.2817 19.6822 23.4835C19.7499 22.8239 20.4033 22.4205 21.013 22.2946C21.863 22.1281 22.7328 22.1025 23.5937 22.032C23.5697 21.4514 23.6025 20.6211 22.9251 20.3757C21.9614 20.2625 20.9911 20.3799 20.034 20.4995C20.0056 20.3202 19.9466 19.9616 19.9182 19.7823ZM21.1419 23.0374C20.4033 23.413 20.4274 24.6254 21.0698 25.0758C21.8958 25.3426 22.7721 25.0181 23.5719 24.7962C23.5719 24.1131 23.5741 23.4322 23.5762 22.7492C22.7655 22.8303 21.933 22.8324 21.1419 23.0374Z" fill="#A1AEB7"/>
<path d="M19.9182 19.7823C21.0589 19.5539 22.2673 19.3362 23.4189 19.6115C24.092 19.7994 24.4853 20.4739 24.4678 21.1313C24.4897 22.3479 24.4831 23.5667 24.4656 24.7834C24.7082 25.0117 24.9988 25.1782 25.3091 25.3063C25.2807 25.5368 25.2501 25.7695 25.2195 26C24.6689 25.9381 24.1269 25.7994 23.6593 25.5005C22.641 25.8421 21.4653 26.2177 20.4252 25.7503C19.5882 25.3212 19.562 24.2817 19.6822 23.4835C19.7499 22.8239 20.4033 22.4205 21.013 22.2946C21.863 22.1281 22.7328 22.1025 23.5937 22.032C23.5697 21.4514 23.6025 20.6211 22.9251 20.3757C21.9614 20.2625 20.9911 20.3799 20.034 20.4995C20.0056 20.3202 19.9466 19.9616 19.9182 19.7823ZM21.1419 23.0374C20.4033 23.413 20.4274 24.6254 21.0698 25.0758C21.8958 25.3426 22.7721 25.0181 23.5719 24.7962C23.5719 24.1131 23.5741 23.4322 23.5762 22.7492C22.7655 22.8303 21.933 22.8324 21.1419 23.0374Z" fill="black" fill-opacity="0.2"/>
<path d="M26.9895 19.7588C28.1302 19.2444 29.4151 19.5881 30.6104 19.6777C30.6104 19.9616 30.6104 20.2455 30.6104 20.5315C29.6162 20.4355 28.5847 20.1879 27.6014 20.4525C26.9611 20.5955 26.7666 21.6116 27.3785 21.9018C28.3903 22.3223 29.6402 22.1836 30.5143 22.9136C31.1021 23.7396 30.9928 25.2359 29.9418 25.6777C28.7333 26.1921 27.3894 25.8976 26.1373 25.729C26.1548 25.5219 26.1919 25.1078 26.2094 24.9008C27.2081 25.0481 28.2417 25.2338 29.2447 25.0182C29.9396 24.8431 30.169 23.8463 29.5987 23.4173C28.6 22.92 27.3217 23.142 26.4148 22.4397C25.7287 21.6414 25.9406 20.1708 26.9895 19.7588Z" fill="#A1AEB7"/>
<path d="M26.9895 19.7588C28.1302 19.2444 29.4151 19.5881 30.6104 19.6777C30.6104 19.9616 30.6104 20.2455 30.6104 20.5315C29.6162 20.4355 28.5847 20.1879 27.6014 20.4525C26.9611 20.5955 26.7666 21.6116 27.3785 21.9018C28.3903 22.3223 29.6402 22.1836 30.5143 22.9136C31.1021 23.7396 30.9928 25.2359 29.9418 25.6777C28.7333 26.1921 27.3894 25.8976 26.1373 25.729C26.1548 25.5219 26.1919 25.1078 26.2094 24.9008C27.2081 25.0481 28.2417 25.2338 29.2447 25.0182C29.9396 24.8431 30.169 23.8463 29.5987 23.4173C28.6 22.92 27.3217 23.142 26.4148 22.4397C25.7287 21.6414 25.9406 20.1708 26.9895 19.7588Z" fill="black" fill-opacity="0.2"/>
<path d="M33.1234 19.8142C34.1461 19.2699 35.3458 19.5495 36.4428 19.6584C36.4362 19.8548 36.4253 20.2496 36.4209 20.4481C35.3654 20.3862 33.779 19.9722 33.2217 21.1675C32.9377 22.1728 32.942 23.2934 33.2327 24.2966C33.7833 25.509 35.3676 25.0116 36.4231 25.0244C36.4428 25.2784 36.4646 25.5324 36.4865 25.7865C35.2321 25.9231 33.6653 26.2816 32.6667 25.2955C31.9915 24.3564 32.0046 23.1226 32.0527 22.0212C32.1423 21.2144 32.3302 20.2475 33.1234 19.8142Z" fill="#A1AEB7"/>
<path d="M33.1234 19.8142C34.1461 19.2699 35.3458 19.5495 36.4428 19.6584C36.4362 19.8548 36.4253 20.2496 36.4209 20.4481C35.3654 20.3862 33.779 19.9722 33.2217 21.1675C32.9377 22.1728 32.942 23.2934 33.2327 24.2966C33.7833 25.509 35.3676 25.0116 36.4231 25.0244C36.4428 25.2784 36.4646 25.5324 36.4865 25.7865C35.2321 25.9231 33.6653 26.2816 32.6667 25.2955C31.9915 24.3564 32.0046 23.1226 32.0527 22.0212C32.1423 21.2144 32.3302 20.2475 33.1234 19.8142Z" fill="black" fill-opacity="0.2"/>
<path d="M44.622 19.761C45.719 19.571 46.8531 19.3618 47.961 19.5753C48.6974 19.7204 49.1738 20.4568 49.1716 21.1612C49.2284 22.3053 49.1563 23.4493 49.1957 24.5934C49.1279 25.0182 49.6327 25.11 49.9037 25.2935C49.8949 25.4707 49.8775 25.8229 49.8687 26C49.3268 25.9296 48.787 25.8079 48.3347 25.4963C47.4169 25.8165 46.4139 26.1196 45.4371 25.8805C44.1391 25.5347 43.9446 23.7033 44.6963 22.7941C45.6687 21.9808 47.0607 22.1943 48.2451 22.0342C48.2298 21.4579 48.2888 20.6212 47.6026 20.38C46.6302 20.2498 45.6469 20.397 44.6766 20.491C44.657 20.2476 44.6395 20.0043 44.622 19.761ZM45.9615 22.9904C44.9498 23.2402 45.011 25.0417 46.0708 25.1676C46.8094 25.2167 47.5349 25.0203 48.2298 24.7983C48.2276 24.1153 48.2276 23.4323 48.232 22.7492C47.4737 22.8133 46.7111 22.8538 45.9615 22.9904Z" fill="#A1AEB7"/>
<path d="M44.622 19.761C45.719 19.571 46.8531 19.3618 47.961 19.5753C48.6974 19.7204 49.1738 20.4568 49.1716 21.1612C49.2284 22.3053 49.1563 23.4493 49.1957 24.5934C49.1279 25.0182 49.6327 25.11 49.9037 25.2935C49.8949 25.4707 49.8775 25.8229 49.8687 26C49.3268 25.9296 48.787 25.8079 48.3347 25.4963C47.4169 25.8165 46.4139 26.1196 45.4371 25.8805C44.1391 25.5347 43.9446 23.7033 44.6963 22.7941C45.6687 21.9808 47.0607 22.1943 48.2451 22.0342C48.2298 21.4579 48.2888 20.6212 47.6026 20.38C46.6302 20.2498 45.6469 20.397 44.6766 20.491C44.657 20.2476 44.6395 20.0043 44.622 19.761ZM45.9615 22.9904C44.9498 23.2402 45.011 25.0417 46.0708 25.1676C46.8094 25.2167 47.5349 25.0203 48.2298 24.7983C48.2276 24.1153 48.2276 23.4323 48.232 22.7492C47.4737 22.8133 46.7111 22.8538 45.9615 22.9904Z" fill="black" fill-opacity="0.2"/>
<path d="M60.2201 19.8143C61.3935 19.2231 62.7571 19.5667 64.0005 19.7076C64.0005 19.9787 64.0027 20.2498 64.0048 20.5208C63.0193 20.444 62.0163 20.2177 61.033 20.4184C60.3949 20.54 60.0911 21.4536 60.644 21.8613C61.6098 22.2924 62.7615 22.1943 63.6749 22.7642C64.2321 23.1035 64.2037 23.8186 64.1775 24.3778C64.195 25.0438 63.6552 25.5945 63.0324 25.7802C61.8743 26.1366 60.6505 25.8997 59.4836 25.7204C59.4989 25.5176 59.5273 25.1078 59.5404 24.905C60.5085 25.0438 61.5028 25.2103 62.4796 25.0459C63.2422 24.952 63.4411 23.9296 62.9712 23.428C61.9507 22.888 60.5959 23.1782 59.7021 22.3757C59.193 21.5881 59.2848 20.2732 60.2201 19.8143Z" fill="#A1AEB7"/>
<path d="M60.2201 19.8143C61.3935 19.2231 62.7571 19.5667 64.0005 19.7076C64.0005 19.9787 64.0027 20.2498 64.0048 20.5208C63.0193 20.444 62.0163 20.2177 61.033 20.4184C60.3949 20.54 60.0911 21.4536 60.644 21.8613C61.6098 22.2924 62.7615 22.1943 63.6749 22.7642C64.2321 23.1035 64.2037 23.8186 64.1775 24.3778C64.195 25.0438 63.6552 25.5945 63.0324 25.7802C61.8743 26.1366 60.6505 25.8997 59.4836 25.7204C59.4989 25.5176 59.5273 25.1078 59.5404 24.905C60.5085 25.0438 61.5028 25.2103 62.4796 25.0459C63.2422 24.952 63.4411 23.9296 62.9712 23.428C61.9507 22.888 60.5959 23.1782 59.7021 22.3757C59.193 21.5881 59.2848 20.2732 60.2201 19.8143Z" fill="black" fill-opacity="0.2"/>
<path d="M65.7595 20.745C66.402 19.3405 68.4299 19.1548 69.6536 19.8998C70.6544 20.6511 70.6391 22.0043 70.5648 23.1164C69.1532 23.1185 67.7415 23.1057 66.3299 23.1228C66.3911 23.825 66.4894 24.7664 67.2936 25.0268C68.2988 25.2573 69.3411 25.0545 70.3594 25.0396C70.3594 25.285 70.3572 25.5326 70.3572 25.7802C68.9216 25.8443 67.0816 26.4227 65.9715 25.2231C65.1652 23.8934 65.1695 22.158 65.7595 20.745ZM66.7429 20.8411C66.3867 21.268 66.3911 21.8421 66.3211 22.3608C67.44 22.3608 68.5588 22.3587 69.6798 22.3629C69.6427 21.65 69.5422 20.6767 68.7445 20.3885C68.0715 20.2391 67.1821 20.2178 66.7429 20.8411Z" fill="#A1AEB7"/>
<path d="M65.7595 20.745C66.402 19.3405 68.4299 19.1548 69.6536 19.8998C70.6544 20.6511 70.6391 22.0043 70.5648 23.1164C69.1532 23.1185 67.7415 23.1057 66.3299 23.1228C66.3911 23.825 66.4894 24.7664 67.2936 25.0268C68.2988 25.2573 69.3411 25.0545 70.3594 25.0396C70.3594 25.285 70.3572 25.5326 70.3572 25.7802C68.9216 25.8443 67.0816 26.4227 65.9715 25.2231C65.1652 23.8934 65.1695 22.158 65.7595 20.745ZM66.7429 20.8411C66.3867 21.268 66.3911 21.8421 66.3211 22.3608C67.44 22.3608 68.5588 22.3587 69.6798 22.3629C69.6427 21.65 69.5422 20.6767 68.7445 20.3885C68.0715 20.2391 67.1821 20.2178 66.7429 20.8411Z" fill="black" fill-opacity="0.2"/>
<path d="M72.0923 19.6138C72.4048 19.6138 72.7194 19.6138 73.0341 19.6138C73.0341 21.6885 73.0363 23.7653 73.0297 25.84C72.7173 25.8379 72.4026 25.8379 72.0923 25.8379C72.0923 23.7632 72.0923 21.6885 72.0923 19.6138Z" fill="#A1AEB7"/>
<path d="M72.0923 19.6138C72.4048 19.6138 72.7194 19.6138 73.0341 19.6138C73.0341 21.6885 73.0363 23.7653 73.0297 25.84C72.7173 25.8379 72.4026 25.8379 72.0923 25.8379C72.0923 23.7632 72.0923 21.6885 72.0923 19.6138Z" fill="black" fill-opacity="0.2"/>
</svg>
