<svg width="76" height="31" viewBox="0 0 76 31" fill="none" xmlns="http://www.w3.org/2000/svg">
<path d="M15.2682 0.0190667C17.7507 -0.0186555 20.234 0.0130659 22.7165 0.00277802C34.9226 0.00277802 47.1296 0.00277802 59.3357 0.00277802C60.3769 0.0173525 61.4293 -0.00408054 62.4557 0.189675C65.9445 0.699782 69.2333 2.46587 71.5488 5.09014C73.966 7.72898 75.3507 11.262 75.3768 14.8173C75.3838 15.9996 75.4038 17.1956 75.1837 18.3632C74.661 21.7608 72.8422 24.92 70.2527 27.2057C68.1513 29.0506 65.5183 30.3032 62.7436 30.7678C61.4215 31.0242 60.0681 30.9942 58.7268 30.9985C45.3317 30.9985 31.9365 30.9985 18.5413 30.9985C17.1505 30.9933 15.7579 31.0233 14.368 30.9453C12.1769 30.7576 10.0311 30.1017 8.11574 29.0369C4.62517 27.0633 1.91048 23.7146 0.917151 19.8524C0.59445 18.8022 0.470936 17.7022 0.417877 16.6091C0.336115 15.4518 0.397872 14.2892 0.516167 13.1378C0.654467 11.8561 1.03371 10.6164 1.4921 9.41448C2.66809 6.5433 4.78348 4.07164 7.41032 2.38357C9.74926 0.9184 12.4935 0.0636476 15.2682 0.0190667ZM14.1488 1.25876C12.4396 1.4748 10.7426 1.92233 9.21693 2.7265C7.65561 3.52895 6.2152 4.59118 5.08705 5.93117C3.51007 7.62782 2.47586 9.76598 1.93657 11.9933C1.53733 13.7637 1.55299 15.5932 1.67563 17.3927C1.98876 20.1696 3.123 22.883 5.01746 24.9749C7.61299 28.027 11.6385 29.7982 15.6657 29.7948C30.2804 29.8016 44.895 29.7948 59.5096 29.7974C60.1194 29.8068 60.7291 29.7708 61.3389 29.7425C63.1255 29.5796 64.8851 29.0943 66.4812 28.2833C69.2829 26.8962 71.5801 24.5471 72.8865 21.7377C73.8016 19.7932 74.1956 17.6371 74.1895 15.5006C74.2017 13.6197 73.899 11.7318 73.2058 9.97517C72.0637 7.08684 69.8926 4.60746 67.1666 3.06257C65.4705 2.03978 63.5204 1.48423 61.5546 1.25619C60.209 1.14988 58.8573 1.19103 57.5091 1.18331C44.3462 1.18331 31.1824 1.18331 18.0195 1.18331C16.7287 1.18846 15.4361 1.15416 14.1488 1.25876Z" fill="#A1AEB7"/>
<path d="M15.2682 0.0190667C17.7507 -0.0186555 20.234 0.0130659 22.7165 0.00277802C34.9226 0.00277802 47.1296 0.00277802 59.3357 0.00277802C60.3769 0.0173525 61.4293 -0.00408054 62.4557 0.189675C65.9445 0.699782 69.2333 2.46587 71.5488 5.09014C73.966 7.72898 75.3507 11.262 75.3768 14.8173C75.3838 15.9996 75.4038 17.1956 75.1837 18.3632C74.661 21.7608 72.8422 24.92 70.2527 27.2057C68.1513 29.0506 65.5183 30.3032 62.7436 30.7678C61.4215 31.0242 60.0681 30.9942 58.7268 30.9985C45.3317 30.9985 31.9365 30.9985 18.5413 30.9985C17.1505 30.9933 15.7579 31.0233 14.368 30.9453C12.1769 30.7576 10.0311 30.1017 8.11574 29.0369C4.62517 27.0633 1.91048 23.7146 0.917151 19.8524C0.59445 18.8022 0.470936 17.7022 0.417877 16.6091C0.336115 15.4518 0.397872 14.2892 0.516167 13.1378C0.654467 11.8561 1.03371 10.6164 1.4921 9.41448C2.66809 6.5433 4.78348 4.07164 7.41032 2.38357C9.74926 0.9184 12.4935 0.0636476 15.2682 0.0190667ZM14.1488 1.25876C12.4396 1.4748 10.7426 1.92233 9.21693 2.7265C7.65561 3.52895 6.2152 4.59118 5.08705 5.93117C3.51007 7.62782 2.47586 9.76598 1.93657 11.9933C1.53733 13.7637 1.55299 15.5932 1.67563 17.3927C1.98876 20.1696 3.123 22.883 5.01746 24.9749C7.61299 28.027 11.6385 29.7982 15.6657 29.7948C30.2804 29.8016 44.895 29.7948 59.5096 29.7974C60.1194 29.8068 60.7291 29.7708 61.3389 29.7425C63.1255 29.5796 64.8851 29.0943 66.4812 28.2833C69.2829 26.8962 71.5801 24.5471 72.8865 21.7377C73.8016 19.7932 74.1956 17.6371 74.1895 15.5006C74.2017 13.6197 73.899 11.7318 73.2058 9.97517C72.0637 7.08684 69.8926 4.60746 67.1666 3.06257C65.4705 2.03978 63.5204 1.48423 61.5546 1.25619C60.209 1.14988 58.8573 1.19103 57.5091 1.18331C44.3462 1.18331 31.1824 1.18331 18.0195 1.18331C16.7287 1.18846 15.4361 1.15416 14.1488 1.25876Z" fill="black" fill-opacity="0.2"/>
<path d="M19.4233 5.31059C20.9655 5.01653 22.5512 4.83906 24.1177 5.04739C25.2015 5.18885 26.3384 5.47519 27.1551 6.23478C28.1102 7.23871 27.7623 8.94993 26.7394 9.77982C26.0905 10.3405 25.2076 10.5325 24.3665 10.5694C23.7011 10.6149 23.0331 10.3602 22.5355 9.93156C22.0276 9.4326 21.9528 8.65758 22.0806 7.99487C22.2111 7.26186 22.8426 6.63344 23.5872 6.50656C23.8124 6.45254 24.076 6.50398 24.263 6.34195C24.0021 5.82584 23.3506 5.72553 22.8252 5.76754C21.9519 5.85585 21.2517 6.46283 20.755 7.13583C20.2218 7.82083 19.94 8.64729 19.6121 9.43689C19.3277 10.1545 19.1937 10.9664 19.439 11.7131C19.6321 12.2292 20.1279 12.5764 20.6533 12.7144C21.5709 12.9665 22.5303 12.8053 23.4662 12.8859C23.4436 13.1002 23.4288 13.3154 23.4149 13.5306C22.6199 13.4946 21.8206 13.5118 21.029 13.5941C19.5225 13.9027 18.0856 14.718 17.1853 15.9663C16.4703 16.8656 16.1659 17.9887 15.7771 19.0449C15.4596 19.9254 15.1995 20.9345 15.6057 21.8304C15.8197 22.3808 16.3085 22.83 16.8965 22.9603C17.3967 23.0812 17.9386 23.0358 18.4074 22.824C18.8771 22.5771 19.2285 22.1441 19.3833 21.6426C18.791 21.4926 18.1282 21.3374 17.7359 20.8333C17.1357 20.1191 17.1462 19.0081 17.6968 18.2699C18.1412 17.7023 18.8536 17.4332 19.5364 17.2617C20.595 17.0559 21.7431 17.0671 22.7321 17.5343C23.3288 17.7915 23.7863 18.3668 23.8481 19.0132C23.9359 20.2855 23.3732 21.6366 22.265 22.343C20.7942 23.3204 18.965 23.5304 17.234 23.575C15.5353 23.5793 13.7548 23.5407 12.2074 22.7631C11.0601 22.2539 10.1337 21.2337 9.85016 20.0128C9.55877 18.7714 9.75187 17.4392 10.2999 16.2921C10.8913 15.0798 11.9482 14.093 13.2207 13.6009C14.0931 13.2417 15.0377 13.0128 15.9876 13.0548C15.4561 12.5661 14.9699 12.0097 14.6289 11.3736C14.1749 10.5043 14.0966 9.4266 14.5115 8.52813C14.9186 7.62022 15.6492 6.88378 16.5077 6.38053C17.4219 5.88671 18.4118 5.54807 19.4233 5.31059Z" fill="#A1AEB7"/>
<path d="M19.4233 5.31059C20.9655 5.01653 22.5512 4.83906 24.1177 5.04739C25.2015 5.18885 26.3384 5.47519 27.1551 6.23478C28.1102 7.23871 27.7623 8.94993 26.7394 9.77982C26.0905 10.3405 25.2076 10.5325 24.3665 10.5694C23.7011 10.6149 23.0331 10.3602 22.5355 9.93156C22.0276 9.4326 21.9528 8.65758 22.0806 7.99487C22.2111 7.26186 22.8426 6.63344 23.5872 6.50656C23.8124 6.45254 24.076 6.50398 24.263 6.34195C24.0021 5.82584 23.3506 5.72553 22.8252 5.76754C21.9519 5.85585 21.2517 6.46283 20.755 7.13583C20.2218 7.82083 19.94 8.64729 19.6121 9.43689C19.3277 10.1545 19.1937 10.9664 19.439 11.7131C19.6321 12.2292 20.1279 12.5764 20.6533 12.7144C21.5709 12.9665 22.5303 12.8053 23.4662 12.8859C23.4436 13.1002 23.4288 13.3154 23.4149 13.5306C22.6199 13.4946 21.8206 13.5118 21.029 13.5941C19.5225 13.9027 18.0856 14.718 17.1853 15.9663C16.4703 16.8656 16.1659 17.9887 15.7771 19.0449C15.4596 19.9254 15.1995 20.9345 15.6057 21.8304C15.8197 22.3808 16.3085 22.83 16.8965 22.9603C17.3967 23.0812 17.9386 23.0358 18.4074 22.824C18.8771 22.5771 19.2285 22.1441 19.3833 21.6426C18.791 21.4926 18.1282 21.3374 17.7359 20.8333C17.1357 20.1191 17.1462 19.0081 17.6968 18.2699C18.1412 17.7023 18.8536 17.4332 19.5364 17.2617C20.595 17.0559 21.7431 17.0671 22.7321 17.5343C23.3288 17.7915 23.7863 18.3668 23.8481 19.0132C23.9359 20.2855 23.3732 21.6366 22.265 22.343C20.7942 23.3204 18.965 23.5304 17.234 23.575C15.5353 23.5793 13.7548 23.5407 12.2074 22.7631C11.0601 22.2539 10.1337 21.2337 9.85016 20.0128C9.55877 18.7714 9.75187 17.4392 10.2999 16.2921C10.8913 15.0798 11.9482 14.093 13.2207 13.6009C14.0931 13.2417 15.0377 13.0128 15.9876 13.0548C15.4561 12.5661 14.9699 12.0097 14.6289 11.3736C14.1749 10.5043 14.0966 9.4266 14.5115 8.52813C14.9186 7.62022 15.6492 6.88378 16.5077 6.38053C17.4219 5.88671 18.4118 5.54807 19.4233 5.31059Z" fill="black" fill-opacity="0.2"/>
<path d="M30.4804 5.99881C30.6639 5.58043 31.1537 5.41411 31.5859 5.41154C32.7654 5.38925 33.9449 5.41583 35.1244 5.39868C32.9898 11.3005 30.8918 17.216 28.7886 23.129C27.3256 23.135 25.8626 23.1504 24.3995 23.1479C26.2122 17.9713 28.0562 12.8042 29.8776 7.62944C30.0803 7.08675 30.2464 6.52949 30.4804 5.99881Z" fill="#A1AEB7"/>
<path d="M30.4804 5.99881C30.6639 5.58043 31.1537 5.41411 31.5859 5.41154C32.7654 5.38925 33.9449 5.41583 35.1244 5.39868C32.9898 11.3005 30.8918 17.216 28.7886 23.129C27.3256 23.135 25.8626 23.1504 24.3995 23.1479C26.2122 17.9713 28.0562 12.8042 29.8776 7.62944C30.0803 7.08675 30.2464 6.52949 30.4804 5.99881Z" fill="black" fill-opacity="0.2"/>
<path d="M56.347 12.2188C57.7822 11.755 59.3122 11.7173 60.8083 11.7593C61.8407 11.7816 62.8749 11.9273 63.8578 12.2462C64.3354 12.4083 64.8129 12.6526 65.0999 13.0778C65.3957 13.4413 65.4252 13.9352 65.3504 14.3784C65.1982 15.1911 64.8738 15.9567 64.5937 16.7326C63.81 18.8982 62.9715 21.0432 62.1721 23.2028C60.8213 23.2346 59.4705 23.208 58.1197 23.2165C57.9901 22.9962 57.8666 22.7733 57.7448 22.5504C56.8123 23.0742 55.7146 23.2457 54.6526 23.2003C53.8324 23.1162 52.946 22.9105 52.3824 22.2683C51.8196 21.6262 51.7961 20.6986 51.9892 19.9107C52.1841 18.9814 52.6929 18.0743 53.527 17.5651C53.9463 17.2719 54.4282 17.0755 54.9327 16.9787C55.9077 16.7275 56.9193 16.7077 57.9179 16.6357C58.8581 16.562 59.7532 16.1025 60.3525 15.3849C60.7961 14.8405 61.0518 14.1409 61.0353 13.4413C61.0057 13.0615 60.9031 12.6243 60.5325 12.4297C59.9985 12.0842 59.3392 12.3603 58.8695 12.6826C59.2148 12.9561 59.5409 13.3059 59.6245 13.75C59.7749 14.4967 59.3783 15.2786 58.7607 15.7064C58.0518 16.1256 57.1811 16.1513 56.3809 16.069C55.7773 15.9499 55.1388 15.7081 54.7796 15.1869C54.4117 14.7102 54.4412 14.032 54.6917 13.5099C54.9857 12.8395 55.6816 12.4571 56.347 12.2188ZM59.5636 16.5809C59.0799 16.8269 58.5972 17.0961 58.2093 17.4768C57.4847 18.2329 57.0742 19.2137 56.7932 20.2013C56.6314 20.816 56.3287 21.4316 56.4087 22.078C56.4653 22.4261 56.8697 22.4655 57.1594 22.4647C57.643 22.3935 57.9805 21.9871 58.2084 21.5911C58.812 20.4765 59.0599 19.2248 59.494 18.0452C59.6514 17.5308 59.8793 17.0335 59.9506 16.4977C59.8176 16.5071 59.681 16.5131 59.5636 16.5809Z" fill="#A1AEB7"/>
<path d="M56.347 12.2188C57.7822 11.755 59.3122 11.7173 60.8083 11.7593C61.8407 11.7816 62.8749 11.9273 63.8578 12.2462C64.3354 12.4083 64.8129 12.6526 65.0999 13.0778C65.3957 13.4413 65.4252 13.9352 65.3504 14.3784C65.1982 15.1911 64.8738 15.9567 64.5937 16.7326C63.81 18.8982 62.9715 21.0432 62.1721 23.2028C60.8213 23.2346 59.4705 23.208 58.1197 23.2165C57.9901 22.9962 57.8666 22.7733 57.7448 22.5504C56.8123 23.0742 55.7146 23.2457 54.6526 23.2003C53.8324 23.1162 52.946 22.9105 52.3824 22.2683C51.8196 21.6262 51.7961 20.6986 51.9892 19.9107C52.1841 18.9814 52.6929 18.0743 53.527 17.5651C53.9463 17.2719 54.4282 17.0755 54.9327 16.9787C55.9077 16.7275 56.9193 16.7077 57.9179 16.6357C58.8581 16.562 59.7532 16.1025 60.3525 15.3849C60.7961 14.8405 61.0518 14.1409 61.0353 13.4413C61.0057 13.0615 60.9031 12.6243 60.5325 12.4297C59.9985 12.0842 59.3392 12.3603 58.8695 12.6826C59.2148 12.9561 59.5409 13.3059 59.6245 13.75C59.7749 14.4967 59.3783 15.2786 58.7607 15.7064C58.0518 16.1256 57.1811 16.1513 56.3809 16.069C55.7773 15.9499 55.1388 15.7081 54.7796 15.1869C54.4117 14.7102 54.4412 14.032 54.6917 13.5099C54.9857 12.8395 55.6816 12.4571 56.347 12.2188ZM59.5636 16.5809C59.0799 16.8269 58.5972 17.0961 58.2093 17.4768C57.4847 18.2329 57.0742 19.2137 56.7932 20.2013C56.6314 20.816 56.3287 21.4316 56.4087 22.078C56.4653 22.4261 56.8697 22.4655 57.1594 22.4647C57.643 22.3935 57.9805 21.9871 58.2084 21.5911C58.812 20.4765 59.0599 19.2248 59.494 18.0452C59.6514 17.5308 59.8793 17.0335 59.9506 16.4977C59.8176 16.5071 59.681 16.5131 59.5636 16.5809Z" fill="black" fill-opacity="0.2"/>
<path d="M39.6308 12.8943C40.9747 12.2384 42.5517 11.9683 44.0225 12.3173C44.5496 12.4356 45.0063 12.7631 45.3325 13.1815C46.3441 12.4947 47.5975 12.2453 48.8048 12.1827C49.6642 12.1998 50.6192 12.1192 51.3525 12.6491C51.8065 12.9577 51.9796 13.5192 51.9639 14.0405C51.9222 14.9424 51.5586 15.7809 51.2629 16.6219C50.4835 18.7995 49.6876 20.972 48.897 23.1461C47.3965 23.1538 45.8952 23.1358 44.3948 23.129C45.3046 20.5381 46.2075 17.9447 47.1121 15.3522C47.2548 14.8952 47.4392 14.44 47.4313 13.9539C47.46 13.6556 47.3496 13.3161 47.053 13.1866C46.679 13.0434 46.2319 13.1815 45.9648 13.4669C45.5238 13.8905 45.3246 14.4794 45.1133 15.0341C44.1278 17.7278 43.1153 20.413 42.1524 23.1153C40.6842 23.1547 39.2151 23.1393 37.7477 23.1487C38.6288 20.5999 39.5378 18.0605 40.4667 15.5279C40.6129 15.0676 40.8869 14.6218 40.8268 14.1211C40.786 13.851 40.6659 13.5167 40.3606 13.4507C39.9144 13.3212 39.463 13.5664 39.1794 13.8947C38.8471 14.2857 38.6514 14.7649 38.4549 15.2305C37.5111 17.7896 36.5656 20.3478 35.6384 22.9129C35.5949 23.0107 35.5688 23.1813 35.4175 23.1504C34.0162 23.1513 32.614 23.1547 31.2128 23.1478C32.4201 19.5994 33.6891 16.0706 34.9243 12.5316C34.953 12.3893 35.1365 12.4484 35.2391 12.4322C36.5674 12.4484 37.8964 12.451 39.2255 12.4527C39.2177 12.6208 39.2116 12.7888 39.2194 12.9568C39.3586 12.9525 39.5047 12.9637 39.6308 12.8943Z" fill="#A1AEB7"/>
<path d="M39.6308 12.8943C40.9747 12.2384 42.5517 11.9683 44.0225 12.3173C44.5496 12.4356 45.0063 12.7631 45.3325 13.1815C46.3441 12.4947 47.5975 12.2453 48.8048 12.1827C49.6642 12.1998 50.6192 12.1192 51.3525 12.6491C51.8065 12.9577 51.9796 13.5192 51.9639 14.0405C51.9222 14.9424 51.5586 15.7809 51.2629 16.6219C50.4835 18.7995 49.6876 20.972 48.897 23.1461C47.3965 23.1538 45.8952 23.1358 44.3948 23.129C45.3046 20.5381 46.2075 17.9447 47.1121 15.3522C47.2548 14.8952 47.4392 14.44 47.4313 13.9539C47.46 13.6556 47.3496 13.3161 47.053 13.1866C46.679 13.0434 46.2319 13.1815 45.9648 13.4669C45.5238 13.8905 45.3246 14.4794 45.1133 15.0341C44.1278 17.7278 43.1153 20.413 42.1524 23.1153C40.6842 23.1547 39.2151 23.1393 37.7477 23.1487C38.6288 20.5999 39.5378 18.0605 40.4667 15.5279C40.6129 15.0676 40.8869 14.6218 40.8268 14.1211C40.786 13.851 40.6659 13.5167 40.3606 13.4507C39.9144 13.3212 39.463 13.5664 39.1794 13.8947C38.8471 14.2857 38.6514 14.7649 38.4549 15.2305C37.5111 17.7896 36.5656 20.3478 35.6384 22.9129C35.5949 23.0107 35.5688 23.1813 35.4175 23.1504C34.0162 23.1513 32.614 23.1547 31.2128 23.1478C32.4201 19.5994 33.6891 16.0706 34.9243 12.5316C34.953 12.3893 35.1365 12.4484 35.2391 12.4322C36.5674 12.4484 37.8964 12.451 39.2255 12.4527C39.2177 12.6208 39.2116 12.7888 39.2194 12.9568C39.3586 12.9525 39.5047 12.9637 39.6308 12.8943Z" fill="black" fill-opacity="0.2"/>
</svg>
