<svg width="118" height="25" viewBox="0 0 118 25" fill="none" xmlns="http://www.w3.org/2000/svg">
<path d="M79.9792 0.714053C81.4216 0.713154 82.864 0.713154 84.3064 0.714053C84.3073 6.75452 84.3073 12.7959 84.3064 18.8363C82.1985 18.8381 80.0907 18.8354 77.9828 18.8372C76.2571 18.831 74.5003 18.2599 73.2206 17.0989C72.1273 16.125 71.4427 14.7428 71.2654 13.3076C71.0661 11.7185 71.365 10.0324 72.2855 8.69247C73.0999 7.48204 74.3796 6.60704 75.7891 6.19966C76.9024 5.85434 78.0797 5.92718 79.2305 5.92538C79.2305 7.15919 79.2305 8.39301 79.2305 9.62682C78.4911 9.652 77.7123 9.53599 77.0158 9.84445C76.2543 10.1592 75.7516 10.9074 75.6108 11.6916C75.4637 12.4901 75.5185 13.3606 75.9235 14.0828C76.2836 14.7275 76.9792 15.1412 77.7077 15.2563C78.4591 15.3633 79.2214 15.2914 79.9783 15.3121C79.9792 10.4461 79.9783 5.58006 79.9792 0.714053Z" fill="#A1AEB7"/>
<path d="M79.9792 0.714053C81.4216 0.713154 82.864 0.713154 84.3064 0.714053C84.3073 6.75452 84.3073 12.7959 84.3064 18.8363C82.1985 18.8381 80.0907 18.8354 77.9828 18.8372C76.2571 18.831 74.5003 18.2599 73.2206 17.0989C72.1273 16.125 71.4427 14.7428 71.2654 13.3076C71.0661 11.7185 71.365 10.0324 72.2855 8.69247C73.0999 7.48204 74.3796 6.60704 75.7891 6.19966C76.9024 5.85434 78.0797 5.92718 79.2305 5.92538C79.2305 7.15919 79.2305 8.39301 79.2305 9.62682C78.4911 9.652 77.7123 9.53599 77.0158 9.84445C76.2543 10.1592 75.7516 10.9074 75.6108 11.6916C75.4637 12.4901 75.5185 13.3606 75.9235 14.0828C76.2836 14.7275 76.9792 15.1412 77.7077 15.2563C78.4591 15.3633 79.2214 15.2914 79.9783 15.3121C79.9792 10.4461 79.9783 5.58006 79.9792 0.714053Z" fill="black" fill-opacity="0.2"/>
<path d="M109.836 1.66554C110.669 1.00367 111.756 0.712307 112.815 0.715005C114.086 0.711408 115.359 0.714106 116.63 0.714106C116.63 1.8508 116.63 2.98749 116.63 4.12508C115.753 4.12598 114.875 4.12148 113.998 4.12598C113.637 4.12598 113.23 4.2204 113.015 4.52975C112.706 4.95241 112.803 5.50367 112.785 5.99108C114.066 6.00097 115.348 5.99198 116.63 5.99558C116.631 7.14396 116.63 8.29324 116.63 9.44252C115.349 9.44342 114.067 9.44162 112.786 9.44252C112.784 12.5747 112.79 15.7069 112.783 18.8391C111.316 18.8346 109.849 18.8382 108.382 18.8364C108.382 15.0441 108.382 11.2528 108.382 7.46051C108.391 6.50547 108.363 5.54864 108.398 4.5936C108.453 3.48119 108.941 2.36968 109.836 1.66554Z" fill="#A1AEB7"/>
<path d="M109.836 1.66554C110.669 1.00367 111.756 0.712307 112.815 0.715005C114.086 0.711408 115.359 0.714106 116.63 0.714106C116.63 1.8508 116.63 2.98749 116.63 4.12508C115.753 4.12598 114.875 4.12148 113.998 4.12598C113.637 4.12598 113.23 4.2204 113.015 4.52975C112.706 4.95241 112.803 5.50367 112.785 5.99108C114.066 6.00097 115.348 5.99198 116.63 5.99558C116.631 7.14396 116.63 8.29324 116.63 9.44252C115.349 9.44342 114.067 9.44162 112.786 9.44252C112.784 12.5747 112.79 15.7069 112.783 18.8391C111.316 18.8346 109.849 18.8382 108.382 18.8364C108.382 15.0441 108.382 11.2528 108.382 7.46051C108.391 6.50547 108.363 5.54864 108.398 4.5936C108.453 3.48119 108.941 2.36968 109.836 1.66554Z" fill="black" fill-opacity="0.2"/>
<path d="M4.5516 6.53685C5.94188 5.78595 7.5808 5.54225 9.14567 5.7284C10.6804 5.89656 12.1904 6.53775 13.2626 7.64926C14.1666 8.56923 14.7224 9.79045 14.9079 11.0512C15.0167 11.7203 14.992 12.4002 14.9938 13.0755C11.7444 13.0764 8.49486 13.0737 5.24537 13.0764C5.33038 14.0153 5.98027 14.8579 6.86966 15.2005C8.27914 15.759 9.96924 15.3948 11.1146 14.4424C11.8604 15.4568 12.6063 16.4721 13.3522 17.4865C12.0606 18.5539 10.3614 19.0396 8.69778 19.1205C7.04424 19.2059 5.34592 18.8039 3.97939 17.8678C2.7317 17.0297 1.7893 15.759 1.38071 14.3273C0.936478 12.768 1.03154 11.0512 1.69515 9.56563C2.26735 8.27786 3.2975 7.20232 4.5516 6.53685ZM6.06985 9.91095C5.58083 10.3894 5.30935 11.0494 5.2472 11.7194C7.16581 11.7212 9.08535 11.7212 11.0049 11.7194C10.9592 11.0126 10.6822 10.3066 10.1475 9.81833C9.04878 8.79135 7.12468 8.848 6.06985 9.91095Z" fill="#A1AEB7"/>
<path d="M4.5516 6.53685C5.94188 5.78595 7.5808 5.54225 9.14567 5.7284C10.6804 5.89656 12.1904 6.53775 13.2626 7.64926C14.1666 8.56923 14.7224 9.79045 14.9079 11.0512C15.0167 11.7203 14.992 12.4002 14.9938 13.0755C11.7444 13.0764 8.49486 13.0737 5.24537 13.0764C5.33038 14.0153 5.98027 14.8579 6.86966 15.2005C8.27914 15.759 9.96924 15.3948 11.1146 14.4424C11.8604 15.4568 12.6063 16.4721 13.3522 17.4865C12.0606 18.5539 10.3614 19.0396 8.69778 19.1205C7.04424 19.2059 5.34592 18.8039 3.97939 17.8678C2.7317 17.0297 1.7893 15.759 1.38071 14.3273C0.936478 12.768 1.03154 11.0512 1.69515 9.56563C2.26735 8.27786 3.2975 7.20232 4.5516 6.53685ZM6.06985 9.91095C5.58083 10.3894 5.30935 11.0494 5.2472 11.7194C7.16581 11.7212 9.08535 11.7212 11.0049 11.7194C10.9592 11.0126 10.6822 10.3066 10.1475 9.81833C9.04878 8.79135 7.12468 8.848 6.06985 9.91095Z" fill="black" fill-opacity="0.2"/>
<path d="M47.1204 6.50824C48.5235 5.76634 50.1716 5.53792 51.742 5.73846C53.2456 5.91922 54.7191 6.55591 55.7721 7.64494C56.6587 8.54601 57.2117 9.73576 57.4082 10.9687C57.5298 11.6647 57.5069 12.3725 57.5069 13.0757C54.2575 13.0766 51.008 13.0739 47.7585 13.0766C47.8444 14.0109 48.4879 14.8509 49.3727 15.1962C50.7831 15.7609 52.4814 15.3985 53.6286 14.4426C54.3754 15.4561 55.1176 16.4723 55.8671 17.484C54.6907 18.4633 53.1624 18.9498 51.6469 19.091C49.9175 19.26 48.1122 18.9156 46.6488 17.9714C45.3188 17.1287 44.3079 15.805 43.8865 14.3023C43.4459 12.7304 43.5501 11.0019 44.2329 9.51184C44.817 8.22947 45.859 7.16292 47.1204 6.50824ZM48.5756 9.92011C48.0912 10.3976 47.8243 11.0541 47.7603 11.7205C49.6789 11.7205 51.5984 11.7214 53.518 11.7196C53.4732 11.0118 53.1944 10.3032 52.6588 9.8158C51.5555 8.78972 49.6268 8.84907 48.5756 9.92011Z" fill="#A1AEB7"/>
<path d="M47.1204 6.50824C48.5235 5.76634 50.1716 5.53792 51.742 5.73846C53.2456 5.91922 54.7191 6.55591 55.7721 7.64494C56.6587 8.54601 57.2117 9.73576 57.4082 10.9687C57.5298 11.6647 57.5069 12.3725 57.5069 13.0757C54.2575 13.0766 51.008 13.0739 47.7585 13.0766C47.8444 14.0109 48.4879 14.8509 49.3727 15.1962C50.7831 15.7609 52.4814 15.3985 53.6286 14.4426C54.3754 15.4561 55.1176 16.4723 55.8671 17.484C54.6907 18.4633 53.1624 18.9498 51.6469 19.091C49.9175 19.26 48.1122 18.9156 46.6488 17.9714C45.3188 17.1287 44.3079 15.805 43.8865 14.3023C43.4459 12.7304 43.5501 11.0019 44.2329 9.51184C44.817 8.22947 45.859 7.16292 47.1204 6.50824ZM48.5756 9.92011C48.0912 10.3976 47.8243 11.0541 47.7603 11.7205C49.6789 11.7205 51.5984 11.7214 53.518 11.7196C53.4732 11.0118 53.1944 10.3032 52.6588 9.8158C51.5555 8.78972 49.6268 8.84907 48.5756 9.92011Z" fill="black" fill-opacity="0.2"/>
<path d="M91.1892 5.72941C92.6992 5.53966 94.2741 5.78606 95.6224 6.4911C96.8006 7.09721 97.7905 8.05585 98.413 9.21322C99.264 10.7834 99.4176 12.6871 98.9038 14.3859C98.4797 15.7915 97.5538 17.0424 96.3216 17.8661C93.7431 19.6143 90.0045 19.4902 87.5713 17.5424C86.4735 16.6737 85.6838 15.4434 85.3428 14.0999C84.8894 12.3148 85.1545 10.3382 86.171 8.78067C87.2569 7.07833 89.1746 5.96862 91.1892 5.72941ZM91.5392 9.29056C91.0466 9.39218 90.5822 9.62329 90.2139 9.96052C89.3345 10.7546 89.0914 12.0388 89.3117 13.1557C89.4689 13.9776 89.9661 14.7546 90.7175 15.1692C91.595 15.6521 92.7275 15.662 93.6105 15.1853C94.3217 14.7996 94.8025 14.081 94.9834 13.3121C95.1544 12.5801 95.1269 11.7978 94.8738 11.0873C94.6398 10.4308 94.1608 9.85351 93.5264 9.53696C92.9213 9.22131 92.2038 9.16826 91.5392 9.29056Z" fill="#A1AEB7"/>
<path d="M91.1892 5.72941C92.6992 5.53966 94.2741 5.78606 95.6224 6.4911C96.8006 7.09721 97.7905 8.05585 98.413 9.21322C99.264 10.7834 99.4176 12.6871 98.9038 14.3859C98.4797 15.7915 97.5538 17.0424 96.3216 17.8661C93.7431 19.6143 90.0045 19.4902 87.5713 17.5424C86.4735 16.6737 85.6838 15.4434 85.3428 14.0999C84.8894 12.3148 85.1545 10.3382 86.171 8.78067C87.2569 7.07833 89.1746 5.96862 91.1892 5.72941ZM91.5392 9.29056C91.0466 9.39218 90.5822 9.62329 90.2139 9.96052C89.3345 10.7546 89.0914 12.0388 89.3117 13.1557C89.4689 13.9776 89.9661 14.7546 90.7175 15.1692C91.595 15.6521 92.7275 15.662 93.6105 15.1853C94.3217 14.7996 94.8025 14.081 94.9834 13.3121C95.1544 12.5801 95.1269 11.7978 94.8738 11.0873C94.6398 10.4308 94.1608 9.85351 93.5264 9.53696C92.9213 9.22131 92.2038 9.16826 91.5392 9.29056Z" fill="black" fill-opacity="0.2"/>
<path d="M15.9281 5.9237C17.63 5.9228 19.332 5.9237 21.0349 5.9237C21.9197 5.92639 22.8146 5.89042 23.6866 6.06668C25.3063 6.35895 26.8429 7.22046 27.8127 8.546C28.7926 9.84906 29.1545 11.5316 28.99 13.1287C28.8648 14.4669 28.3191 15.7771 27.3895 16.7699C26.3986 17.8518 25.0038 18.5406 23.5477 18.7618C22.7049 18.8868 21.8512 18.8203 21.0038 18.8365C21.0011 17.6027 21.0066 16.3697 21.0011 15.1359C21.7415 15.1045 22.5221 15.2313 23.2195 14.9192C23.8859 14.6422 24.3621 14.0298 24.5541 13.3545C24.7488 12.662 24.7478 11.9129 24.5449 11.2232C24.3447 10.5478 23.8438 9.95337 23.172 9.69258C22.2479 9.31578 21.226 9.47496 20.2534 9.44708C20.2607 14.3131 20.2552 19.18 20.2561 24.046C18.8137 24.0478 17.3704 24.0469 15.9281 24.0469C15.9271 18.0055 15.9271 11.9651 15.9281 5.9237Z" fill="#A1AEB7"/>
<path d="M15.9281 5.9237C17.63 5.9228 19.332 5.9237 21.0349 5.9237C21.9197 5.92639 22.8146 5.89042 23.6866 6.06668C25.3063 6.35895 26.8429 7.22046 27.8127 8.546C28.7926 9.84906 29.1545 11.5316 28.99 13.1287C28.8648 14.4669 28.3191 15.7771 27.3895 16.7699C26.3986 17.8518 25.0038 18.5406 23.5477 18.7618C22.7049 18.8868 21.8512 18.8203 21.0038 18.8365C21.0011 17.6027 21.0066 16.3697 21.0011 15.1359C21.7415 15.1045 22.5221 15.2313 23.2195 14.9192C23.8859 14.6422 24.3621 14.0298 24.5541 13.3545C24.7488 12.662 24.7478 11.9129 24.5449 11.2232C24.3447 10.5478 23.8438 9.95337 23.172 9.69258C22.2479 9.31578 21.226 9.47496 20.2534 9.44708C20.2607 14.3131 20.2552 19.18 20.2561 24.046C18.8137 24.0478 17.3704 24.0469 15.9281 24.0469C15.9271 18.0055 15.9271 11.9651 15.9281 5.9237Z" fill="black" fill-opacity="0.2"/>
<path d="M29.7751 5.92368C31.829 5.92368 33.8838 5.92188 35.9377 5.92458C36.9185 5.92278 37.9048 6.07386 38.8197 6.42728C40.0345 6.88412 41.1122 7.70696 41.8261 8.7807C42.7009 10.073 43.0016 11.6845 42.8288 13.2142C42.6908 14.5118 42.1552 15.778 41.2594 16.7465C40.2877 17.8176 38.9212 18.5091 37.488 18.7465C36.6169 18.8922 35.7302 18.8194 34.8509 18.8374C34.8509 17.6017 34.8509 16.367 34.8509 15.1323C35.5977 15.1089 36.3883 15.2312 37.0894 14.9093C37.7594 14.6233 38.2302 13.9965 38.4139 13.3122C38.5931 12.635 38.5903 11.9075 38.3956 11.2339C38.1945 10.5442 37.6799 9.93717 36.9907 9.68088C36.0739 9.31757 35.0666 9.47944 34.105 9.44257C34.1041 14.3113 34.105 19.1791 34.1041 24.0469C32.6608 24.0469 31.2184 24.0469 29.7751 24.046C29.7742 18.0055 29.7742 11.9651 29.7751 5.92368Z" fill="#A1AEB7"/>
<path d="M29.7751 5.92368C31.829 5.92368 33.8838 5.92188 35.9377 5.92458C36.9185 5.92278 37.9048 6.07386 38.8197 6.42728C40.0345 6.88412 41.1122 7.70696 41.8261 8.7807C42.7009 10.073 43.0016 11.6845 42.8288 13.2142C42.6908 14.5118 42.1552 15.778 41.2594 16.7465C40.2877 17.8176 38.9212 18.5091 37.488 18.7465C36.6169 18.8922 35.7302 18.8194 34.8509 18.8374C34.8509 17.6017 34.8509 16.367 34.8509 15.1323C35.5977 15.1089 36.3883 15.2312 37.0894 14.9093C37.7594 14.6233 38.2302 13.9965 38.4139 13.3122C38.5931 12.635 38.5903 11.9075 38.3956 11.2339C38.1945 10.5442 37.6799 9.93717 36.9907 9.68088C36.0739 9.31757 35.0666 9.47944 34.105 9.44257C34.1041 14.3113 34.105 19.1791 34.1041 24.0469C32.6608 24.0469 31.2184 24.0469 29.7751 24.046C29.7742 18.0055 29.7742 11.9651 29.7751 5.92368Z" fill="black" fill-opacity="0.2"/>
<path d="M58.367 18.8374C58.3661 14.5325 58.3661 10.2286 58.367 5.92371C60.8231 5.92461 63.2783 5.91921 65.7343 5.92641C66.9208 5.9327 68.1575 6.28162 69.0268 7.10716C69.6813 7.71508 70.0633 8.5631 70.1977 9.42911C70.2855 9.96867 70.2736 10.5172 70.2736 11.0622C70.2736 13.6539 70.2745 16.2457 70.2736 18.8374C68.8796 18.8365 67.4866 18.8374 66.0936 18.8365C66.0927 16.2457 66.0927 13.6548 66.0936 11.064C66.0927 10.6926 66.0598 10.2915 65.8239 9.98396C65.5954 9.67911 65.2033 9.53162 64.8267 9.52713C64.0662 9.51094 63.3057 9.52533 62.5461 9.52083C62.5452 12.626 62.5461 15.7313 62.5452 18.8365C61.1522 18.8374 59.7591 18.8365 58.367 18.8374Z" fill="#A1AEB7"/>
<path d="M58.367 18.8374C58.3661 14.5325 58.3661 10.2286 58.367 5.92371C60.8231 5.92461 63.2783 5.91921 65.7343 5.92641C66.9208 5.9327 68.1575 6.28162 69.0268 7.10716C69.6813 7.71508 70.0633 8.5631 70.1977 9.42911C70.2855 9.96867 70.2736 10.5172 70.2736 11.0622C70.2736 13.6539 70.2745 16.2457 70.2736 18.8374C68.8796 18.8365 67.4866 18.8374 66.0936 18.8365C66.0927 16.2457 66.0927 13.6548 66.0936 11.064C66.0927 10.6926 66.0598 10.2915 65.8239 9.98396C65.5954 9.67911 65.2033 9.53162 64.8267 9.52713C64.0662 9.51094 63.3057 9.52533 62.5461 9.52083C62.5452 12.626 62.5461 15.7313 62.5452 18.8365C61.1522 18.8374 59.7591 18.8365 58.367 18.8374Z" fill="black" fill-opacity="0.2"/>
<path d="M101.011 7.36612C101.811 6.42008 103.078 5.95605 104.307 5.92907C105.404 5.91558 106.502 5.92637 107.598 5.92367C107.599 7.09634 107.598 8.2699 107.598 9.44256C106.836 9.45695 106.071 9.41198 105.311 9.46684C104.747 9.52709 104.366 10.0721 104.392 10.6089C104.381 13.3517 104.39 16.0945 104.387 18.8364C102.944 18.8364 101.502 18.8373 100.059 18.8364C100.059 15.9471 100.056 13.0577 100.06 10.1674C100.06 9.16828 100.337 8.135 101.011 7.36612Z" fill="#A1AEB7"/>
<path d="M101.011 7.36612C101.811 6.42008 103.078 5.95605 104.307 5.92907C105.404 5.91558 106.502 5.92637 107.598 5.92367C107.599 7.09634 107.598 8.2699 107.598 9.44256C106.836 9.45695 106.071 9.41198 105.311 9.46684C104.747 9.52709 104.366 10.0721 104.392 10.6089C104.381 13.3517 104.39 16.0945 104.387 18.8364C102.944 18.8364 101.502 18.8373 100.059 18.8364C100.059 15.9471 100.056 13.0577 100.06 10.1674C100.06 9.16828 100.337 8.135 101.011 7.36612Z" fill="black" fill-opacity="0.2"/>
</svg>
