<svg width="89" height="25" viewBox="0 0 89 25" fill="none" xmlns="http://www.w3.org/2000/svg">
<path d="M6.96478 0.01772C8.54669 -0.0108882 10.1305 0.00150871 11.7124 0.0110448C11.701 6.16086 11.7134 12.3107 11.7067 18.4605C11.6943 19.0813 11.2972 19.6659 10.7286 19.9119C10.3724 20.1083 9.95621 20.034 9.56859 20.0416C6.93526 20.0406 4.30097 20.0387 1.66669 20.0425C0.810497 20.0864 0.0562111 19.3073 0.0285921 18.4672C0.0104968 16.99 0.0390683 15.5119 0.0152588 14.0358C1.50669 14.0005 2.99907 14.0329 4.49145 14.0196C4.53621 14.956 4.56573 15.8934 4.63526 16.8289C5.37526 16.8222 6.11431 16.8327 6.85431 16.8222C6.88192 11.2207 6.96573 5.61922 6.96478 0.01772Z" fill="#A1AEB7"/>
<path d="M6.96478 0.01772C8.54669 -0.0108882 10.1305 0.00150871 11.7124 0.0110448C11.701 6.16086 11.7134 12.3107 11.7067 18.4605C11.6943 19.0813 11.2972 19.6659 10.7286 19.9119C10.3724 20.1083 9.95621 20.034 9.56859 20.0416C6.93526 20.0406 4.30097 20.0387 1.66669 20.0425C0.810497 20.0864 0.0562111 19.3073 0.0285921 18.4672C0.0104968 16.99 0.0390683 15.5119 0.0152588 14.0358C1.50669 14.0005 2.99907 14.0329 4.49145 14.0196C4.53621 14.956 4.56573 15.8934 4.63526 16.8289C5.37526 16.8222 6.11431 16.8327 6.85431 16.8222C6.88192 11.2207 6.96573 5.61922 6.96478 0.01772Z" fill="black" fill-opacity="0.2"/>
<path d="M30.7581 0.0100473C32.4191 -0.00711761 34.08 0.0100473 35.7419 0.00146484C35.7496 6.68054 35.741 13.3596 35.7467 20.0387C34.0857 20.0434 32.4238 20.0387 30.7629 20.0406C30.7581 13.3644 30.7686 6.68721 30.7581 0.0100473Z" fill="#A1AEB7"/>
<path d="M30.7581 0.0100473C32.4191 -0.00711761 34.08 0.0100473 35.7419 0.00146484C35.7496 6.68054 35.741 13.3596 35.7467 20.0387C34.0857 20.0434 32.4238 20.0387 30.7629 20.0406C30.7581 13.3644 30.7686 6.68721 30.7581 0.0100473Z" fill="black" fill-opacity="0.2"/>
<path d="M54.3857 0.0139604C56.0562 -0.00320458 57.7285 -0.00511195 59.399 0.0149138C59.4133 2.08901 59.4571 4.16215 59.5038 6.2353C62.7628 6.23816 66.0228 6.23148 69.2819 6.23816C70.1657 6.22004 70.9324 7.00677 70.9466 7.88218C70.9543 11.3457 70.9457 14.8082 70.9505 18.2717C70.9866 18.9478 70.5819 19.6325 69.9543 19.8986C69.599 20.0807 69.1924 20.0388 68.8076 20.0416C64.0028 20.0397 59.1971 20.0407 54.3923 20.0407C54.3876 13.3645 54.4 6.68921 54.3857 0.0139604ZM59.0495 9.83517C59.0666 12.1181 59.0447 14.402 59.06 16.6849C61.3743 16.6887 63.6885 16.6725 66.0028 16.6935C66.0476 14.4049 66.0124 12.1143 66.02 9.82563C63.6962 9.83135 61.3724 9.81228 59.0495 9.83517Z" fill="#A1AEB7"/>
<path d="M54.3857 0.0139604C56.0562 -0.00320458 57.7285 -0.00511195 59.399 0.0149138C59.4133 2.08901 59.4571 4.16215 59.5038 6.2353C62.7628 6.23816 66.0228 6.23148 69.2819 6.23816C70.1657 6.22004 70.9324 7.00677 70.9466 7.88218C70.9543 11.3457 70.9457 14.8082 70.9505 18.2717C70.9866 18.9478 70.5819 19.6325 69.9543 19.8986C69.599 20.0807 69.1924 20.0388 68.8076 20.0416C64.0028 20.0397 59.1971 20.0407 54.3923 20.0407C54.3876 13.3645 54.4 6.68921 54.3857 0.0139604ZM59.0495 9.83517C59.0666 12.1181 59.0447 14.402 59.06 16.6849C61.3743 16.6887 63.6885 16.6725 66.0028 16.6935C66.0476 14.4049 66.0124 12.1143 66.02 9.82563C63.6962 9.83135 61.3724 9.81228 59.0495 9.83517Z" fill="black" fill-opacity="0.2"/>
<path d="M13.1571 6.23723C14.7695 6.22864 16.3809 6.24772 17.9933 6.22769C18.0038 6.36596 18.0114 6.50519 18.0133 6.64442C18.0067 9.9439 18.0228 13.2424 18.0209 16.5419C19.9048 16.5515 21.7876 16.5419 23.6714 16.5467C23.9324 16.5448 24.2019 16.5705 24.4543 16.4838C24.4514 13.4246 24.4533 10.3654 24.4533 7.30718C24.4571 6.94576 24.4343 6.58339 24.4762 6.22388C26.1257 6.24486 27.7771 6.24104 29.4276 6.22578C29.4381 6.36406 29.4448 6.50233 29.4467 6.6406C29.3943 10.5819 29.359 14.5231 29.3048 18.4634C29.2771 19.3083 28.519 20.0617 27.6686 20.0417C23.3514 20.0388 19.0333 20.0426 14.7162 20.0398C13.8571 20.0235 13.1381 19.2197 13.1562 18.37C13.1562 14.3257 13.1533 10.2815 13.1571 6.23723Z" fill="#A1AEB7"/>
<path d="M13.1571 6.23723C14.7695 6.22864 16.3809 6.24772 17.9933 6.22769C18.0038 6.36596 18.0114 6.50519 18.0133 6.64442C18.0067 9.9439 18.0228 13.2424 18.0209 16.5419C19.9048 16.5515 21.7876 16.5419 23.6714 16.5467C23.9324 16.5448 24.2019 16.5705 24.4543 16.4838C24.4514 13.4246 24.4533 10.3654 24.4533 7.30718C24.4571 6.94576 24.4343 6.58339 24.4762 6.22388C26.1257 6.24486 27.7771 6.24104 29.4276 6.22578C29.4381 6.36406 29.4448 6.50233 29.4467 6.6406C29.3943 10.5819 29.359 14.5231 29.3048 18.4634C29.2771 19.3083 28.519 20.0617 27.6686 20.0417C23.3514 20.0388 19.0333 20.0426 14.7162 20.0398C13.8571 20.0235 13.1381 19.2197 13.1562 18.37C13.1562 14.3257 13.1533 10.2815 13.1571 6.23723Z" fill="black" fill-opacity="0.2"/>
<path d="M36.9352 7.8802C36.9333 6.99525 37.7295 6.20185 38.619 6.23618C43.4781 6.23618 48.3371 6.23427 53.1962 6.23618C53.1648 9.86657 53.1248 13.4979 53.1114 17.1283C53.0419 18.0991 53.0914 19.0746 53.0533 20.0463C51.5276 20.032 50.0019 20.0454 48.4762 20.0397C48.4724 16.64 48.4848 13.2395 48.4705 9.83987C46.1524 9.80554 43.8343 9.83415 41.5162 9.82556C41.5276 12.1133 41.4933 14.4029 41.5333 16.6906C43.7467 16.6782 45.96 16.6811 48.1724 16.6887C47.6629 17.3181 47.0476 17.8521 46.4952 18.4433C45.9581 18.9621 45.4867 19.5533 44.9162 20.0358C42.8181 20.0473 40.719 20.0368 38.6209 20.0416C37.7257 20.0835 36.9143 19.2634 36.9324 18.3728C36.9314 14.8749 36.9257 11.3771 36.9352 7.8802Z" fill="#A1AEB7"/>
<path d="M36.9352 7.8802C36.9333 6.99525 37.7295 6.20185 38.619 6.23618C43.4781 6.23618 48.3371 6.23427 53.1962 6.23618C53.1648 9.86657 53.1248 13.4979 53.1114 17.1283C53.0419 18.0991 53.0914 19.0746 53.0533 20.0463C51.5276 20.032 50.0019 20.0454 48.4762 20.0397C48.4724 16.64 48.4848 13.2395 48.4705 9.83987C46.1524 9.80554 43.8343 9.83415 41.5162 9.82556C41.5276 12.1133 41.4933 14.4029 41.5333 16.6906C43.7467 16.6782 45.96 16.6811 48.1724 16.6887C47.6629 17.3181 47.0476 17.8521 46.4952 18.4433C45.9581 18.9621 45.4867 19.5533 44.9162 20.0358C42.8181 20.0473 40.719 20.0368 38.6209 20.0416C37.7257 20.0835 36.9143 19.2634 36.9324 18.3728C36.9314 14.8749 36.9257 11.3771 36.9352 7.8802Z" fill="black" fill-opacity="0.2"/>
<path d="M73.5915 6.27912C73.74 6.24289 73.8943 6.23621 74.0496 6.23431C78.3029 6.23621 82.5572 6.23621 86.8105 6.23431C87.2762 6.21523 87.7753 6.24193 88.1715 6.51753C88.5553 6.775 88.8924 7.20699 88.8601 7.69142C88.8524 11.379 88.862 15.0676 88.8553 18.7552C88.7724 19.3092 88.3191 19.766 87.8029 19.9529C87.5181 20.0683 87.2067 20.0378 86.9077 20.0416C82.5581 20.0387 78.2086 20.0425 73.8591 20.0397C73.0067 20.0139 72.2734 19.2186 72.3029 18.3671C72.3019 14.8711 72.301 11.3752 72.3038 7.87928C72.2943 7.12879 72.8724 6.45077 73.5915 6.27912ZM77.0419 16.7068C79.3591 16.6906 81.6772 16.7059 83.9943 16.6992C83.9943 14.4182 83.9972 12.1381 83.9934 9.85802C81.6781 9.84848 79.3639 9.86946 77.0496 9.84753C77.0134 12.1333 77.0296 14.421 77.0419 16.7068Z" fill="#A1AEB7"/>
<path d="M73.5915 6.27912C73.74 6.24289 73.8943 6.23621 74.0496 6.23431C78.3029 6.23621 82.5572 6.23621 86.8105 6.23431C87.2762 6.21523 87.7753 6.24193 88.1715 6.51753C88.5553 6.775 88.8924 7.20699 88.8601 7.69142C88.8524 11.379 88.862 15.0676 88.8553 18.7552C88.7724 19.3092 88.3191 19.766 87.8029 19.9529C87.5181 20.0683 87.2067 20.0378 86.9077 20.0416C82.5581 20.0387 78.2086 20.0425 73.8591 20.0397C73.0067 20.0139 72.2734 19.2186 72.3029 18.3671C72.3019 14.8711 72.301 11.3752 72.3038 7.87928C72.2943 7.12879 72.8724 6.45077 73.5915 6.27912ZM77.0419 16.7068C79.3591 16.6906 81.6772 16.7059 83.9943 16.6992C83.9943 14.4182 83.9972 12.1381 83.9934 9.85802C81.6781 9.84848 79.3639 9.86946 77.0496 9.84753C77.0134 12.1333 77.0296 14.421 77.0419 16.7068Z" fill="black" fill-opacity="0.2"/>
<path d="M0 22.4199C0.909524 22.3989 1.82 22.4113 2.72952 22.4142C2.72952 22.5239 2.72952 22.7441 2.73048 22.8538C2.38571 22.8815 2.04 22.8796 1.69619 22.85C1.65714 23.4679 1.68667 24.0878 1.67905 24.7076C1.47048 24.7191 1.2619 24.721 1.05429 24.7114C1.08857 24.0983 1.06286 23.4841 1.06952 22.871C0.727619 22.8633 0.384762 22.8872 0.0438094 22.8605C0.00666658 22.7165 0.0104762 22.5668 0 22.4199Z" fill="#A1AEB7"/>
<path d="M0 22.4199C0.909524 22.3989 1.82 22.4113 2.72952 22.4142C2.72952 22.5239 2.72952 22.7441 2.73048 22.8538C2.38571 22.8815 2.04 22.8796 1.69619 22.85C1.65714 23.4679 1.68667 24.0878 1.67905 24.7076C1.47048 24.7191 1.2619 24.721 1.05429 24.7114C1.08857 24.0983 1.06286 23.4841 1.06952 22.871C0.727619 22.8633 0.384762 22.8872 0.0438094 22.8605C0.00666658 22.7165 0.0104762 22.5668 0 22.4199Z" fill="black" fill-opacity="0.2"/>
<path d="M10.5991 22.4236C11.5162 22.396 12.4362 22.4122 13.3543 22.415C13.3476 22.5724 13.34 22.7297 13.3305 22.888C12.9752 22.8594 12.6191 22.8699 12.2638 22.8709C12.2619 23.4869 12.2648 24.1029 12.2619 24.7189C12.0724 24.7199 11.8838 24.7209 11.6943 24.7218C11.6705 24.1058 11.6905 23.4897 11.6829 22.8737C11.3381 22.869 10.9943 22.867 10.6505 22.8756C10.6305 22.725 10.6133 22.5743 10.5991 22.4236Z" fill="#A1AEB7"/>
<path d="M10.5991 22.4236C11.5162 22.396 12.4362 22.4122 13.3543 22.415C13.3476 22.5724 13.34 22.7297 13.3305 22.888C12.9752 22.8594 12.6191 22.8699 12.2638 22.8709C12.2619 23.4869 12.2648 24.1029 12.2619 24.7189C12.0724 24.7199 11.8838 24.7209 11.6943 24.7218C11.6705 24.1058 11.6905 23.4897 11.6829 22.8737C11.3381 22.869 10.9943 22.867 10.6505 22.8756C10.6305 22.725 10.6133 22.5743 10.5991 22.4236Z" fill="black" fill-opacity="0.2"/>
<path d="M44.6257 22.4781C45.0543 22.358 45.5057 22.4219 45.9448 22.4056C46.2505 22.4161 46.5829 22.3685 46.8648 22.5115C47.0819 22.6755 47.001 22.9835 47.0124 23.2191C46.8248 23.2353 46.6391 23.2572 46.4553 23.2935C46.4438 23.1533 46.4324 23.0121 46.4219 22.872C45.9476 22.8691 45.4743 22.87 45 22.871C45 23.3392 44.9991 23.8074 45.0019 24.2757C45.4772 24.2728 45.9524 24.2747 46.4286 24.2747C46.4305 24.1164 46.44 23.9591 46.4448 23.8027C46.6343 23.8303 46.8238 23.8608 47.0143 23.8942C47.0067 24.1679 47.1038 24.6514 46.721 24.7029C46.0829 24.7372 45.4419 24.7229 44.8038 24.7124C44.5648 24.7467 44.4276 24.494 44.4305 24.2881C44.4229 23.8408 44.4286 23.3936 44.4276 22.9463C44.4219 22.7728 44.4714 22.5773 44.6257 22.4781Z" fill="#A1AEB7"/>
<path d="M44.6257 22.4781C45.0543 22.358 45.5057 22.4219 45.9448 22.4056C46.2505 22.4161 46.5829 22.3685 46.8648 22.5115C47.0819 22.6755 47.001 22.9835 47.0124 23.2191C46.8248 23.2353 46.6391 23.2572 46.4553 23.2935C46.4438 23.1533 46.4324 23.0121 46.4219 22.872C45.9476 22.8691 45.4743 22.87 45 22.871C45 23.3392 44.9991 23.8074 45.0019 24.2757C45.4772 24.2728 45.9524 24.2747 46.4286 24.2747C46.4305 24.1164 46.44 23.9591 46.4448 23.8027C46.6343 23.8303 46.8238 23.8608 47.0143 23.8942C47.0067 24.1679 47.1038 24.6514 46.721 24.7029C46.0829 24.7372 45.4419 24.7229 44.8038 24.7124C44.5648 24.7467 44.4276 24.494 44.4305 24.2881C44.4229 23.8408 44.4286 23.3936 44.4276 22.9463C44.4219 22.7728 44.4714 22.5773 44.6257 22.4781Z" fill="black" fill-opacity="0.2"/>
<path d="M67.7381 22.6181C67.8372 22.3931 68.1295 22.436 68.3314 22.4083C68.8676 22.4198 69.4105 22.3654 69.9429 22.4474C70.3086 22.4941 70.2733 22.9366 70.2714 23.2074C70.0771 23.2341 69.8838 23.2599 69.6914 23.2914C69.6838 23.1502 69.6781 23.01 69.6733 22.8708C69.1943 22.8699 68.7162 22.8699 68.2381 22.8708C68.2372 23.339 68.2372 23.8073 68.24 24.2755C68.7172 24.2726 69.1952 24.2745 69.6733 24.2745C69.6762 24.1172 69.6829 23.9598 69.6886 23.8035C69.879 23.8292 70.0705 23.8607 70.2609 23.894C70.2552 24.1649 70.3438 24.5272 70.0581 24.6903C69.319 24.7504 68.5733 24.7199 67.8324 24.7018C67.5857 24.3546 67.681 23.915 67.6648 23.5183C67.6781 23.2189 67.6162 22.9013 67.7381 22.6181Z" fill="#A1AEB7"/>
<path d="M67.7381 22.6181C67.8372 22.3931 68.1295 22.436 68.3314 22.4083C68.8676 22.4198 69.4105 22.3654 69.9429 22.4474C70.3086 22.4941 70.2733 22.9366 70.2714 23.2074C70.0771 23.2341 69.8838 23.2599 69.6914 23.2914C69.6838 23.1502 69.6781 23.01 69.6733 22.8708C69.1943 22.8699 68.7162 22.8699 68.2381 22.8708C68.2372 23.339 68.2372 23.8073 68.24 24.2755C68.7172 24.2726 69.1952 24.2745 69.6733 24.2745C69.6762 24.1172 69.6829 23.9598 69.6886 23.8035C69.879 23.8292 70.0705 23.8607 70.2609 23.894C70.2552 24.1649 70.3438 24.5272 70.0581 24.6903C69.319 24.7504 68.5733 24.7199 67.8324 24.7018C67.5857 24.3546 67.681 23.915 67.6648 23.5183C67.6781 23.2189 67.6162 22.9013 67.7381 22.6181Z" fill="black" fill-opacity="0.2"/>
<path d="M3.21525 22.8186C3.37716 22.8215 3.53906 22.8253 3.70097 22.8291C3.70668 23.0675 3.70954 23.3068 3.71716 23.5472C4.18668 23.55 4.65525 23.55 5.12382 23.5462C5.12954 23.3049 5.1343 23.0637 5.14859 22.8234C5.30478 22.8234 5.46097 22.8234 5.61716 22.8234C5.65144 23.4547 5.6324 24.0879 5.62859 24.7201C5.46382 24.7201 5.30001 24.7201 5.13621 24.7191C5.1324 24.4674 5.1324 24.2166 5.1324 23.9658C4.65906 23.9486 4.18668 23.9572 3.71335 23.9601C3.70859 24.2137 3.70763 24.4674 3.70478 24.7211C3.53335 24.7191 3.36192 24.7163 3.19049 24.7106C3.20287 24.0802 3.16192 23.448 3.21525 22.8186Z" fill="#A1AEB7"/>
<path d="M3.21525 22.8186C3.37716 22.8215 3.53906 22.8253 3.70097 22.8291C3.70668 23.0675 3.70954 23.3068 3.71716 23.5472C4.18668 23.55 4.65525 23.55 5.12382 23.5462C5.12954 23.3049 5.1343 23.0637 5.14859 22.8234C5.30478 22.8234 5.46097 22.8234 5.61716 22.8234C5.65144 23.4547 5.6324 24.0879 5.62859 24.7201C5.46382 24.7201 5.30001 24.7201 5.13621 24.7191C5.1324 24.4674 5.1324 24.2166 5.1324 23.9658C4.65906 23.9486 4.18668 23.9572 3.71335 23.9601C3.70859 24.2137 3.70763 24.4674 3.70478 24.7211C3.53335 24.7191 3.36192 24.7163 3.19049 24.7106C3.20287 24.0802 3.16192 23.448 3.21525 22.8186Z" fill="black" fill-opacity="0.2"/>
<path d="M13.7209 22.8233C14.4066 22.8414 15.0971 22.7918 15.78 22.8452C15.7857 22.932 15.7952 23.1036 15.8009 23.1904C15.2733 23.2038 14.7457 23.1828 14.2181 23.2038C14.22 23.2963 14.2228 23.4803 14.2247 23.5728C14.5314 23.5747 14.8381 23.5757 15.1457 23.5814C15.1438 23.6682 15.1419 23.8417 15.14 23.9285C14.8343 23.9295 14.5295 23.9304 14.2238 23.9419C14.2171 24.0763 14.2105 24.2108 14.2057 24.3452C14.7409 24.3748 15.2771 24.3538 15.8124 24.3576C15.8171 24.4778 15.8219 24.597 15.8257 24.7181C15.1228 24.7257 14.419 24.7248 13.7162 24.7191C13.7124 24.0868 13.7038 23.4546 13.7209 22.8233Z" fill="#A1AEB7"/>
<path d="M13.7209 22.8233C14.4066 22.8414 15.0971 22.7918 15.78 22.8452C15.7857 22.932 15.7952 23.1036 15.8009 23.1904C15.2733 23.2038 14.7457 23.1828 14.2181 23.2038C14.22 23.2963 14.2228 23.4803 14.2247 23.5728C14.5314 23.5747 14.8381 23.5757 15.1457 23.5814C15.1438 23.6682 15.1419 23.8417 15.14 23.9285C14.8343 23.9295 14.5295 23.9304 14.2238 23.9419C14.2171 24.0763 14.2105 24.2108 14.2057 24.3452C14.7409 24.3748 15.2771 24.3538 15.8124 24.3576C15.8171 24.4778 15.8219 24.597 15.8257 24.7181C15.1228 24.7257 14.419 24.7248 13.7162 24.7191C13.7124 24.0868 13.7038 23.4546 13.7209 22.8233Z" fill="black" fill-opacity="0.2"/>
<path d="M16.4876 22.8241C16.6114 22.8232 16.7352 22.8222 16.8591 22.8203C17.181 23.1855 17.48 23.5698 17.8057 23.9313C18.1124 23.5651 18.4276 23.2056 18.72 22.8279C18.8543 22.8299 18.9886 22.8327 19.1229 22.8356C19.1191 23.463 19.1238 24.0905 19.12 24.718C18.9695 24.718 18.8191 24.718 18.6686 24.718C18.6619 24.2965 18.6581 23.875 18.6857 23.4545C18.3752 23.814 18.1124 24.225 17.7752 24.5654C17.4591 24.2574 17.2276 23.875 16.8971 23.5822C16.8838 23.9599 16.8981 24.3394 16.881 24.718C16.7457 24.718 16.6114 24.717 16.4781 24.717C16.4762 24.0857 16.461 23.4545 16.4876 22.8241Z" fill="#A1AEB7"/>
<path d="M16.4876 22.8241C16.6114 22.8232 16.7352 22.8222 16.8591 22.8203C17.181 23.1855 17.48 23.5698 17.8057 23.9313C18.1124 23.5651 18.4276 23.2056 18.72 22.8279C18.8543 22.8299 18.9886 22.8327 19.1229 22.8356C19.1191 23.463 19.1238 24.0905 19.12 24.718C18.9695 24.718 18.8191 24.718 18.6686 24.718C18.6619 24.2965 18.6581 23.875 18.6857 23.4545C18.3752 23.814 18.1124 24.225 17.7752 24.5654C17.4591 24.2574 17.2276 23.875 16.8971 23.5822C16.8838 23.9599 16.8981 24.3394 16.881 24.718C16.7457 24.718 16.6114 24.717 16.4781 24.717C16.4762 24.0857 16.461 23.4545 16.4876 22.8241Z" fill="black" fill-opacity="0.2"/>
<path d="M19.98 22.8193C20.5438 22.8298 21.1076 22.8203 21.6715 22.8231C21.781 22.8308 21.9038 22.8212 21.9991 22.8899C22.2657 23.0349 22.1486 23.3791 22.1714 23.6242C22.1991 23.7911 22.0667 23.8969 21.9619 24.0018C21.4524 23.9932 20.9429 23.9999 20.4334 23.9989C20.4362 24.2421 20.4362 24.4853 20.4238 24.7285C20.2705 24.7246 20.1181 24.7218 19.9657 24.718C19.9353 24.0867 19.9134 23.4487 19.98 22.8193ZM20.4353 23.1769C20.4372 23.3381 20.4381 23.5002 20.4429 23.6633C20.8334 23.6452 21.2257 23.6747 21.6162 23.6461C21.7372 23.5412 21.7486 23.3 21.6172 23.2008C21.2257 23.1531 20.8296 23.1903 20.4353 23.1769Z" fill="#A1AEB7"/>
<path d="M19.98 22.8193C20.5438 22.8298 21.1076 22.8203 21.6715 22.8231C21.781 22.8308 21.9038 22.8212 21.9991 22.8899C22.2657 23.0349 22.1486 23.3791 22.1714 23.6242C22.1991 23.7911 22.0667 23.8969 21.9619 24.0018C21.4524 23.9932 20.9429 23.9999 20.4334 23.9989C20.4362 24.2421 20.4362 24.4853 20.4238 24.7285C20.2705 24.7246 20.1181 24.7218 19.9657 24.718C19.9353 24.0867 19.9134 23.4487 19.98 22.8193ZM20.4353 23.1769C20.4372 23.3381 20.4381 23.5002 20.4429 23.6633C20.8334 23.6452 21.2257 23.6747 21.6162 23.6461C21.7372 23.5412 21.7486 23.3 21.6172 23.2008C21.2257 23.1531 20.8296 23.1903 20.4353 23.1769Z" fill="black" fill-opacity="0.2"/>
<path d="M29.2 22.8528C29.3372 22.7985 29.4962 22.83 29.6429 22.8147C30.0629 23.4241 30.4305 24.0696 30.8095 24.7048C30.641 24.7143 30.4734 24.7238 30.3057 24.7324C30.2067 24.6037 30.1267 24.4587 30.0105 24.3452C29.6048 24.3357 29.1953 24.3214 28.7914 24.3567C28.7143 24.4644 28.6572 24.5846 28.5962 24.7019C28.4238 24.7143 28.2514 24.72 28.08 24.7181C28.4429 24.0897 28.8095 23.4632 29.2 22.8528ZM29.4229 23.2228C29.281 23.466 29.1457 23.714 29.0143 23.9628C29.2886 23.9657 29.5638 23.9657 29.8391 23.9609C29.6924 23.7187 29.5562 23.4717 29.4229 23.2228Z" fill="#A1AEB7"/>
<path d="M29.2 22.8528C29.3372 22.7985 29.4962 22.83 29.6429 22.8147C30.0629 23.4241 30.4305 24.0696 30.8095 24.7048C30.641 24.7143 30.4734 24.7238 30.3057 24.7324C30.2067 24.6037 30.1267 24.4587 30.0105 24.3452C29.6048 24.3357 29.1953 24.3214 28.7914 24.3567C28.7143 24.4644 28.6572 24.5846 28.5962 24.7019C28.4238 24.7143 28.2514 24.72 28.08 24.7181C28.4429 24.0897 28.8095 23.4632 29.2 22.8528ZM29.4229 23.2228C29.281 23.466 29.1457 23.714 29.0143 23.9628C29.2886 23.9657 29.5638 23.9657 29.8391 23.9609C29.6924 23.7187 29.5562 23.4717 29.4229 23.2228Z" fill="black" fill-opacity="0.2"/>
<path d="M33.719 22.8281C33.8752 22.8253 34.0324 22.8215 34.1905 22.8186C34.2371 23.3288 34.2009 23.8418 34.2152 24.353C34.6486 24.3587 35.0828 24.3577 35.5171 24.3539C35.5228 23.8437 35.5066 23.3336 35.5295 22.8234C35.6895 22.8234 35.8495 22.8234 36.0105 22.8234C36.039 23.3107 36.0314 23.7999 36.0238 24.2881C36.0228 24.4531 35.9771 24.7039 35.7657 24.7048C35.1219 24.7373 34.4743 24.7258 33.8305 24.7029C33.5924 24.1127 33.7571 23.4489 33.719 22.8281Z" fill="#A1AEB7"/>
<path d="M33.719 22.8281C33.8752 22.8253 34.0324 22.8215 34.1905 22.8186C34.2371 23.3288 34.2009 23.8418 34.2152 24.353C34.6486 24.3587 35.0828 24.3577 35.5171 24.3539C35.5228 23.8437 35.5066 23.3336 35.5295 22.8234C35.6895 22.8234 35.8495 22.8234 36.0105 22.8234C36.039 23.3107 36.0314 23.7999 36.0238 24.2881C36.0228 24.4531 35.9771 24.7039 35.7657 24.7048C35.1219 24.7373 34.4743 24.7258 33.8305 24.7029C33.5924 24.1127 33.7571 23.4489 33.719 22.8281Z" fill="black" fill-opacity="0.2"/>
<path d="M57.0809 22.8337C57.6571 22.8147 58.2333 22.8261 58.8104 22.8242C58.9866 22.8156 59.2 22.8623 59.279 23.0416C59.2962 23.2962 59.2962 23.5528 59.28 23.8074C59.2019 24.0877 58.8457 24.0057 58.6276 24.042C58.8838 24.267 59.2085 24.4253 59.399 24.7171C59.1885 24.7133 58.9695 24.7524 58.7666 24.6933C58.4828 24.4987 58.2447 24.246 57.9809 24.0257C57.8828 24.0277 57.6866 24.0315 57.5876 24.0334C57.5857 24.2575 57.5866 24.4825 57.5914 24.7076C57.42 24.7181 57.2485 24.7162 57.0781 24.7028C57.0838 24.0801 57.079 23.4564 57.0809 22.8337ZM57.5904 23.178C57.5885 23.3449 57.5876 23.5127 57.5895 23.6805C57.9895 23.6786 58.3895 23.6777 58.7904 23.6796C58.8257 23.5156 58.8285 23.3496 58.7876 23.1875C58.3885 23.177 57.9895 23.178 57.5904 23.178Z" fill="#A1AEB7"/>
<path d="M57.0809 22.8337C57.6571 22.8147 58.2333 22.8261 58.8104 22.8242C58.9866 22.8156 59.2 22.8623 59.279 23.0416C59.2962 23.2962 59.2962 23.5528 59.28 23.8074C59.2019 24.0877 58.8457 24.0057 58.6276 24.042C58.8838 24.267 59.2085 24.4253 59.399 24.7171C59.1885 24.7133 58.9695 24.7524 58.7666 24.6933C58.4828 24.4987 58.2447 24.246 57.9809 24.0257C57.8828 24.0277 57.6866 24.0315 57.5876 24.0334C57.5857 24.2575 57.5866 24.4825 57.5914 24.7076C57.42 24.7181 57.2485 24.7162 57.0781 24.7028C57.0838 24.0801 57.079 23.4564 57.0809 22.8337ZM57.5904 23.178C57.5885 23.3449 57.5876 23.5127 57.5895 23.6805C57.9895 23.6786 58.3895 23.6777 58.7904 23.6796C58.8257 23.5156 58.8285 23.3496 58.7876 23.1875C58.3885 23.177 57.9895 23.178 57.5904 23.178Z" fill="black" fill-opacity="0.2"/>
<path d="M60.3143 22.8385C60.8924 22.8051 61.4733 22.8289 62.0533 22.827C62.2457 22.8175 62.4952 22.9119 62.5038 23.137C62.5314 23.5518 62.5229 23.9685 62.5105 24.3843C62.5086 24.5311 62.4229 24.7257 62.2457 24.7085C61.5362 24.7323 60.8248 24.7266 60.1152 24.7047C59.9162 24.3442 60.0219 23.9161 59.9952 23.5241C59.9943 23.2705 59.9648 22.8604 60.3143 22.8385ZM60.4552 23.1799C60.541 23.5632 60.4905 23.9571 60.5029 24.3461C61.0076 24.3528 61.5133 24.369 62.0181 24.3366C62.0038 23.9628 62.0095 23.5899 62.0067 23.2161C61.4895 23.1875 60.9667 23.2562 60.4552 23.1799Z" fill="#A1AEB7"/>
<path d="M60.3143 22.8385C60.8924 22.8051 61.4733 22.8289 62.0533 22.827C62.2457 22.8175 62.4952 22.9119 62.5038 23.137C62.5314 23.5518 62.5229 23.9685 62.5105 24.3843C62.5086 24.5311 62.4229 24.7257 62.2457 24.7085C61.5362 24.7323 60.8248 24.7266 60.1152 24.7047C59.9162 24.3442 60.0219 23.9161 59.9952 23.5241C59.9943 23.2705 59.9648 22.8604 60.3143 22.8385ZM60.4552 23.1799C60.541 23.5632 60.4905 23.9571 60.5029 24.3461C61.0076 24.3528 61.5133 24.369 62.0181 24.3366C62.0038 23.9628 62.0095 23.5899 62.0067 23.2161C61.4895 23.1875 60.9667 23.2562 60.4552 23.1799Z" fill="black" fill-opacity="0.2"/>
<path d="M71.5191 22.8308C72.0771 22.8156 72.6362 22.8242 73.1952 22.827C73.3829 22.8213 73.6267 22.9024 73.6314 23.1264C73.661 23.5975 73.6971 24.0858 73.6048 24.5502C73.5752 24.7504 73.3333 24.7018 73.1895 24.7199C72.5867 24.7133 71.9838 24.74 71.3829 24.7056C71.2114 24.7142 71.1324 24.5159 71.141 24.3728C71.1286 23.9618 71.1219 23.5508 71.1467 23.1408C71.1343 22.9415 71.3495 22.8385 71.5191 22.8308ZM71.64 23.217C71.6343 23.5928 71.6352 23.9694 71.6381 24.3461C72.1429 24.3595 72.6476 24.3509 73.1533 24.3518C73.1533 23.9723 73.1552 23.5937 73.1495 23.2142C72.6457 23.2123 72.1429 23.2085 71.64 23.217Z" fill="#A1AEB7"/>
<path d="M71.5191 22.8308C72.0771 22.8156 72.6362 22.8242 73.1952 22.827C73.3829 22.8213 73.6267 22.9024 73.6314 23.1264C73.661 23.5975 73.6971 24.0858 73.6048 24.5502C73.5752 24.7504 73.3333 24.7018 73.1895 24.7199C72.5867 24.7133 71.9838 24.74 71.3829 24.7056C71.2114 24.7142 71.1324 24.5159 71.141 24.3728C71.1286 23.9618 71.1219 23.5508 71.1467 23.1408C71.1343 22.9415 71.3495 22.8385 71.5191 22.8308ZM71.64 23.217C71.6343 23.5928 71.6352 23.9694 71.6381 24.3461C72.1429 24.3595 72.6476 24.3509 73.1533 24.3518C73.1533 23.9723 73.1552 23.5937 73.1495 23.2142C72.6457 23.2123 72.1429 23.2085 71.64 23.217Z" fill="black" fill-opacity="0.2"/>
<path d="M76.6924 22.8251C76.8162 22.8232 76.941 22.8213 77.0667 22.8203C77.1295 23.4497 77.1191 24.0877 77.0753 24.7189C76.9267 24.7199 76.7791 24.7218 76.6324 24.7228C76.5972 24.3184 76.62 23.9122 76.6124 23.506C76.2857 23.8369 76.0743 24.2755 75.7029 24.5568C75.4124 24.2173 75.14 23.8636 74.8362 23.5365C74.8305 23.9236 74.8305 24.3108 74.8381 24.698C74.7057 24.7104 74.5733 24.7199 74.4419 24.7323C74.3895 24.1001 74.4276 23.465 74.42 22.8308C74.5505 22.8279 74.6819 22.8251 74.8133 22.8232C75.1391 23.1884 75.4391 23.5756 75.761 23.9437C76.0686 23.5689 76.3753 23.1922 76.6924 22.8251Z" fill="#A1AEB7"/>
<path d="M76.6924 22.8251C76.8162 22.8232 76.941 22.8213 77.0667 22.8203C77.1295 23.4497 77.1191 24.0877 77.0753 24.7189C76.9267 24.7199 76.7791 24.7218 76.6324 24.7228C76.5972 24.3184 76.62 23.9122 76.6124 23.506C76.2857 23.8369 76.0743 24.2755 75.7029 24.5568C75.4124 24.2173 75.14 23.8636 74.8362 23.5365C74.8305 23.9236 74.8305 24.3108 74.8381 24.698C74.7057 24.7104 74.5733 24.7199 74.4419 24.7323C74.3895 24.1001 74.4276 23.465 74.42 22.8308C74.5505 22.8279 74.6819 22.8251 74.8133 22.8232C75.1391 23.1884 75.4391 23.5756 75.761 23.9437C76.0686 23.5689 76.3753 23.1922 76.6924 22.8251Z" fill="black" fill-opacity="0.2"/>
<path d="M81.3676 22.8272C81.5162 22.8243 81.6657 22.8215 81.8162 22.8186C82.22 23.4385 82.601 24.0736 82.9762 24.7115C82.7914 24.7153 82.6095 24.7172 82.4276 24.7153C82.3514 24.5885 82.2762 24.4645 82.201 24.3396C81.7838 24.3396 81.3676 24.3358 80.9514 24.3434C80.8771 24.4712 80.7991 24.5961 80.7257 24.7239C80.5638 24.7201 80.4029 24.7163 80.2429 24.7115C80.6 24.0726 80.9933 23.4556 81.3676 22.8272ZM81.1876 23.9668C81.4562 23.9668 81.7248 23.9648 81.9943 23.9582C81.8543 23.7188 81.7162 23.4785 81.5933 23.2315C81.4343 23.4623 81.2981 23.7093 81.1876 23.9668Z" fill="#A1AEB7"/>
<path d="M81.3676 22.8272C81.5162 22.8243 81.6657 22.8215 81.8162 22.8186C82.22 23.4385 82.601 24.0736 82.9762 24.7115C82.7914 24.7153 82.6095 24.7172 82.4276 24.7153C82.3514 24.5885 82.2762 24.4645 82.201 24.3396C81.7838 24.3396 81.3676 24.3358 80.9514 24.3434C80.8771 24.4712 80.7991 24.5961 80.7257 24.7239C80.5638 24.7201 80.4029 24.7163 80.2429 24.7115C80.6 24.0726 80.9933 23.4556 81.3676 22.8272ZM81.1876 23.9668C81.4562 23.9668 81.7248 23.9648 81.9943 23.9582C81.8543 23.7188 81.7162 23.4785 81.5933 23.2315C81.4343 23.4623 81.2981 23.7093 81.1876 23.9668Z" fill="black" fill-opacity="0.2"/>
<path d="M83.4486 22.8272C83.5571 22.8262 83.6676 22.8253 83.78 22.8243C84.3162 23.2267 84.8409 23.6454 85.3781 24.0478C85.3886 23.6387 85.3581 23.2267 85.4086 22.8186C85.5467 22.8215 85.6857 22.8234 85.8267 22.8253C85.8962 23.4499 85.8333 24.0793 85.8638 24.7068C85.439 24.8298 85.1543 24.4655 84.8495 24.2423C84.5267 23.9811 84.1848 23.7427 83.8848 23.4547C83.899 23.8752 83.8971 24.2967 83.8933 24.7172C83.7428 24.7182 83.5933 24.7192 83.4448 24.7192C83.4362 24.0888 83.4314 23.4575 83.4486 22.8272Z" fill="#A1AEB7"/>
<path d="M83.4486 22.8272C83.5571 22.8262 83.6676 22.8253 83.78 22.8243C84.3162 23.2267 84.8409 23.6454 85.3781 24.0478C85.3886 23.6387 85.3581 23.2267 85.4086 22.8186C85.5467 22.8215 85.6857 22.8234 85.8267 22.8253C85.8962 23.4499 85.8333 24.0793 85.8638 24.7068C85.439 24.8298 85.1543 24.4655 84.8495 24.2423C84.5267 23.9811 84.1848 23.7427 83.8848 23.4547C83.899 23.8752 83.8971 24.2967 83.8933 24.7172C83.7428 24.7182 83.5933 24.7192 83.4448 24.7192C83.4362 24.0888 83.4314 23.4575 83.4486 22.8272Z" fill="black" fill-opacity="0.2"/>
<path d="M88.3791 22.8193C88.5543 22.8212 88.7315 22.8279 88.9076 22.846C88.6124 23.238 88.2076 23.5307 87.8991 23.9093C87.8724 24.1725 87.8915 24.4386 87.8962 24.7037C87.7305 24.7142 87.5657 24.7218 87.4029 24.7285C87.381 24.4462 87.381 24.162 87.3829 23.8788C87.041 23.5307 86.6677 23.2122 86.3648 22.8298C86.5724 22.827 86.7858 22.8022 86.9934 22.8451C87.2553 23.0396 87.4362 23.3219 87.7 23.5174C87.9191 23.2771 88.1467 23.0463 88.3791 22.8193Z" fill="#A1AEB7"/>
<path d="M88.3791 22.8193C88.5543 22.8212 88.7315 22.8279 88.9076 22.846C88.6124 23.238 88.2076 23.5307 87.8991 23.9093C87.8724 24.1725 87.8915 24.4386 87.8962 24.7037C87.7305 24.7142 87.5657 24.7218 87.4029 24.7285C87.381 24.4462 87.381 24.162 87.3829 23.8788C87.041 23.5307 86.6677 23.2122 86.3648 22.8298C86.5724 22.827 86.7858 22.8022 86.9934 22.8451C87.2553 23.0396 87.4362 23.3219 87.7 23.5174C87.9191 23.2771 88.1467 23.0463 88.3791 22.8193Z" fill="black" fill-opacity="0.2"/>
<path d="M6.46954 22.8241C7.16288 22.8251 7.85621 22.8212 8.5505 22.827C8.55145 22.9166 8.55526 23.0959 8.55621 23.1865C8.02954 23.2046 7.50192 23.1855 6.97431 23.2008C6.97335 23.3238 6.9724 23.4478 6.97145 23.5717C7.27621 23.5755 7.58002 23.5765 7.88478 23.5765C7.88383 23.6652 7.88097 23.8426 7.87907 23.9312C7.57907 23.9303 7.28002 23.9303 6.98002 23.937C6.9705 24.0724 6.96192 24.2087 6.95431 24.3461C7.48954 24.3737 8.02669 24.3537 8.56288 24.3575C8.56288 24.4796 8.56573 24.6016 8.56478 24.7246C7.86383 24.7161 7.16192 24.7313 6.46002 24.7161C6.45907 24.0848 6.44573 23.4544 6.46954 22.8241Z" fill="#A1AEB7"/>
<path d="M6.46954 22.8241C7.16288 22.8251 7.85621 22.8212 8.5505 22.827C8.55145 22.9166 8.55526 23.0959 8.55621 23.1865C8.02954 23.2046 7.50192 23.1855 6.97431 23.2008C6.97335 23.3238 6.9724 23.4478 6.97145 23.5717C7.27621 23.5755 7.58002 23.5765 7.88478 23.5765C7.88383 23.6652 7.88097 23.8426 7.87907 23.9312C7.57907 23.9303 7.28002 23.9303 6.98002 23.937C6.9705 24.0724 6.96192 24.2087 6.95431 24.3461C7.48954 24.3737 8.02669 24.3537 8.56288 24.3575C8.56288 24.4796 8.56573 24.6016 8.56478 24.7246C7.86383 24.7161 7.16192 24.7313 6.46002 24.7161C6.45907 24.0848 6.44573 23.4544 6.46954 22.8241Z" fill="black" fill-opacity="0.2"/>
<path d="M22.799 22.9061C22.8171 22.8861 22.8552 22.848 22.8743 22.8279C23.5476 22.8184 24.2219 22.8232 24.8962 22.8289C24.8924 22.951 24.8886 23.0721 24.8857 23.1941C24.359 23.1979 23.8324 23.1856 23.3057 23.2037C23.3086 23.3276 23.3124 23.4516 23.3162 23.5765C23.6209 23.5756 23.9257 23.5746 24.2305 23.5775C24.2314 23.6652 24.2324 23.8416 24.2324 23.9303C23.9257 23.9313 23.62 23.9313 23.3133 23.9322C23.3114 24.0743 23.3105 24.2154 23.3095 24.3585C23.8524 24.3861 24.4048 24.3022 24.9409 24.4081C24.9352 24.5073 24.9314 24.6074 24.9276 24.7075C24.2152 24.7275 23.5009 24.739 22.7905 24.7018C22.8028 24.1029 22.779 23.5041 22.799 22.9061Z" fill="#A1AEB7"/>
<path d="M22.799 22.9061C22.8171 22.8861 22.8552 22.848 22.8743 22.8279C23.5476 22.8184 24.2219 22.8232 24.8962 22.8289C24.8924 22.951 24.8886 23.0721 24.8857 23.1941C24.359 23.1979 23.8324 23.1856 23.3057 23.2037C23.3086 23.3276 23.3124 23.4516 23.3162 23.5765C23.6209 23.5756 23.9257 23.5746 24.2305 23.5775C24.2314 23.6652 24.2324 23.8416 24.2324 23.9303C23.9257 23.9313 23.62 23.9313 23.3133 23.9322C23.3114 24.0743 23.3105 24.2154 23.3095 24.3585C23.8524 24.3861 24.4048 24.3022 24.9409 24.4081C24.9352 24.5073 24.9314 24.6074 24.9276 24.7075C24.2152 24.7275 23.5009 24.739 22.7905 24.7018C22.8028 24.1029 22.779 23.5041 22.799 22.9061Z" fill="black" fill-opacity="0.2"/>
<path d="M25.5609 22.828C26.1047 22.8204 26.6495 22.8251 27.1933 22.8223C27.3609 22.827 27.5581 22.8099 27.6809 22.951C27.8285 23.0626 27.7695 23.2666 27.7885 23.4249C27.7762 23.5899 27.82 23.7883 27.6895 23.918C27.5295 24.0648 27.2924 24.0133 27.0952 24.0429C27.38 24.2584 27.66 24.4787 27.9362 24.7047C27.6581 24.6961 27.3133 24.8163 27.0943 24.5903C26.8771 24.4024 26.6666 24.2079 26.4457 24.0248C26.3133 24.0286 26.18 24.0314 26.0485 24.0343C26.0505 24.2651 26.0533 24.4968 26.0352 24.7276C25.8828 24.7247 25.7314 24.7228 25.58 24.7218C25.5352 24.0915 25.5676 23.4593 25.5609 22.828ZM26.0581 23.1722C26.0524 23.341 26.0495 23.5089 26.0476 23.6786C26.4619 23.6748 26.8781 23.6958 27.2914 23.6557C27.2933 23.5098 27.2943 23.3639 27.2943 23.219C26.8857 23.1474 26.4695 23.1923 26.0581 23.1722Z" fill="#A1AEB7"/>
<path d="M25.5609 22.828C26.1047 22.8204 26.6495 22.8251 27.1933 22.8223C27.3609 22.827 27.5581 22.8099 27.6809 22.951C27.8285 23.0626 27.7695 23.2666 27.7885 23.4249C27.7762 23.5899 27.82 23.7883 27.6895 23.918C27.5295 24.0648 27.2924 24.0133 27.0952 24.0429C27.38 24.2584 27.66 24.4787 27.9362 24.7047C27.6581 24.6961 27.3133 24.8163 27.0943 24.5903C26.8771 24.4024 26.6666 24.2079 26.4457 24.0248C26.3133 24.0286 26.18 24.0314 26.0485 24.0343C26.0505 24.2651 26.0533 24.4968 26.0352 24.7276C25.8828 24.7247 25.7314 24.7228 25.58 24.7218C25.5352 24.0915 25.5676 23.4593 25.5609 22.828ZM26.0581 23.1722C26.0524 23.341 26.0495 23.5089 26.0476 23.6786C26.4619 23.6748 26.8781 23.6958 27.2914 23.6557C27.2933 23.5098 27.2943 23.3639 27.2943 23.219C26.8857 23.1474 26.4695 23.1923 26.0581 23.1722Z" fill="black" fill-opacity="0.2"/>
<path d="M30.781 22.826C31.5638 22.8222 32.3467 22.8241 33.1296 22.8251C33.1353 22.9137 33.1476 23.0921 33.1534 23.1817C32.8438 23.2103 32.5324 23.2027 32.2219 23.2036C32.1962 23.7129 32.2476 24.225 32.1905 24.7323C32.0315 24.7256 31.8724 24.7199 31.7143 24.7132C31.7086 24.2107 31.7162 23.7081 31.7086 23.2046C31.3972 23.2027 31.0857 23.2017 30.7753 23.1941C30.7772 23.1016 30.7791 22.9176 30.781 22.826Z" fill="#A1AEB7"/>
<path d="M30.781 22.826C31.5638 22.8222 32.3467 22.8241 33.1296 22.8251C33.1353 22.9137 33.1476 23.0921 33.1534 23.1817C32.8438 23.2103 32.5324 23.2027 32.2219 23.2036C32.1962 23.7129 32.2476 24.225 32.1905 24.7323C32.0315 24.7256 31.8724 24.7199 31.7143 24.7132C31.7086 24.2107 31.7162 23.7081 31.7086 23.2046C31.3972 23.2027 31.0857 23.2017 30.7753 23.1941C30.7772 23.1016 30.7791 22.9176 30.781 22.826Z" fill="black" fill-opacity="0.2"/>
<path d="M36.8257 24.701C36.8534 24.0735 36.7981 23.4432 36.8581 22.8176C37.5067 22.8453 38.1591 22.7919 38.8067 22.8462C39.101 22.9359 39.041 23.283 39.0476 23.5233C39.0581 23.6969 39.0134 23.8637 38.9095 24.0039C38.7248 24.0163 38.54 24.0297 38.3553 24.0392C38.6438 24.2499 38.9343 24.4597 39.1934 24.7086C38.9134 24.6991 38.5648 24.8154 38.3524 24.5751C38.0476 24.3243 37.7781 23.9162 37.3229 24.0287C37.321 24.2604 37.32 24.4912 37.3181 24.7229C37.1534 24.7191 36.9886 24.7134 36.8257 24.701ZM37.3229 23.181C37.3219 23.3459 37.321 23.5109 37.321 23.6759C37.72 23.6682 38.1219 23.7073 38.5181 23.6568C38.621 23.5529 38.5657 23.3793 38.5953 23.2477C38.1857 23.1123 37.7457 23.2038 37.3229 23.181Z" fill="#A1AEB7"/>
<path d="M36.8257 24.701C36.8534 24.0735 36.7981 23.4432 36.8581 22.8176C37.5067 22.8453 38.1591 22.7919 38.8067 22.8462C39.101 22.9359 39.041 23.283 39.0476 23.5233C39.0581 23.6969 39.0134 23.8637 38.9095 24.0039C38.7248 24.0163 38.54 24.0297 38.3553 24.0392C38.6438 24.2499 38.9343 24.4597 39.1934 24.7086C38.9134 24.6991 38.5648 24.8154 38.3524 24.5751C38.0476 24.3243 37.7781 23.9162 37.3229 24.0287C37.321 24.2604 37.32 24.4912 37.3181 24.7229C37.1534 24.7191 36.9886 24.7134 36.8257 24.701ZM37.3229 23.181C37.3219 23.3459 37.321 23.5109 37.321 23.6759C37.72 23.6682 38.1219 23.7073 38.5181 23.6568C38.621 23.5529 38.5657 23.3793 38.5953 23.2477C38.1857 23.1123 37.7457 23.2038 37.3229 23.181Z" fill="black" fill-opacity="0.2"/>
<path d="M39.7924 22.8634C40.4667 22.7709 41.18 22.8491 41.8686 22.8262C41.8695 22.9168 41.8705 23.0989 41.8705 23.1895C41.3457 23.2019 40.821 23.1885 40.2962 23.199C40.2933 23.322 40.2914 23.446 40.2905 23.5709C40.5991 23.5757 40.9076 23.5767 41.2171 23.5795C41.2162 23.6663 41.2162 23.8379 41.2162 23.9247C40.9086 23.9324 40.6019 23.9333 40.2952 23.9333C40.2933 24.0392 40.2905 24.2509 40.2895 24.3567C40.82 24.3615 41.3505 24.3586 41.8819 24.3596C41.8857 24.4492 41.8943 24.6294 41.8981 24.7191C41.1905 24.7134 40.481 24.7458 39.7743 24.7019C39.7952 24.0887 39.7571 23.4746 39.7924 22.8634Z" fill="#A1AEB7"/>
<path d="M39.7924 22.8634C40.4667 22.7709 41.18 22.8491 41.8686 22.8262C41.8695 22.9168 41.8705 23.0989 41.8705 23.1895C41.3457 23.2019 40.821 23.1885 40.2962 23.199C40.2933 23.322 40.2914 23.446 40.2905 23.5709C40.5991 23.5757 40.9076 23.5767 41.2171 23.5795C41.2162 23.6663 41.2162 23.8379 41.2162 23.9247C40.9086 23.9324 40.6019 23.9333 40.2952 23.9333C40.2933 24.0392 40.2905 24.2509 40.2895 24.3567C40.82 24.3615 41.3505 24.3586 41.8819 24.3596C41.8857 24.4492 41.8943 24.6294 41.8981 24.7191C41.1905 24.7134 40.481 24.7458 39.7743 24.7019C39.7952 24.0887 39.7571 23.4746 39.7924 22.8634Z" fill="black" fill-opacity="0.2"/>
<path d="M47.9181 23.0493C48.0486 22.7489 48.4467 22.8414 48.7105 22.8224C49.2524 22.8634 49.821 22.7289 50.34 22.9263C50.4419 23.5004 50.4572 24.1088 50.3286 24.68C49.7296 24.7611 49.1238 24.7029 48.5219 24.722C48.2991 24.7105 47.9391 24.7782 47.9048 24.4683C47.8781 23.9972 47.86 23.5175 47.9181 23.0493ZM48.3991 23.2153C48.3924 23.5929 48.3943 23.9705 48.3953 24.3481C48.8981 24.3558 49.4 24.3548 49.9029 24.3491C49.9048 23.9715 49.9057 23.5929 49.901 23.2153C49.4 23.2105 48.8991 23.2105 48.3991 23.2153Z" fill="#A1AEB7"/>
<path d="M47.9181 23.0493C48.0486 22.7489 48.4467 22.8414 48.7105 22.8224C49.2524 22.8634 49.821 22.7289 50.34 22.9263C50.4419 23.5004 50.4572 24.1088 50.3286 24.68C49.7296 24.7611 49.1238 24.7029 48.5219 24.722C48.2991 24.7105 47.9391 24.7782 47.9048 24.4683C47.8781 23.9972 47.86 23.5175 47.9181 23.0493ZM48.3991 23.2153C48.3924 23.5929 48.3943 23.9705 48.3953 24.3481C48.8981 24.3558 49.4 24.3548 49.9029 24.3491C49.9048 23.9715 49.9057 23.5929 49.901 23.2153C49.4 23.2105 48.8991 23.2105 48.3991 23.2153Z" fill="black" fill-opacity="0.2"/>
<path d="M51.1733 22.8241C51.3495 22.8203 51.5409 22.807 51.6809 22.9405C52.1628 23.3124 52.6381 23.6957 53.1314 24.0543C53.1352 23.6423 53.1267 23.2313 53.1447 22.8203C53.2914 22.8232 53.44 22.826 53.5886 22.8298C53.5962 23.4573 53.5905 24.0848 53.5924 24.7113C53.46 24.7142 53.3286 24.7161 53.1971 24.718C52.68 24.3175 52.1705 23.9065 51.6505 23.5088C51.6352 23.9131 51.6505 24.3184 51.6343 24.7228C51.4781 24.717 51.3228 24.7113 51.1676 24.7018C51.1762 24.0762 51.1676 23.4497 51.1733 22.8241Z" fill="#A1AEB7"/>
<path d="M51.1733 22.8241C51.3495 22.8203 51.5409 22.807 51.6809 22.9405C52.1628 23.3124 52.6381 23.6957 53.1314 24.0543C53.1352 23.6423 53.1267 23.2313 53.1447 22.8203C53.2914 22.8232 53.44 22.826 53.5886 22.8298C53.5962 23.4573 53.5905 24.0848 53.5924 24.7113C53.46 24.7142 53.3286 24.7161 53.1971 24.718C52.68 24.3175 52.1705 23.9065 51.6505 23.5088C51.6352 23.9131 51.6505 24.3184 51.6343 24.7228C51.4781 24.717 51.3228 24.7113 51.1676 24.7018C51.1762 24.0762 51.1676 23.4497 51.1733 22.8241Z" fill="black" fill-opacity="0.2"/>
<path d="M54.1734 22.8242C54.9524 22.8242 55.7324 22.8242 56.5124 22.8242C56.5143 22.9177 56.5162 23.1036 56.5181 23.1961C56.2124 23.2028 55.9076 23.2028 55.6029 23.2009C55.5876 23.7006 55.5924 24.2012 55.5991 24.7009C55.4362 24.6952 55.221 24.7887 55.0934 24.6675C55.0572 24.1774 55.1038 23.6844 55.0686 23.1933C54.7657 23.2038 54.4629 23.2038 54.16 23.1971C54.1638 23.1036 54.1696 22.9177 54.1734 22.8242Z" fill="#A1AEB7"/>
<path d="M54.1734 22.8242C54.9524 22.8242 55.7324 22.8242 56.5124 22.8242C56.5143 22.9177 56.5162 23.1036 56.5181 23.1961C56.2124 23.2028 55.9076 23.2028 55.6029 23.2009C55.5876 23.7006 55.5924 24.2012 55.5991 24.7009C55.4362 24.6952 55.221 24.7887 55.0934 24.6675C55.0572 24.1774 55.1038 23.6844 55.0686 23.1933C54.7657 23.2038 54.4629 23.2038 54.16 23.1971C54.1638 23.1036 54.1696 22.9177 54.1734 22.8242Z" fill="black" fill-opacity="0.2"/>
<path d="M63.2981 22.829C63.46 22.8271 63.6238 22.8262 63.7876 22.8262C63.7952 23.3364 63.7905 23.8465 63.7914 24.3558C64.28 24.3596 64.7676 24.3653 65.2562 24.3529C65.2724 24.4721 65.399 24.7305 65.181 24.7181C64.5638 24.721 63.9448 24.7363 63.3295 24.7095L63.2857 24.6705C63.2686 24.0573 63.2619 23.4422 63.2981 22.829Z" fill="#A1AEB7"/>
<path d="M63.2981 22.829C63.46 22.8271 63.6238 22.8262 63.7876 22.8262C63.7952 23.3364 63.7905 23.8465 63.7914 24.3558C64.28 24.3596 64.7676 24.3653 65.2562 24.3529C65.2724 24.4721 65.399 24.7305 65.181 24.7181C64.5638 24.721 63.9448 24.7363 63.3295 24.7095L63.2857 24.6705C63.2686 24.0573 63.2619 23.4422 63.2981 22.829Z" fill="black" fill-opacity="0.2"/>
<path d="M77.9172 22.8261C78.5343 22.829 79.1514 22.8109 79.7676 22.8328C79.9391 22.8318 80.1095 22.9606 80.1114 23.1418C80.1257 23.3983 80.1676 23.6834 80.0343 23.917C79.9057 24.0248 79.7305 23.9952 79.5781 24.001C79.1886 23.9962 78.7991 23.9981 78.4105 24C78.4114 24.2422 78.4095 24.4844 78.3953 24.7267C78.2314 24.72 78.0686 24.7143 77.9067 24.7057C77.9181 24.0792 77.9019 23.4526 77.9172 22.8261ZM78.4114 23.1856C78.4095 23.3401 78.4095 23.4955 78.4095 23.651C78.821 23.6491 79.2362 23.692 79.6438 23.6186C79.6457 23.4908 79.6457 23.3649 79.6486 23.2381C79.2457 23.1255 78.8229 23.1952 78.4114 23.1856Z" fill="#A1AEB7"/>
<path d="M77.9172 22.8261C78.5343 22.829 79.1514 22.8109 79.7676 22.8328C79.9391 22.8318 80.1095 22.9606 80.1114 23.1418C80.1257 23.3983 80.1676 23.6834 80.0343 23.917C79.9057 24.0248 79.7305 23.9952 79.5781 24.001C79.1886 23.9962 78.7991 23.9981 78.4105 24C78.4114 24.2422 78.4095 24.4844 78.3953 24.7267C78.2314 24.72 78.0686 24.7143 77.9067 24.7057C77.9181 24.0792 77.9019 23.4526 77.9172 22.8261ZM78.4114 23.1856C78.4095 23.3401 78.4095 23.4955 78.4095 23.651C78.821 23.6491 79.2362 23.692 79.6438 23.6186C79.6457 23.4908 79.6457 23.3649 79.6486 23.2381C79.2457 23.1255 78.8229 23.1952 78.4114 23.1856Z" fill="black" fill-opacity="0.2"/>
</svg>
