<svg width="79" height="20" viewBox="0 0 79 20" fill="none" xmlns="http://www.w3.org/2000/svg">
<g clip-path="url(#clip0_154_8610)">
<path d="M17.1259 0H21.5152C18.5282 2.05913 15.4809 4.03304 12.4903 6.08696C14.6849 8.29739 16.9469 10.4452 19.1008 12.6922C17.5443 12.6887 15.9701 12.7791 14.4243 12.6522C12.2385 10.4626 10.1538 8.17043 7.9574 5.98956C8.34385 5.61739 8.83135 5.37739 9.27453 5.08C11.8875 3.38087 14.5289 1.72348 17.1259 0Z" fill="#A1AEB7"/>
<path d="M17.1259 0H21.5152C18.5282 2.05913 15.4809 4.03304 12.4903 6.08696C14.6849 8.29739 16.9469 10.4452 19.1008 12.6922C17.5443 12.6887 15.9701 12.7791 14.4243 12.6522C12.2385 10.4626 10.1538 8.17043 7.9574 5.98956C8.34385 5.61739 8.83135 5.37739 9.27453 5.08C11.8875 3.38087 14.5289 1.72348 17.1259 0Z" fill="black" fill-opacity="0.2"/>
<path d="M25.5995 0H39.0811C38.8684 0.928696 38.6273 1.8487 38.3685 2.76522C35.057 2.77391 31.7473 2.76696 28.4376 2.80348C28.3011 3.49217 28.0565 4.15478 27.9537 4.85043C29.7849 4.81217 31.6161 4.84174 33.4474 4.83478C33.263 5.72 32.9865 6.58261 32.7755 7.46087C30.9141 7.49043 29.051 7.43652 27.1896 7.49043C27.0248 8.28696 26.7376 9.05565 26.6259 9.86435C29.9055 9.82087 33.185 9.85391 36.4663 9.84696C36.2678 10.7948 35.9576 11.7165 35.759 12.6643C35.3087 12.7026 34.8585 12.72 34.4082 12.713C30.3362 12.6904 26.2625 12.7374 22.1906 12.6887C23.3322 8.46087 24.4437 4.22435 25.5995 0Z" fill="#A1AEB7"/>
<path d="M25.5995 0H39.0811C38.8684 0.928696 38.6273 1.8487 38.3685 2.76522C35.057 2.77391 31.7473 2.76696 28.4376 2.80348C28.3011 3.49217 28.0565 4.15478 27.9537 4.85043C29.7849 4.81217 31.6161 4.84174 33.4474 4.83478C33.263 5.72 32.9865 6.58261 32.7755 7.46087C30.9141 7.49043 29.051 7.43652 27.1896 7.49043C27.0248 8.28696 26.7376 9.05565 26.6259 9.86435C29.9055 9.82087 33.185 9.85391 36.4663 9.84696C36.2678 10.7948 35.9576 11.7165 35.759 12.6643C35.3087 12.7026 34.8585 12.72 34.4082 12.713C30.3362 12.6904 26.2625 12.7374 22.1906 12.6887C23.3322 8.46087 24.4437 4.22435 25.5995 0Z" fill="black" fill-opacity="0.2"/>
<path d="M43.4385 0H55.0587C55.9504 0.226087 56.8208 0.93913 56.7871 1.91478C56.7109 2.74261 56.4202 3.53217 56.2145 4.33565C55.8848 5.38956 55.7182 6.57913 54.8903 7.39304C53.9649 8.21739 52.6265 8.2313 51.4477 8.21913C52.935 9.67304 54.3213 11.2278 55.8476 12.6417C54.2131 12.7652 52.5592 12.7235 50.9229 12.6696C49.7193 11.3026 48.5546 9.89739 47.3633 8.51826C47.2233 8.3687 47.0832 8.15826 46.8421 8.20174C46.1508 8.17565 45.4594 8.20522 44.768 8.22087C44.3922 9.7113 43.9792 11.193 43.5998 12.6817C42.4121 12.7374 41.2226 12.7009 40.0331 12.7043C41.1517 8.46609 42.2756 4.22783 43.4385 0ZM46.1933 2.81913C46.0479 3.74435 45.6757 4.61565 45.525 5.53913C47.5565 5.51652 49.5881 5.51304 51.6196 5.50783C52.0061 5.53043 52.4776 5.38783 52.5875 4.97565C52.7542 4.37217 52.9155 3.76 52.9811 3.13739C52.919 2.77391 52.4315 2.78783 52.1426 2.78261C50.1607 2.80522 48.1752 2.73565 46.1933 2.81913Z" fill="#A1AEB7"/>
<path d="M43.4385 0H55.0587C55.9504 0.226087 56.8208 0.93913 56.7871 1.91478C56.7109 2.74261 56.4202 3.53217 56.2145 4.33565C55.8848 5.38956 55.7182 6.57913 54.8903 7.39304C53.9649 8.21739 52.6265 8.2313 51.4477 8.21913C52.935 9.67304 54.3213 11.2278 55.8476 12.6417C54.2131 12.7652 52.5592 12.7235 50.9229 12.6696C49.7193 11.3026 48.5546 9.89739 47.3633 8.51826C47.2233 8.3687 47.0832 8.15826 46.8421 8.20174C46.1508 8.17565 45.4594 8.20522 44.768 8.22087C44.3922 9.7113 43.9792 11.193 43.5998 12.6817C42.4121 12.7374 41.2226 12.7009 40.0331 12.7043C41.1517 8.46609 42.2756 4.22783 43.4385 0ZM46.1933 2.81913C46.0479 3.74435 45.6757 4.61565 45.525 5.53913C47.5565 5.51652 49.5881 5.51304 51.6196 5.50783C52.0061 5.53043 52.4776 5.38783 52.5875 4.97565C52.7542 4.37217 52.9155 3.76 52.9811 3.13739C52.919 2.77391 52.4315 2.78783 52.1426 2.78261C50.1607 2.80522 48.1752 2.73565 46.1933 2.81913Z" fill="black" fill-opacity="0.2"/>
<path d="M62.779 0H62.9172C63.7504 0.08 64.5889 -0.0156522 65.4221 0.0626087C67.9961 2.66087 70.4655 5.36696 73.02 7.98783C73.7486 5.34609 74.4152 2.68696 75.1367 0.0434783C76.2092 0.0208696 77.2817 0.0434783 78.3542 0.0278261C77.2657 4.25739 76.1063 8.46957 74.9895 12.6922C74.2468 12.6887 73.4898 12.7809 72.7541 12.6591C70.2067 10.0765 67.6823 7.46435 65.158 4.85565C65.0552 5.07826 64.9701 5.30957 64.9187 5.54957C64.3815 7.9287 63.7327 10.2835 63.2098 12.6678C61.9405 12.753 60.6641 12.6957 59.3931 12.7026C60.4957 8.46261 61.6568 4.23652 62.779 0Z" fill="#A1AEB7"/>
<path d="M62.779 0H62.9172C63.7504 0.08 64.5889 -0.0156522 65.4221 0.0626087C67.9961 2.66087 70.4655 5.36696 73.02 7.98783C73.7486 5.34609 74.4152 2.68696 75.1367 0.0434783C76.2092 0.0208696 77.2817 0.0434783 78.3542 0.0278261C77.2657 4.25739 76.1063 8.46957 74.9895 12.6922C74.2468 12.6887 73.4898 12.7809 72.7541 12.6591C70.2067 10.0765 67.6823 7.46435 65.158 4.85565C65.0552 5.07826 64.9701 5.30957 64.9187 5.54957C64.3815 7.9287 63.7327 10.2835 63.2098 12.6678C61.9405 12.753 60.6641 12.6957 59.3931 12.7026C60.4957 8.46261 61.6568 4.23652 62.779 0Z" fill="black" fill-opacity="0.2"/>
<path d="M5.70597 0.165313C6.8937 0.161835 8.0832 0.175748 9.27093 0.163574C8.24984 4.34792 7.02665 8.48705 5.98784 12.6679C4.7682 12.7531 3.54502 12.6957 2.32361 12.7027C3.47765 8.53053 4.55193 4.33749 5.70597 0.165313Z" fill="#A1AEB7"/>
<path d="M5.70597 0.165313C6.8937 0.161835 8.0832 0.175748 9.27093 0.163574C8.24984 4.34792 7.02665 8.48705 5.98784 12.6679C4.7682 12.7531 3.54502 12.6957 2.32361 12.7027C3.47765 8.53053 4.55193 4.33749 5.70597 0.165313Z" fill="black" fill-opacity="0.2"/>
<path d="M1.33446 16.3912C11.9513 16.379 22.5664 16.3912 33.1815 16.386C33.7009 16.3756 34.2203 16.3843 34.7397 16.4173C34.3905 17.6069 34.1033 18.8138 33.7417 19.9999H0.380737V19.8938C0.740601 18.7373 1.03487 17.5634 1.33446 16.3912Z" fill="#A1AEB7"/>
<path d="M1.33446 16.3912C11.9513 16.379 22.5664 16.3912 33.1815 16.386C33.7009 16.3756 34.2203 16.3843 34.7397 16.4173C34.3905 17.6069 34.1033 18.8138 33.7417 19.9999H0.380737V19.8938C0.740601 18.7373 1.03487 17.5634 1.33446 16.3912Z" fill="black" fill-opacity="0.2"/>
<path d="M39.0457 16.3826C50.6872 16.3878 62.3287 16.393 73.9702 16.3809C73.6866 17.5948 73.3622 18.8 73.0236 20H38.0831C38.3827 18.7896 38.6929 17.5809 39.0457 16.3826Z" fill="#A1AEB7"/>
<path d="M39.0457 16.3826C50.6872 16.3878 62.3287 16.393 73.9702 16.3809C73.6866 17.5948 73.3622 18.8 73.0236 20H38.0831C38.3827 18.7896 38.6929 17.5809 39.0457 16.3826Z" fill="black" fill-opacity="0.2"/>
</g>
<defs>
<clipPath id="clip0_154_8610">
<rect width="78" height="20" fill="white" transform="translate(0.380737)"/>
</clipPath>
</defs>
</svg>
