<svg width="119" height="26" viewBox="0 0 119 26" fill="none" xmlns="http://www.w3.org/2000/svg">
<path d="M0.909054 0.00368406C4.68066 0.00473527 8.45122 -0.00472612 12.2228 0.00893964C12.2207 0.845705 12.2239 1.68247 12.2207 2.51924C10.902 2.53185 9.58218 2.51398 8.26343 2.5287C8.26447 6.1743 8.26447 9.81991 8.26343 13.4645C7.10204 13.4655 5.94066 13.4666 4.78033 13.4645C4.77718 9.81886 4.77928 6.1722 4.77823 2.52659C3.48885 2.51924 2.19948 2.52554 0.910103 2.52344C0.905907 1.68352 0.908005 0.843603 0.909054 0.00368406Z" fill="#A1AEB7"/>
<path d="M0.909054 0.00368406C4.68066 0.00473527 8.45122 -0.00472612 12.2228 0.00893964C12.2207 0.845705 12.2239 1.68247 12.2207 2.51924C10.902 2.53185 9.58218 2.51398 8.26343 2.5287C8.26447 6.1743 8.26447 9.81991 8.26343 13.4645C7.10204 13.4655 5.94066 13.4666 4.78033 13.4645C4.77718 9.81886 4.77928 6.1722 4.77823 2.52659C3.48885 2.51924 2.19948 2.52554 0.910103 2.52344C0.905907 1.68352 0.908005 0.843603 0.909054 0.00368406Z" fill="black" fill-opacity="0.2"/>
<path d="M12.9866 0.00489429C14.0965 0.00279186 15.2055 -0.00246433 16.3154 0.0080478C16.3207 1.68894 16.3039 3.36983 16.3238 5.05072C16.7813 4.5167 17.3772 4.06152 18.0822 3.93538C19.1963 3.6894 20.491 3.84077 21.3502 4.65125C21.9388 5.15058 22.2283 5.92112 22.2692 6.67904C22.3364 8.9381 22.1685 11.2056 22.4077 13.4583C21.2579 13.4583 20.1091 13.4625 18.9592 13.4562C18.9592 11.5851 18.9592 9.71389 18.9592 7.84274C18.9561 7.32659 18.9341 6.76524 18.6298 6.32584C18.0937 5.65516 16.8641 5.80759 16.499 6.58444C16.3469 6.87037 16.3133 7.19834 16.3144 7.51791C16.3154 9.49735 16.3154 11.4757 16.3154 13.4552C15.2055 13.4625 14.0965 13.4583 12.9866 13.4573C12.9845 8.97279 12.9855 4.48937 12.9866 0.00489429Z" fill="#A1AEB7"/>
<path d="M12.9866 0.00489429C14.0965 0.00279186 15.2055 -0.00246433 16.3154 0.0080478C16.3207 1.68894 16.3039 3.36983 16.3238 5.05072C16.7813 4.5167 17.3772 4.06152 18.0822 3.93538C19.1963 3.6894 20.491 3.84077 21.3502 4.65125C21.9388 5.15058 22.2283 5.92112 22.2692 6.67904C22.3364 8.9381 22.1685 11.2056 22.4077 13.4583C21.2579 13.4583 20.1091 13.4625 18.9592 13.4562C18.9592 11.5851 18.9592 9.71389 18.9592 7.84274C18.9561 7.32659 18.9341 6.76524 18.6298 6.32584C18.0937 5.65516 16.8641 5.80759 16.499 6.58444C16.3469 6.87037 16.3133 7.19834 16.3144 7.51791C16.3154 9.49735 16.3154 11.4757 16.3154 13.4552C15.2055 13.4625 14.0965 13.4583 12.9866 13.4573C12.9845 8.97279 12.9855 4.48937 12.9866 0.00489429Z" fill="black" fill-opacity="0.2"/>
<path d="M69.0666 0.00805642C72.0314 0.00700521 74.9962 0.0049022 77.9621 0.00910705C77.6789 0.83536 77.4753 1.68895 77.1595 2.50469C76.3055 2.48997 75.4505 2.52361 74.5986 2.48576C73.923 2.51835 73.2463 2.49523 72.5706 2.50258C72.5706 3.56536 72.5686 4.62814 72.5717 5.69091C73.7688 5.69617 74.9658 5.68671 76.1629 5.69617C75.889 6.52242 75.6582 7.36339 75.3729 8.18649C74.4381 8.18544 73.5044 8.18439 72.5706 8.18649C72.5696 9.94517 72.5696 11.7049 72.5706 13.4636C71.4019 13.4678 70.2342 13.4667 69.0655 13.4646C69.0655 8.97911 69.0634 4.49358 69.0666 0.00805642Z" fill="#A1AEB7"/>
<path d="M69.0666 0.00805642C72.0314 0.00700521 74.9962 0.0049022 77.9621 0.00910705C77.6789 0.83536 77.4753 1.68895 77.1595 2.50469C76.3055 2.48997 75.4505 2.52361 74.5986 2.48576C73.923 2.51835 73.2463 2.49523 72.5706 2.50258C72.5706 3.56536 72.5686 4.62814 72.5717 5.69091C73.7688 5.69617 74.9658 5.68671 76.1629 5.69617C75.889 6.52242 75.6582 7.36339 75.3729 8.18649C74.4381 8.18544 73.5044 8.18439 72.5706 8.18649C72.5696 9.94517 72.5696 11.7049 72.5706 13.4636C71.4019 13.4678 70.2342 13.4667 69.0655 13.4646C69.0655 8.97911 69.0634 4.49358 69.0666 0.00805642Z" fill="black" fill-opacity="0.2"/>
<path d="M79.0553 0.0154444C80.1275 -0.0139896 81.2028 0.00808549 82.2761 0.00598307C82.1124 0.834339 81.7389 1.60278 81.5585 2.42693C80.9626 2.54676 80.3478 2.41852 79.7456 2.45636C79.2567 2.50577 78.7678 2.44164 78.2789 2.45005C78.5171 1.63326 78.7605 0.810161 79.0553 0.0154444Z" fill="#A1AEB7"/>
<path d="M79.0553 0.0154444C80.1275 -0.0139896 81.2028 0.00808549 82.2761 0.00598307C82.1124 0.834339 81.7389 1.60278 81.5585 2.42693C80.9626 2.54676 80.3478 2.41852 79.7456 2.45636C79.2567 2.50577 78.7678 2.44164 78.2789 2.45005C78.5171 1.63326 78.7605 0.810161 79.0553 0.0154444Z" fill="black" fill-opacity="0.2"/>
<path d="M91.7172 0.00170898C92.8229 0.00486262 93.9277 0.000658221 95.0334 0.00381186C95.0324 1.68996 95.0376 3.3761 95.0313 5.06225C96.0931 3.73036 98.1263 3.47492 99.5793 4.27594C100.46 4.78368 101.001 5.77918 101.002 6.78939C101.008 8.50182 100.995 10.2153 101.008 11.9277C101.046 12.4397 101.11 12.9506 101.12 13.4656C99.9853 13.4667 98.8491 13.4656 97.714 13.4656C97.7098 11.6239 97.7182 9.78219 97.7108 7.94152C97.6594 7.40856 97.7045 6.81883 97.3761 6.3626C96.8715 5.6709 95.6545 5.78233 95.2548 6.52974C95.0838 6.86823 95.0376 7.25298 95.0334 7.62826C95.0345 9.573 95.0345 11.5188 95.0334 13.4635C93.9287 13.4677 92.8229 13.4656 91.7172 13.4656C91.7151 8.97802 91.7161 4.48934 91.7172 0.00170898Z" fill="#A1AEB7"/>
<path d="M91.7172 0.00170898C92.8229 0.00486262 93.9277 0.000658221 95.0334 0.00381186C95.0324 1.68996 95.0376 3.3761 95.0313 5.06225C96.0931 3.73036 98.1263 3.47492 99.5793 4.27594C100.46 4.78368 101.001 5.77918 101.002 6.78939C101.008 8.50182 100.995 10.2153 101.008 11.9277C101.046 12.4397 101.11 12.9506 101.12 13.4656C99.9853 13.4667 98.8491 13.4656 97.714 13.4656C97.7098 11.6239 97.7182 9.78219 97.7108 7.94152C97.6594 7.40856 97.7045 6.81883 97.3761 6.3626C96.8715 5.6709 95.6545 5.78233 95.2548 6.52974C95.0838 6.86823 95.0376 7.25298 95.0334 7.62826C95.0345 9.573 95.0345 11.5188 95.0334 13.4635C93.9287 13.4677 92.8229 13.4656 91.7172 13.4656C91.7151 8.97802 91.7161 4.48934 91.7172 0.00170898Z" fill="black" fill-opacity="0.2"/>
<path d="M24.4515 4.99498C25.6527 3.87123 27.4278 3.67886 28.991 3.91433C29.9898 4.04048 30.9676 4.51563 31.5761 5.33557C32.1783 6.2228 32.4678 7.29714 32.4983 8.36307C32.5056 8.70786 32.5413 9.05266 32.5759 9.39641C30.4619 9.46053 28.3437 9.39325 26.2287 9.43005C26.2591 10.1554 26.3074 10.9837 26.8687 11.5157C27.5516 12.0518 28.7392 11.8583 29.1411 11.0594C29.2544 10.8502 29.2921 10.6116 29.3477 10.3835C30.3958 10.3856 31.4449 10.3698 32.4941 10.3919C32.3346 11.8394 31.2026 13.0368 29.8366 13.4488C28.9186 13.78 27.9283 13.7095 26.9715 13.6759C25.8982 13.5729 24.761 13.2028 24.0727 12.3219C23.3142 11.399 23.1579 10.147 23.096 8.99274C23.0068 7.56309 23.3446 5.98627 24.4515 4.99498ZM26.6809 6.16498C26.4102 6.58862 26.3735 7.10687 26.2906 7.59148C27.3145 7.60199 28.3395 7.59463 29.3645 7.59568C29.3614 6.89768 29.1515 6.11137 28.521 5.72557C27.9167 5.41021 27.0585 5.57104 26.6809 6.16498Z" fill="#A1AEB7"/>
<path d="M24.4515 4.99498C25.6527 3.87123 27.4278 3.67886 28.991 3.91433C29.9898 4.04048 30.9676 4.51563 31.5761 5.33557C32.1783 6.2228 32.4678 7.29714 32.4983 8.36307C32.5056 8.70786 32.5413 9.05266 32.5759 9.39641C30.4619 9.46053 28.3437 9.39325 26.2287 9.43005C26.2591 10.1554 26.3074 10.9837 26.8687 11.5157C27.5516 12.0518 28.7392 11.8583 29.1411 11.0594C29.2544 10.8502 29.2921 10.6116 29.3477 10.3835C30.3958 10.3856 31.4449 10.3698 32.4941 10.3919C32.3346 11.8394 31.2026 13.0368 29.8366 13.4488C28.9186 13.78 27.9283 13.7095 26.9715 13.6759C25.8982 13.5729 24.761 13.2028 24.0727 12.3219C23.3142 11.399 23.1579 10.147 23.096 8.99274C23.0068 7.56309 23.3446 5.98627 24.4515 4.99498ZM26.6809 6.16498C26.4102 6.58862 26.3735 7.10687 26.2906 7.59148C27.3145 7.60199 28.3395 7.59463 29.3645 7.59568C29.3614 6.89768 29.1515 6.11137 28.521 5.72557C27.9167 5.41021 27.0585 5.57104 26.6809 6.16498Z" fill="black" fill-opacity="0.2"/>
<path d="M49.3199 5.46704C50.2179 3.94698 52.3162 3.45186 53.8909 4.12149C54.8928 4.54723 55.5895 5.58477 55.5947 6.67698C55.602 8.01097 55.5957 9.34391 55.5978 10.6779C55.5706 11.6093 55.707 12.5343 55.7153 13.4657C54.5823 13.4657 53.4492 13.4668 52.3162 13.4647C52.313 11.5557 52.3162 9.64666 52.3151 7.73766C52.3057 7.23413 52.2522 6.68329 51.927 6.27647C51.4528 5.75402 50.5641 5.80553 50.0711 6.27332C49.7259 6.62653 49.6546 7.14793 49.6514 7.62097C49.6525 9.56992 49.6525 11.5178 49.6525 13.4657C48.5509 13.4636 47.4503 13.472 46.3498 13.4605C46.3488 11.6208 46.3477 9.78017 46.3498 7.94054C46.3488 7.38971 46.3362 6.78736 46.0067 6.31957C45.4633 5.6468 44.2463 5.8255 43.8854 6.5992C43.7364 6.88197 43.6987 7.20364 43.7018 7.51795C43.7018 9.49949 43.7018 11.481 43.7018 13.4626C42.5918 13.4678 41.4819 13.4699 40.3719 13.4605C40.3709 10.3384 40.3729 7.21626 40.3708 4.09415C41.4462 4.08679 42.5216 4.08469 43.5969 4.09415C43.6116 4.54512 43.6263 4.99504 43.6368 5.44601C44.0827 4.77639 44.7226 4.17089 45.5378 4.01426C46.5712 3.77143 47.7777 3.8345 48.6191 4.55143C48.938 4.77954 49.1405 5.12434 49.3199 5.46704Z" fill="#A1AEB7"/>
<path d="M49.3199 5.46704C50.2179 3.94698 52.3162 3.45186 53.8909 4.12149C54.8928 4.54723 55.5895 5.58477 55.5947 6.67698C55.602 8.01097 55.5957 9.34391 55.5978 10.6779C55.5706 11.6093 55.707 12.5343 55.7153 13.4657C54.5823 13.4657 53.4492 13.4668 52.3162 13.4647C52.313 11.5557 52.3162 9.64666 52.3151 7.73766C52.3057 7.23413 52.2522 6.68329 51.927 6.27647C51.4528 5.75402 50.5641 5.80553 50.0711 6.27332C49.7259 6.62653 49.6546 7.14793 49.6514 7.62097C49.6525 9.56992 49.6525 11.5178 49.6525 13.4657C48.5509 13.4636 47.4503 13.472 46.3498 13.4605C46.3488 11.6208 46.3477 9.78017 46.3498 7.94054C46.3488 7.38971 46.3362 6.78736 46.0067 6.31957C45.4633 5.6468 44.2463 5.8255 43.8854 6.5992C43.7364 6.88197 43.6987 7.20364 43.7018 7.51795C43.7018 9.49949 43.7018 11.481 43.7018 13.4626C42.5918 13.4678 41.4819 13.4699 40.3719 13.4605C40.3709 10.3384 40.3729 7.21626 40.3708 4.09415C41.4462 4.08679 42.5216 4.08469 43.5969 4.09415C43.6116 4.54512 43.6263 4.99504 43.6368 5.44601C44.0827 4.77639 44.7226 4.17089 45.5378 4.01426C46.5712 3.77143 47.7777 3.8345 48.6191 4.55143C48.938 4.77954 49.1405 5.12434 49.3199 5.46704Z" fill="black" fill-opacity="0.2"/>
<path d="M60.2865 3.9227C61.8308 3.69774 63.5492 3.84281 64.8313 4.81623C65.8112 5.53946 66.341 6.7347 66.4606 7.92467C66.577 9.18718 66.47 10.5338 65.808 11.6439C65.3023 12.5006 64.4567 13.1198 63.5188 13.4225C62.5966 13.7537 61.6021 13.7221 60.639 13.679C59.4619 13.5655 58.2659 13.0819 57.5031 12.1453C56.5684 11.0573 56.347 9.53723 56.4582 8.14963C56.5337 7.11208 56.88 6.06928 57.5955 5.29663C58.2868 4.5282 59.2762 4.07828 60.2865 3.9227ZM60.9065 5.88531C60.2351 6.12499 59.9885 6.88081 59.8899 7.52311C59.8175 8.2947 59.8301 9.0726 59.8752 9.84629C59.9424 10.4413 60.1039 11.0857 60.5781 11.4904C61.0754 11.8583 61.8129 11.8667 62.3249 11.523C62.9208 11.0478 63.0247 10.2384 63.1097 9.52987C63.1369 8.49443 63.2167 7.36858 62.6774 6.4372C62.3291 5.84957 61.5234 5.65194 60.9065 5.88531Z" fill="#A1AEB7"/>
<path d="M60.2865 3.9227C61.8308 3.69774 63.5492 3.84281 64.8313 4.81623C65.8112 5.53946 66.341 6.7347 66.4606 7.92467C66.577 9.18718 66.47 10.5338 65.808 11.6439C65.3023 12.5006 64.4567 13.1198 63.5188 13.4225C62.5966 13.7537 61.6021 13.7221 60.639 13.679C59.4619 13.5655 58.2659 13.0819 57.5031 12.1453C56.5684 11.0573 56.347 9.53723 56.4582 8.14963C56.5337 7.11208 56.88 6.06928 57.5955 5.29663C58.2868 4.5282 59.2762 4.07828 60.2865 3.9227ZM60.9065 5.88531C60.2351 6.12499 59.9885 6.88081 59.8899 7.52311C59.8175 8.2947 59.8301 9.0726 59.8752 9.84629C59.9424 10.4413 60.1039 11.0857 60.5781 11.4904C61.0754 11.8583 61.8129 11.8667 62.3249 11.523C62.9208 11.0478 63.0247 10.2384 63.1097 9.52987C63.1369 8.49443 63.2167 7.36858 62.6774 6.4372C62.3291 5.84957 61.5234 5.65194 60.9065 5.88531Z" fill="black" fill-opacity="0.2"/>
<path d="M83.2068 4.88771C84.1289 4.02256 85.4603 3.83965 86.6731 3.82178C87.8198 3.85016 89.1081 3.99733 89.9432 4.8772C90.5024 5.40701 90.7038 6.19542 90.7311 6.94283C89.6851 6.94388 88.6381 6.94283 87.5921 6.94283C87.5533 6.63062 87.5585 6.27005 87.3183 6.03458C87.0235 5.72868 86.5608 5.74445 86.1726 5.78755C85.7603 5.85587 85.5557 6.31946 85.5956 6.69895C85.6911 7.08579 86.1139 7.22035 86.4465 7.33493C87.4347 7.62507 88.444 7.85633 89.3976 8.25369C90.0009 8.5186 90.5359 8.99795 90.7395 9.64129C91.0427 10.5821 90.9377 11.7216 90.2663 12.4838C89.5991 13.2554 88.5562 13.5581 87.5795 13.679C86.1989 13.7189 84.6787 13.822 83.4764 13.0136C82.6434 12.4501 82.3213 11.3979 82.3958 10.4308C83.4449 10.4318 84.494 10.4265 85.5431 10.4339C85.4729 10.9953 85.7761 11.6249 86.3573 11.7616C86.8766 11.8583 87.612 11.6996 87.7253 11.0909C87.8712 10.5664 87.3907 10.1438 86.9521 9.96927C85.7309 9.47941 84.343 9.33119 83.277 8.50388C82.1597 7.65976 82.1818 5.79701 83.2068 4.88771Z" fill="#A1AEB7"/>
<path d="M83.2068 4.88771C84.1289 4.02256 85.4603 3.83965 86.6731 3.82178C87.8198 3.85016 89.1081 3.99733 89.9432 4.8772C90.5024 5.40701 90.7038 6.19542 90.7311 6.94283C89.6851 6.94388 88.6381 6.94283 87.5921 6.94283C87.5533 6.63062 87.5585 6.27005 87.3183 6.03458C87.0235 5.72868 86.5608 5.74445 86.1726 5.78755C85.7603 5.85587 85.5557 6.31946 85.5956 6.69895C85.6911 7.08579 86.1139 7.22035 86.4465 7.33493C87.4347 7.62507 88.444 7.85633 89.3976 8.25369C90.0009 8.5186 90.5359 8.99795 90.7395 9.64129C91.0427 10.5821 90.9377 11.7216 90.2663 12.4838C89.5991 13.2554 88.5562 13.5581 87.5795 13.679C86.1989 13.7189 84.6787 13.822 83.4764 13.0136C82.6434 12.4501 82.3213 11.3979 82.3958 10.4308C83.4449 10.4318 84.494 10.4265 85.5431 10.4339C85.4729 10.9953 85.7761 11.6249 86.3573 11.7616C86.8766 11.8583 87.612 11.6996 87.7253 11.0909C87.8712 10.5664 87.3907 10.1438 86.9521 9.96927C85.7309 9.47941 84.343 9.33119 83.277 8.50388C82.1597 7.65976 82.1818 5.79701 83.2068 4.88771Z" fill="black" fill-opacity="0.2"/>
<path d="M102.95 5.22522C103.706 4.41999 104.77 3.9438 105.868 3.86706C107.23 3.74617 108.757 3.88388 109.831 4.81946C110.543 5.4176 110.907 6.31954 111.092 7.20991C111.247 7.9363 111.288 8.67951 111.281 9.41956C109.181 9.42587 107.081 9.41536 104.981 9.42482C104.985 10.1239 105.034 10.9049 105.53 11.4484C106.187 12.0497 107.435 11.9057 107.857 11.0889C107.991 10.8818 108.042 10.6369 108.075 10.3951C109.12 10.3667 110.165 10.3856 111.21 10.3846C111.107 11.6828 110.164 12.7919 108.994 13.2901C107.948 13.781 106.771 13.7295 105.647 13.6717C104.535 13.5561 103.362 13.1293 102.699 12.1758C101.962 11.0983 101.803 9.74229 101.822 8.46611C101.801 7.29927 102.178 6.11034 102.95 5.22522ZM105.356 6.26382C105.138 6.67169 105.077 7.13948 105.055 7.59571C106.081 7.59466 107.108 7.60307 108.136 7.59045C108.107 6.95237 107.917 6.27538 107.429 5.83598C106.798 5.34716 105.73 5.54374 105.356 6.26382Z" fill="#A1AEB7"/>
<path d="M102.95 5.22522C103.706 4.41999 104.77 3.9438 105.868 3.86706C107.23 3.74617 108.757 3.88388 109.831 4.81946C110.543 5.4176 110.907 6.31954 111.092 7.20991C111.247 7.9363 111.288 8.67951 111.281 9.41956C109.181 9.42587 107.081 9.41536 104.981 9.42482C104.985 10.1239 105.034 10.9049 105.53 11.4484C106.187 12.0497 107.435 11.9057 107.857 11.0889C107.991 10.8818 108.042 10.6369 108.075 10.3951C109.12 10.3667 110.165 10.3856 111.21 10.3846C111.107 11.6828 110.164 12.7919 108.994 13.2901C107.948 13.781 106.771 13.7295 105.647 13.6717C104.535 13.5561 103.362 13.1293 102.699 12.1758C101.962 11.0983 101.803 9.74229 101.822 8.46611C101.801 7.29927 102.178 6.11034 102.95 5.22522ZM105.356 6.26382C105.138 6.67169 105.077 7.13948 105.055 7.59571C106.081 7.59466 107.108 7.60307 108.136 7.59045C108.107 6.95237 107.917 6.27538 107.429 5.83598C106.798 5.34716 105.73 5.54374 105.356 6.26382Z" fill="black" fill-opacity="0.2"/>
<path d="M116.815 4.07414C117.31 3.87231 117.85 3.83026 118.379 3.8208C118.381 4.76374 118.379 5.70773 118.381 6.65067C117.583 6.62018 116.679 6.65172 116.054 7.21517C115.447 7.81751 115.431 8.72681 115.438 9.52468C115.318 10.8387 115.471 12.159 115.397 13.472C114.301 13.4573 113.204 13.4709 112.108 13.4657C112.106 11.4831 112.108 9.50155 112.107 7.52002C112.094 6.3763 112.146 5.22943 112.024 4.08991C113.134 4.09096 114.245 4.08255 115.356 4.09517C115.37 4.63759 115.386 5.18107 115.4 5.7235C115.598 5.00552 116.104 4.3401 116.815 4.07414Z" fill="#A1AEB7"/>
<path d="M116.815 4.07414C117.31 3.87231 117.85 3.83026 118.379 3.8208C118.381 4.76374 118.379 5.70773 118.381 6.65067C117.583 6.62018 116.679 6.65172 116.054 7.21517C115.447 7.81751 115.431 8.72681 115.438 9.52468C115.318 10.8387 115.471 12.159 115.397 13.472C114.301 13.4573 113.204 13.4709 112.108 13.4657C112.106 11.4831 112.108 9.50155 112.107 7.52002C112.094 6.3763 112.146 5.22943 112.024 4.08991C113.134 4.09096 114.245 4.08255 115.356 4.09517C115.37 4.63759 115.386 5.18107 115.4 5.7235C115.598 5.00552 116.104 4.3401 116.815 4.07414Z" fill="black" fill-opacity="0.2"/>
<path d="M33.2945 4.08899C34.3898 4.08899 35.4851 4.08794 36.5804 4.09004C36.5772 4.68083 36.637 5.2674 36.679 5.85608C36.8741 5.05611 37.5057 4.37282 38.302 4.15207C38.73 4.01541 39.1811 3.99438 39.6281 3.99438C39.6281 4.94363 39.6291 5.89393 39.627 6.84317C38.8779 6.81689 38.0428 6.78431 37.4081 7.2521C36.8384 7.67468 36.6706 8.4242 36.6653 9.09803C36.6506 10.554 36.6632 12.0099 36.659 13.4658C35.5501 13.4637 34.4422 13.4711 33.3333 13.4616C33.3176 10.3374 33.3721 7.21215 33.2945 4.08899Z" fill="#A1AEB7"/>
<path d="M33.2945 4.08899C34.3898 4.08899 35.4851 4.08794 36.5804 4.09004C36.5772 4.68083 36.637 5.2674 36.679 5.85608C36.8741 5.05611 37.5057 4.37282 38.302 4.15207C38.73 4.01541 39.1811 3.99438 39.6281 3.99438C39.6281 4.94363 39.6291 5.89393 39.627 6.84317C38.8779 6.81689 38.0428 6.78431 37.4081 7.2521C36.8384 7.67468 36.6706 8.4242 36.6653 9.09803C36.6506 10.554 36.6632 12.0099 36.659 13.4658C35.5501 13.4637 34.4422 13.4711 33.3333 13.4616C33.3176 10.3374 33.3721 7.21215 33.2945 4.08899Z" fill="black" fill-opacity="0.2"/>
<path d="M78.2191 4.08994C79.3144 4.08783 80.4108 4.08889 81.5071 4.08889C81.5071 7.21519 81.5082 10.3404 81.5071 13.4657C80.4108 13.4657 79.3155 13.4667 78.2202 13.4657C78.2181 10.3404 78.2191 7.21519 78.2191 4.08994Z" fill="#A1AEB7"/>
<path d="M78.2191 4.08994C79.3144 4.08783 80.4108 4.08889 81.5071 4.08889C81.5071 7.21519 81.5082 10.3404 81.5071 13.4657C80.4108 13.4657 79.3155 13.4667 78.2202 13.4657C78.2181 10.3404 78.2191 7.21519 78.2191 4.08994Z" fill="black" fill-opacity="0.2"/>
<path d="M6.88693 17.2722C8.07559 17.1072 9.32195 17.267 10.4004 17.8052C10.4917 17.8473 10.584 17.8851 10.6774 17.925C10.4718 18.1879 10.2892 18.4685 10.1025 18.746C9.96716 18.6683 9.82658 18.601 9.69019 18.5253C8.7827 18.1416 7.73672 17.9671 6.78201 18.2814C6.39803 18.3981 6.09589 18.7019 5.94691 19.0709C5.84619 19.8708 6.70962 20.2293 7.34854 20.367C8.26338 20.5794 9.21284 20.7528 10.0343 21.2332C10.4435 21.475 10.7026 21.8892 10.8495 22.3317C10.988 23.0087 10.8002 23.753 10.2976 24.2386C9.86644 24.718 9.24431 24.9493 8.63687 25.1059C8.06929 25.1721 7.50066 25.2583 6.92889 25.2015C6.62464 25.1269 6.30571 25.15 6.00146 25.0765C5.42759 24.9734 4.8789 24.7695 4.3407 24.5477C4.46974 24.2502 4.6439 23.9769 4.8128 23.7025C5.42025 23.876 5.99202 24.184 6.63409 24.2292C7.14396 24.3143 7.67692 24.3248 8.18784 24.2355C8.7806 24.1177 9.49191 23.7687 9.54121 23.0844C9.60731 22.5483 9.16668 22.1352 8.71555 21.9417C8.58231 21.8923 8.44698 21.8524 8.31479 21.8019C7.21845 21.4613 5.89235 21.4624 5.07928 20.5373C4.54213 20.0033 4.5138 19.1224 4.88624 18.4895C5.31324 17.7873 6.11372 17.4341 6.88693 17.2722Z" fill="#A1AEB7"/>
<path d="M6.88693 17.2722C8.07559 17.1072 9.32195 17.267 10.4004 17.8052C10.4917 17.8473 10.584 17.8851 10.6774 17.925C10.4718 18.1879 10.2892 18.4685 10.1025 18.746C9.96716 18.6683 9.82658 18.601 9.69019 18.5253C8.7827 18.1416 7.73672 17.9671 6.78201 18.2814C6.39803 18.3981 6.09589 18.7019 5.94691 19.0709C5.84619 19.8708 6.70962 20.2293 7.34854 20.367C8.26338 20.5794 9.21284 20.7528 10.0343 21.2332C10.4435 21.475 10.7026 21.8892 10.8495 22.3317C10.988 23.0087 10.8002 23.753 10.2976 24.2386C9.86644 24.718 9.24431 24.9493 8.63687 25.1059C8.06929 25.1721 7.50066 25.2583 6.92889 25.2015C6.62464 25.1269 6.30571 25.15 6.00146 25.0765C5.42759 24.9734 4.8789 24.7695 4.3407 24.5477C4.46974 24.2502 4.6439 23.9769 4.8128 23.7025C5.42025 23.876 5.99202 24.184 6.63409 24.2292C7.14396 24.3143 7.67692 24.3248 8.18784 24.2355C8.7806 24.1177 9.49191 23.7687 9.54121 23.0844C9.60731 22.5483 9.16668 22.1352 8.71555 21.9417C8.58231 21.8923 8.44698 21.8524 8.31479 21.8019C7.21845 21.4613 5.89235 21.4624 5.07928 20.5373C4.54213 20.0033 4.5138 19.1224 4.88624 18.4895C5.31324 17.7873 6.11372 17.4341 6.88693 17.2722Z" fill="black" fill-opacity="0.2"/>
<path d="M19.7796 17.7475C21.2201 17.0411 22.9868 17.0915 24.3716 17.9104C24.2048 18.1669 23.9929 18.3866 23.8062 18.6263C23.759 18.6231 23.6635 18.6168 23.6152 18.6137C22.6385 18.0218 21.3596 18.0397 20.3441 18.5296C20.2947 18.5569 20.1961 18.6126 20.1458 18.641C19.3925 19.1298 18.8952 19.9771 18.8417 20.8759C18.8239 21.3826 18.7955 21.9071 18.9655 22.3938C19.296 23.3641 20.1814 24.1357 21.2159 24.2314C21.6953 24.3165 22.1926 24.3165 22.6721 24.2377C23.1389 24.1599 23.5743 23.9633 23.9908 23.7467C24.1524 24.0085 24.5626 24.2019 24.5038 24.5415C23.4023 25.1659 22.0908 25.2531 20.8581 25.0986C19.766 24.9167 18.6948 24.3512 18.0737 23.4093C17.5051 22.5473 17.3719 21.4488 17.567 20.447C17.8062 19.256 18.6696 18.2268 19.7796 17.7475Z" fill="#A1AEB7"/>
<path d="M19.7796 17.7475C21.2201 17.0411 22.9868 17.0915 24.3716 17.9104C24.2048 18.1669 23.9929 18.3866 23.8062 18.6263C23.759 18.6231 23.6635 18.6168 23.6152 18.6137C22.6385 18.0218 21.3596 18.0397 20.3441 18.5296C20.2947 18.5569 20.1961 18.6126 20.1458 18.641C19.3925 19.1298 18.8952 19.9771 18.8417 20.8759C18.8239 21.3826 18.7955 21.9071 18.9655 22.3938C19.296 23.3641 20.1814 24.1357 21.2159 24.2314C21.6953 24.3165 22.1926 24.3165 22.6721 24.2377C23.1389 24.1599 23.5743 23.9633 23.9908 23.7467C24.1524 24.0085 24.5626 24.2019 24.5038 24.5415C23.4023 25.1659 22.0908 25.2531 20.8581 25.0986C19.766 24.9167 18.6948 24.3512 18.0737 23.4093C17.5051 22.5473 17.3719 21.4488 17.567 20.447C17.8062 19.256 18.6696 18.2268 19.7796 17.7475Z" fill="black" fill-opacity="0.2"/>
<path d="M110.996 17.7475C111.909 17.3312 112.943 17.1336 113.94 17.3123C114.474 17.4016 114.976 17.6098 115.474 17.819C115.487 17.8705 115.514 17.9735 115.528 18.025C115.345 18.2321 115.17 18.4455 115 18.6631C114.414 18.3645 113.772 18.1364 113.105 18.1701C112.117 18.1648 111.088 18.6042 110.547 19.4578C109.972 20.3503 109.905 21.5203 110.233 22.5147C110.543 23.2338 111.122 23.8824 111.891 24.1094C112.55 24.3049 113.261 24.3543 113.938 24.2261C114.05 24.203 114.163 24.1809 114.279 24.1599C114.6 24.0306 114.922 23.9044 115.232 23.7499C115.395 23.9528 115.56 24.1557 115.731 24.3543C115.722 24.408 115.705 24.5152 115.697 24.5688C115.239 24.7938 114.757 24.9704 114.257 25.0723C113.501 25.1932 112.72 25.1943 111.965 25.0734C111.478 24.9861 111.008 24.8211 110.576 24.5793C109.919 24.2093 109.375 23.6437 109.042 22.9657C108.987 22.8374 108.944 22.705 108.889 22.5788C108.654 21.719 108.642 20.7844 108.929 19.935C109.289 18.97 110.059 18.168 110.996 17.7475Z" fill="#A1AEB7"/>
<path d="M110.996 17.7475C111.909 17.3312 112.943 17.1336 113.94 17.3123C114.474 17.4016 114.976 17.6098 115.474 17.819C115.487 17.8705 115.514 17.9735 115.528 18.025C115.345 18.2321 115.17 18.4455 115 18.6631C114.414 18.3645 113.772 18.1364 113.105 18.1701C112.117 18.1648 111.088 18.6042 110.547 19.4578C109.972 20.3503 109.905 21.5203 110.233 22.5147C110.543 23.2338 111.122 23.8824 111.891 24.1094C112.55 24.3049 113.261 24.3543 113.938 24.2261C114.05 24.203 114.163 24.1809 114.279 24.1599C114.6 24.0306 114.922 23.9044 115.232 23.7499C115.395 23.9528 115.56 24.1557 115.731 24.3543C115.722 24.408 115.705 24.5152 115.697 24.5688C115.239 24.7938 114.757 24.9704 114.257 25.0723C113.501 25.1932 112.72 25.1943 111.965 25.0734C111.478 24.9861 111.008 24.8211 110.576 24.5793C109.919 24.2093 109.375 23.6437 109.042 22.9657C108.987 22.8374 108.944 22.705 108.889 22.5788C108.654 21.719 108.642 20.7844 108.929 19.935C109.289 18.97 110.059 18.168 110.996 17.7475Z" fill="black" fill-opacity="0.2"/>
<path d="M31.3158 17.4216C31.7145 17.4216 32.1131 17.4216 32.5118 17.4216C32.5118 19.9624 32.5118 22.5042 32.5118 25.045C32.1131 25.045 31.7145 25.045 31.3168 25.045C31.3158 22.5032 31.3168 19.9624 31.3158 17.4216Z" fill="#A1AEB7"/>
<path d="M31.3158 17.4216C31.7145 17.4216 32.1131 17.4216 32.5118 17.4216C32.5118 19.9624 32.5118 22.5042 32.5118 25.045C32.1131 25.045 31.7145 25.045 31.3168 25.045C31.3158 22.5032 31.3168 19.9624 31.3158 17.4216Z" fill="black" fill-opacity="0.2"/>
<path d="M40.3719 17.4226C42.2551 17.4226 44.1404 17.3995 46.0236 17.4353C45.9417 17.7222 45.8956 18.0176 45.8557 18.313C44.4352 18.3277 43.0157 18.3162 41.5962 18.3193C41.5952 19.0783 41.5952 19.8373 41.5962 20.5963C42.7975 20.5942 43.9987 20.5973 45.201 20.5952C45.2 20.9001 45.2 21.2049 45.2 21.5108C44.0029 21.5108 42.8059 21.5098 41.6099 21.5108C41.6109 22.3707 41.6088 23.2316 41.6099 24.0915C43.1196 24.0894 44.6293 24.0915 46.139 24.0905C46.14 24.408 46.139 24.7265 46.14 25.045C44.217 25.0418 42.2939 25.0502 40.3708 25.0408C40.374 22.5011 40.3719 19.9624 40.3719 17.4226Z" fill="#A1AEB7"/>
<path d="M40.3719 17.4226C42.2551 17.4226 44.1404 17.3995 46.0236 17.4353C45.9417 17.7222 45.8956 18.0176 45.8557 18.313C44.4352 18.3277 43.0157 18.3162 41.5962 18.3193C41.5952 19.0783 41.5952 19.8373 41.5962 20.5963C42.7975 20.5942 43.9987 20.5973 45.201 20.5952C45.2 20.9001 45.2 21.2049 45.2 21.5108C44.0029 21.5108 42.8059 21.5098 41.6099 21.5108C41.6109 22.3707 41.6088 23.2316 41.6099 24.0915C43.1196 24.0894 44.6293 24.0915 46.139 24.0905C46.14 24.408 46.139 24.7265 46.14 25.045C44.217 25.0418 42.2939 25.0502 40.3708 25.0408C40.374 22.5011 40.3719 19.9624 40.3719 17.4226Z" fill="black" fill-opacity="0.2"/>
<path d="M52.7473 17.4246C53.2477 17.4267 53.7524 17.3836 54.2497 17.4519C55.0795 18.6324 55.9597 19.7782 56.8001 20.9514C57.4505 21.8197 58.0915 22.7027 58.6402 23.6394C58.6612 22.9939 58.5185 22.3579 58.5122 21.7125C58.4766 20.2807 58.4892 18.849 58.4745 17.4172C58.8742 17.4183 59.2739 17.4162 59.6736 17.4204C59.6757 19.9622 59.6715 22.503 59.6757 25.0438C59.2298 25.0417 58.785 25.0574 58.3402 25.028C57.5785 23.9263 56.7424 22.8793 55.965 21.7892C55.2128 20.8053 54.4805 19.7972 53.8625 18.7228C53.8436 19.2632 53.9139 19.8014 53.9213 20.3427C53.9863 21.908 53.9559 23.4743 53.9811 25.0406C53.5698 25.0459 53.1596 25.049 52.7494 25.0354C52.7515 22.4988 52.7536 19.9612 52.7473 17.4246Z" fill="#A1AEB7"/>
<path d="M52.7473 17.4246C53.2477 17.4267 53.7524 17.3836 54.2497 17.4519C55.0795 18.6324 55.9597 19.7782 56.8001 20.9514C57.4505 21.8197 58.0915 22.7027 58.6402 23.6394C58.6612 22.9939 58.5185 22.3579 58.5122 21.7125C58.4766 20.2807 58.4892 18.849 58.4745 17.4172C58.8742 17.4183 59.2739 17.4162 59.6736 17.4204C59.6757 19.9622 59.6715 22.503 59.6757 25.0438C59.2298 25.0417 58.785 25.0574 58.3402 25.028C57.5785 23.9263 56.7424 22.8793 55.965 21.7892C55.2128 20.8053 54.4805 19.7972 53.8625 18.7228C53.8436 19.2632 53.9139 19.8014 53.9213 20.3427C53.9863 21.908 53.9559 23.4743 53.9811 25.0406C53.5698 25.0459 53.1596 25.049 52.7494 25.0354C52.7515 22.4988 52.7536 19.9612 52.7473 17.4246Z" fill="black" fill-opacity="0.2"/>
<path d="M66.0419 17.4172C68.3625 17.4183 70.6832 17.4172 73.0049 17.4183C72.9703 17.72 72.922 18.0196 72.8706 18.3192C71.9264 18.3192 70.9832 18.3202 70.039 18.3181C70.0411 20.5593 70.038 22.8015 70.0411 25.0427C69.6467 25.0448 69.2532 25.0459 68.8598 25.0427C68.8577 22.8026 68.8609 20.5625 68.8588 18.3223C67.9198 18.315 66.9819 18.3213 66.044 18.3192C66.0429 18.0185 66.0429 17.7179 66.0419 17.4172Z" fill="#A1AEB7"/>
<path d="M66.0419 17.4172C68.3625 17.4183 70.6832 17.4172 73.0049 17.4183C72.9703 17.72 72.922 18.0196 72.8706 18.3192C71.9264 18.3192 70.9832 18.3202 70.039 18.3181C70.0411 20.5593 70.038 22.8015 70.0411 25.0427C69.6467 25.0448 69.2532 25.0459 68.8598 25.0427C68.8577 22.8026 68.8609 20.5625 68.8588 18.3223C67.9198 18.315 66.9819 18.3213 66.044 18.3192C66.0429 18.0185 66.0429 17.7179 66.0419 17.4172Z" fill="black" fill-opacity="0.2"/>
<path d="M79.2599 17.4214C79.6627 17.4214 80.0656 17.4204 80.4695 17.4225C80.4716 19.9632 80.4685 22.504 80.4706 25.0448C80.0677 25.0437 79.6638 25.0448 79.262 25.0448C79.2578 22.503 79.262 19.9622 79.2599 17.4214Z" fill="#A1AEB7"/>
<path d="M79.2599 17.4214C79.6627 17.4214 80.0656 17.4204 80.4695 17.4225C80.4716 19.9632 80.4685 22.504 80.4706 25.0448C80.0677 25.0437 79.6638 25.0448 79.262 25.0448C79.2578 22.503 79.262 19.9622 79.2599 17.4214Z" fill="black" fill-opacity="0.2"/>
<path d="M88.3221 17.4246C90.1749 17.4089 92.0266 17.4225 93.8794 17.4173C93.8605 17.5571 93.8447 17.6969 93.828 17.8367C93.7702 17.986 93.7461 18.1447 93.7251 18.3024C92.335 18.3119 90.945 18.3045 89.5559 18.3066C89.557 19.0614 89.5528 19.8161 89.558 20.5709C90.7362 20.5741 91.9154 20.5615 93.0946 20.5783C93.0946 20.8726 93.0936 21.167 93.0967 21.4623C91.9164 21.475 90.7362 21.4644 89.5559 21.4676C89.5549 22.6586 89.5549 23.8496 89.5559 25.0407C89.1447 25.0459 88.7345 25.047 88.3242 25.0407C88.3232 22.502 88.3274 19.9633 88.3221 17.4246Z" fill="#A1AEB7"/>
<path d="M88.3221 17.4246C90.1749 17.4089 92.0266 17.4225 93.8794 17.4173C93.8605 17.5571 93.8447 17.6969 93.828 17.8367C93.7702 17.986 93.7461 18.1447 93.7251 18.3024C92.335 18.3119 90.945 18.3045 89.5559 18.3066C89.557 19.0614 89.5528 19.8161 89.558 20.5709C90.7362 20.5741 91.9154 20.5615 93.0946 20.5783C93.0946 20.8726 93.0936 21.167 93.0967 21.4623C91.9164 21.475 90.7362 21.4644 89.5559 21.4676C89.5549 22.6586 89.5549 23.8496 89.5559 25.0407C89.1447 25.0459 88.7345 25.047 88.3242 25.0407C88.3232 22.502 88.3274 19.9633 88.3221 17.4246Z" fill="black" fill-opacity="0.2"/>
<path d="M100.354 17.4236C100.767 17.4215 101.182 17.4121 101.597 17.4373C101.589 19.9697 101.594 22.5031 101.595 25.0355C101.181 25.0502 100.769 25.046 100.357 25.0418C100.355 22.5031 100.36 19.9634 100.354 17.4236Z" fill="#A1AEB7"/>
<path d="M100.354 17.4236C100.767 17.4215 101.182 17.4121 101.597 17.4373C101.589 19.9697 101.594 22.5031 101.595 25.0355C101.181 25.0502 100.769 25.046 100.357 25.0418C100.355 22.5031 100.36 19.9634 100.354 17.4236Z" fill="black" fill-opacity="0.2"/>
</svg>
