<svg width="18" height="18" viewBox="0 0 18 18" fill="none" xmlns="http://www.w3.org/2000/svg">
<path d="M17.0917 15.9083L14 12.8417C15.2001 11.3454 15.7813 9.44609 15.6241 7.53443C15.4668 5.62276 14.5831 3.844 13.1546 2.56388C11.7262 1.28377 9.86155 0.599604 7.94414 0.652071C6.02674 0.704538 4.20231 1.48965 2.84599 2.84596C1.48968 4.20228 0.704568 6.02671 0.652101 7.94411C0.599634 9.86152 1.2838 11.7262 2.56391 13.1546C3.84403 14.5831 5.62279 15.4668 7.53446 15.624C9.44612 15.7813 11.3454 15.2001 12.8417 14L15.9084 17.0667C15.9858 17.1448 16.078 17.2068 16.1796 17.2491C16.2811 17.2914 16.39 17.3132 16.5 17.3132C16.6101 17.3132 16.719 17.2914 16.8205 17.2491C16.9221 17.2068 17.0142 17.1448 17.0917 17.0667C17.2419 16.9113 17.3259 16.7036 17.3259 16.4875C17.3259 16.2714 17.2419 16.0637 17.0917 15.9083ZM8.16671 14C7.01298 14 5.88517 13.6579 4.92588 13.0169C3.9666 12.3759 3.21892 11.4649 2.77741 10.399C2.3359 9.3331 2.22038 8.16021 2.44546 7.02865C2.67054 5.8971 3.22611 4.8577 4.04192 4.04189C4.85773 3.22608 5.89713 2.67051 7.02868 2.44543C8.16024 2.22035 9.33313 2.33587 10.399 2.77738C11.4649 3.21889 12.376 3.96657 13.0169 4.92585C13.6579 5.88514 14 7.01295 14 8.16668C14 9.71377 13.3855 11.1975 12.2915 12.2915C11.1975 13.3854 9.71381 14 8.16671 14Z" fill="#001681"/>
</svg>
